<?xml version="1.0" encoding="utf-8"?>
<!-- Generator: Adobe Illustrator 23.0.6, SVG Export Plug-In . SVG Version: 6.00 Build 0)  -->
<svg version="1.1" xmlns="http://www.w3.org/2000/svg" xmlns:xlink="http://www.w3.org/1999/xlink" x="0px" y="0px"
	 viewBox="0 0 1536 700" style="enable-background:new 0 0 1536 700;" xml:space="preserve">
<style type="text/css">
	.st0{fill:#ffffff;}
	.st1{display:none;}
	.st2{display:inline;fill:#ffffff;}
	.st3{display:inline;}
</style>
<g id="Wertschaetzung">
	<g>
		<path class="st0" d="M1032.7,420.1c-0.2-1.5-0.5-2.9-0.7-4.4c-0.7-3.4-1.3-6.9-2.4-10.2c-0.5-1.5-1-3-1.6-4.5
			c-0.7-1.8-1.7-3.5-2.6-5.3c-1.4-2.6-2.8-5.1-4.3-7.6c-1.4-2.5-2.9-4.9-4.5-7.2c-1.7-2.5-3.4-5.1-5.3-7.5c-2-2.6-4.3-4.8-5.9-7.6
			c-0.2-0.5-0.4-1.1-0.6-1.6c-0.1-0.4-0.1-0.9-0.1-1.3c0-0.3,0.1-0.7,0.2-1c0.2-0.4,0.3-0.7,0.5-1.1c0.7-0.9,1.4-1.7,2.2-2.5
			c3.2-2.8,6.4-5.6,9.4-8.6c3.7-3.8,7.4-7.8,10.1-12.5c1.6-2.8,2.6-5.8,3.4-8.9c0.3-1,0.4-2,0.4-3.1c0.1-1.5,0.2-3.1,0-4.6
			c-0.2-1.3-0.4-2.7-0.9-4c-1-2.7-2.5-5.1-4.1-7.4c-1.2-1.7-2.4-3.4-3.6-5c-3.8-5.1-8.4-9.6-13-13.9c-4.5-4.2-9.8-7.4-15.6-9.6
			c-3.3-1.2-6.7-2.1-10.2-2.5c-2.8-0.3-5.7-0.6-8.5-0.8c-3.5-0.2-7-0.3-10.5-0.2c-2.5,0-4.9,0.1-7.4,0c-5.5-0.4-10.9-1.3-16.4-2.2
			c-2.8-0.5-5.6-0.9-8.5-1.4c-2.7-0.4-5.5-0.9-8.3-1.1c-6.3-0.6-12.6-0.8-18.9-0.5c-2.8,0.1-5.7,0.3-8.6,0.3c-2.7,0-5.4,0-8.1-0.1
			c-3.5-0.2-6.9-0.5-10.4-0.5c-3.2,0-6.4,0.1-9.5,0.1c-1.8,0-3.6,0-5.4,0.1c-4,0.1-8,0.8-11.7,2.2c-2.7,1-5.4,2.3-8.3,3
			c-0.1,0-0.3,0-0.4,0.1c-0.3-0.5-0.6-1-0.9-1.6c-1-2.1-2-4.2-2.7-6.4c-0.8-2.3-1.5-4.6-2-6.9c-0.2-0.9-0.4-1.8-0.4-2.6
			c-0.1-1.2-0.3-2.4-0.4-3.5c0-1.2-0.2-2.5-0.1-3.7c0-0.8,0.1-1.6,0.1-2.4c0.1-1.2,0.2-2.5,0.4-3.7c0.2-1.2,0.4-2.5,0.6-3.7
			c0.4-2.2,1-4.3,1.6-6.4c1.6-4.9,3.4-9.7,5.5-14.5c2-4.7,4.4-9.2,6.6-13.9c2.7-5.7,4.9-11.5,7-17.4c2.1-6,4.1-12.1,5.9-18.3
			c3.4-11.8,6.4-23.8,8.4-35.9c0.5-3.3,1-6.6,1.4-9.9c0.2-1.6,0.2-3.3,0.3-4.9c0.2-3.5,0.3-7.1-0.1-10.6c-0.4-4-1.1-8.1-2.2-12
			c-0.8-3-1.7-6-2.9-8.8c-1.6-3.8-3.2-7.5-5.3-11c-2.2-3.6-4.9-6.9-7.7-10.1c-4.3-4.9-9-9.5-13.9-13.9c-4.8-4.4-10.2-8.1-15.7-11.3
			c-1.2-0.7-2.4-1.5-3.7-2.1c-1.3-0.7-2.6-1.3-4-1.8c-1.6-0.6-3.2-1.2-4.8-1.6c-1.9-0.4-3.8-0.6-5.8-0.6c-1.5,0-3,0.1-4.5,0.1
			c-2.4,0.1-4.7,0.4-7,1.3c-2.5,1-4.7,3.3-5.6,5.8c-1.2,3.3-1.1,6.9-1.2,10.4c-0.2,5.8,0.1,11.5,0,17.3c-0.1,1.7-0.2,3.4-0.4,5.1
			c-0.3,2.9-0.8,5.9-1.2,8.8c-0.4,2.9-0.8,5.8-1.2,8.7c-0.8,5.9-1.6,11.7-2.5,17.6c-0.8,6.1-1.6,12.2-3,18.2
			c-1.3,5.4-2.7,10.8-4.3,16.1c-0.4,1.2-0.8,2.4-1.2,3.6c-0.5,1.3-1,2.5-1.6,3.7c-0.9,2-2.1,3.9-3.3,5.8c-2.1,3.1-4.2,6.2-6.3,9.2
			c-2,2.9-4.3,5.4-6.7,7.9c-1.4,1.3-2.9,2.5-4.4,3.6c-2.1,1.5-4.3,3-6.4,4.4c-3.9,2.7-7.7,5.6-11.6,8.4c-1.8,1.3-3.6,2.5-5.3,3.7
			c-2.1,1.5-4.1,3-6,4.7c-3.8,3.2-7.3,6.9-10.6,10.7c-5.5,6.5-11.7,13.1-14.5,21.3c-2.3,7-3.5,14.3-5.1,21.4
			c-1.3,5.8-2.6,11.7-4.1,17.5c-1.5,5.8-2.9,11.5-4.6,17.2c-0.5,1.3-0.9,2.7-1.4,4c-0.6,1.6-1.3,3.1-2,4.7c-1.1,2.3-2.2,4.6-3.2,6.9
			c-0.3,0.4-0.6,0.8-0.9,1.1c-1.2,1.5-2.5,2.9-3.7,4.4c-2.2,2.7-4.3,5.6-6.4,8.4c-2.3,3-4.7,5.9-7.1,8.8c-1.1,1.3-2.2,2.7-3.4,3.9
			c-1.3,1.3-2.6,2.4-3.9,3.6c0.5-0.4,1-0.8,1.4-1.2c-2.8,2.3-5.5,4.7-8.5,6.7c-3.6,2.3-7.2,4.4-10.9,6.6c-1.6,0.9-3.1,2.1-4.6,3.2
			c-2.1,1.6-4.2,3.2-6.1,5c-2.8,2.5-5.2,5.6-7.3,8.7c-1.7,2.4-3.3,4.8-4.6,7.5c-1.3,2.8-2.4,5.7-3,8.7c-0.4,1.7-0.5,3.5-0.6,5.2
			c0,1.6,0.2,3,0.5,4.6c0.3,1.3,0.6,2.5,1,3.7c0,0.9-0.1,1.9-0.1,2.8c-0.1,2.1-0.2,4.1-0.3,6.2c-0.2,3.7-0.7,7.4-0.9,11.2
			c-0.1,3.3,0,6.7-0.1,10c-0.1,3.2-0.3,6.3-0.3,9.5c0,2.8,0,5.7-0.1,8.5c-0.4,6-0.8,11.9-0.9,17.9c-0.1,2.7-0.2,5.3-0.3,8
			c-0.1,2.9-0.3,5.9-0.3,8.8c0.1,5.5,0.6,10.9,0.9,16.4c0.3,5.7,0.6,11.5,0.7,17.2c0.1,5.9,0.1,11.7,0.4,17.5
			c0.2,5.9,0.2,11.9,0.5,17.8c0.1,3,0.3,5.9,0.5,8.9c0.2,2.8,0.3,5.6,0.6,8.4c0.1,1.5,0.3,3,0.5,4.4c0.3,1.7,0.6,3.4,1,5.2
			c0.5,2.5,1.4,4.9,2,7.3c0.3,1.4,0.5,2.9,0.6,4.3c0,0.6,0,1.2,0,1.8c0,1.2,0.3,2.2,0.9,3.2c0.8,1.4,2.8,2.3,4.3,2.5
			c1.2,0.2,2.5,0.1,3.8,0.2c1.5,0.1,3,0.2,4.5,0.4c1.8,0.3,3.7,0.5,5.4,1c4.4,1.7,9.1,2.7,13.8,3.6c4.6,0.9,9.2,1.6,13.8,2.7
			c5.8,1.4,11.6,3.1,17.4,4.5c5.7,1.3,11.6,2.1,17.3,3.5c2.9,0.7,5.8,1.5,8.8,2.1c3,0.6,6,1.1,9.1,1.5c6.1,1,12.1,2.2,18.1,3.4
			c6,1.1,12,1.9,18,2.8c6,0.9,11.9,1.8,17.9,2.7c3,0.4,5.9,0.8,8.9,1.2c3.2,0.4,6.4,1,9.6,1.5c5.9,0.9,11.9,1.6,17.9,2
			c12.7,0.9,25.3,2.5,38,2.5c0.1,0,0.2,0,0.3,0c6.1,0,12.1-0.3,18.2-0.4c6.3-0.1,12.5-0.3,18.7-0.7c3-0.2,5.9-0.4,8.9-0.6
			c3-0.2,6.1-0.4,9.1-0.8c6-0.8,11.9-1.8,17.9-2.7c6.5-1,13-1.7,19.4-3.3c5.7-1.5,11.1-4,16.3-6.6c5.6-2.8,11.3-5.4,16.1-9.4
			c1.2-1,2.5-2,3.7-3.1c1-0.9,1.9-1.8,2.9-2.7c0.9-0.8,1.7-1.7,2.5-2.6c2.7-3.2,4.9-6.9,6.9-10.6c1.5-2.7,2.8-5.4,4-8.3
			c0.8-1.9,1.4-4,2-6c0.4-1.2,0.6-2.5,0.8-3.7c0.2-1.4,0.5-2.8,0.8-4.2c0.3-1.3,0.6-2.6,0.8-3.9c0.2-2,0.4-4.1,0.4-6.1
			c0-1.1,0-2.2,0-3.4c0.2-2.1,0.4-4.3,0.9-6.4c0.7-1.9,1.6-3.6,2.6-5.3c1.4-1.9,3-3.7,4.7-5.3c1.4-1.4,2.9-2.9,4.3-4.3
			c2.2-1.9,4.5-3.7,6.7-5.6c1.6-1.4,3.2-2.8,4.7-4.3c1.2-1.2,2.2-2.5,3.1-3.9c0.7-1,1.4-2.1,1.9-3.3c0.3-0.8,0.6-1.6,0.9-2.4
			c0.8-2.4,1.4-4.8,1.7-7.3c0.2-1.4,0.3-2.8,0.2-4.2c0-0.9-0.1-1.9-0.2-2.8c-0.4-2.2-0.8-4.5-1.7-6.6c-1.2-2.9-2.6-5.6-4.1-8.4
			c-0.9-1.8-1.6-3.6-2.2-5.5c-0.4-1.3-0.8-2.7-1.1-4.1c-0.7-3.8-1-7.5-1-11.4c0-0.4,0.1-0.9,0.2-1.3c0.2-1,0.4-1.9,0.6-2.9
			c0.2-0.5,0.4-1,0.6-1.4c0.3-0.7,0.7-1.3,1-2c0.5-0.7,1-1.3,1.5-1.9c0.7-0.8,1.4-1.5,2.2-2.2c1-0.9,2-1.8,3-2.6
			c1.6-1.4,3.3-2.7,4.7-4.2c1.4-1.5,2.6-3.2,3.6-5c0.4-0.7,0.6-1.4,0.9-2.1c0.4-1.1,0.8-2.4,1-3.6
			C1033,425.7,1033,422.9,1032.7,420.1z M1016.4,426.3c-0.2,0.4-0.3,0.7-0.5,1.1c-1.9,2.5-4.3,4.6-6.6,6.7c-1.9,1.8-3.8,3.8-5.4,6
			c-1.1,1.6-2.2,3.3-3.1,5c-0.6,1.2-1.1,2.4-1.5,3.7c-0.6,1.8-1.2,3.6-1.5,5.5c-0.3,1.9-0.4,3.8-0.5,5.8c-0.1,3,0.1,6,0.5,9
			c0.4,3.1,1,6.3,1.9,9.3c0.8,2.8,1.9,5.5,3.2,8.1c1.4,2.8,2.8,5.6,3.7,8.6c0.1,1,0.2,2.1,0.2,3.1c-0.2,1.7-0.4,3.4-0.8,5
			c-0.3,0.7-0.5,1.3-0.9,1.9c-0.9,1.2-1.9,2.3-3,3.3c-3.6,3-7.2,5.9-10.6,9.2c-3.1,2.9-6.3,5.9-8.8,9.4c-0.9,1.2-1.7,2.5-2.4,3.8
			c-0.5,0.9-1,1.9-1.5,2.9c-1.1,2.3-1.9,4.7-2.4,7.1c-0.4,1.8-0.6,3.7-0.8,5.5c-0.2,2.3-0.3,4.6-0.3,6.9c-0.2,2.5-0.7,4.9-1,7.4
			c-0.2,1.5-0.3,3-0.6,4.5c-0.2,1.2-0.5,2.4-0.8,3.6c-1.7,4.8-3.8,9.5-6.4,13.9c-0.9,1.4-1.9,2.7-3.1,4c-0.7,0.7-1.4,1.4-2.1,2.1
			c-1.6,1.4-3.3,2.8-5,4c-2,1.4-4.1,2.6-6.2,3.8c-3.2,1.6-6.4,3.2-9.6,4.6c-2,0.8-4,1.6-6,2.3c-1.4,0.5-2.8,0.9-4.3,1.2
			c-7,1.3-14,2-21,3.1c-3.2,0.5-6.4,0.9-9.7,1.3c-3,0.4-6,0.6-9,0.8c-6,0.4-12.1,0.7-18.1,0.9c-5.9,0.2-11.9,0.2-17.8,0.3
			c-6.1,0.1-12.2,0.2-18.3,0c-5.5-0.3-11-0.9-16.6-1.3c-6.1-0.5-12.3-0.8-18.4-1.1c-7.6-0.5-15.1-1.4-22.7-2.1c-8-0.8-16-1.7-24-2.4
			c-6-0.6-12.1-0.8-18.1-1.5c-6-0.7-11.9-1.8-17.9-2.6c-3-0.4-6-0.7-8.9-1.1c-3.1-0.5-6.1-1.1-9.2-1.8c-2.8-0.6-5.5-1.2-8.3-1.5
			c-3-0.4-6-0.8-9-1.3c-3-0.5-6-1-9-1.6c-2.9-0.6-5.7-1.3-8.6-1.9c-5.6-1.2-11.3-2.1-16.9-3.4c-2.8-0.6-5.6-1.3-8.4-2
			c-2.4-0.6-4.8-1.1-7.3-1.3c-2.1-0.2-4.2-0.3-6.3-0.4c-0.7-0.1-1.3-0.1-2-0.2c0.1-1.6,0.1-3.2,0-4.8c-0.3-3.3-1-6.5-1.3-9.7
			c-0.6-7-0.5-14.1-0.7-21.1c-0.2-6-0.1-12-0.2-18c0-2.9-0.1-5.8-0.2-8.7c-0.1-2.9,0-5.9,0-8.9c0.1-6.2-0.1-12.4-0.2-18.5
			c-0.1-5.8-0.4-11.6-0.3-17.4c0.2-3.9,0.6-7.7,0.9-11.6c0.3-4.2,0.6-8.4,1-12.7c0.4-4.8,0.9-9.5,1-14.3c0.1-3.7-0.1-7.4,0-11.1
			c0.1-2.2,0.2-4.3,0.3-6.5c0-1.8,0.1-3.6,0.1-5.4c0.1-1.4,0.3-2.8,0.4-4.2c0.3-2.6,0.5-5.3,0.6-7.9c0.1-3.6,0.1-7.2,0.2-10.8
			c0.2-2.3,0.4-4.6,0.2-6.8c0-0.6-0.1-1.2-0.1-1.8c0.1-0.3,0.2-0.6,0.3-0.9c1.2-3,2.6-5.7,4.4-8.3c2.2-3,4.5-5.8,7.2-8.2
			c1.1-0.9,2.1-1.7,3.2-2.6c1.4-1.1,2.9-2.1,4.4-3c2.1-1.3,4.1-2.7,6.1-4.1c2.3-1.6,4.6-3.3,6.7-5.3c1.6-1.5,3.1-3,4.5-4.6
			c1.9-2.1,3.7-4.2,5.4-6.5c1.3-1.9,2.5-3.9,3.7-5.9c1.3-2.1,2.5-4.3,3.8-6.4c2.3-4.1,4.2-8.5,6.6-12.6c1.2-2.1,2.5-4.2,3.5-6.4
			c0.5-1.2,1.1-2.3,1.6-3.6c0.5-1.3,0.9-2.6,1.3-3.9c0.7-1.3,1.4-2.6,2-4c0.6-1.3,1.1-2.7,1.7-4c1.1-2.7,2-5.5,2.9-8.3
			c2.1-6.1,4.1-12.3,6.1-18.4c0.2-0.6,0.4-1.2,0.6-1.8c-0.1,0.2-0.1,0.4-0.2,0.6c2.4-7.5,4.4-15.2,6.6-22.8c1-2.8,2.1-5.6,3.6-8.1
			c2.5-3.7,5.6-6.9,8.7-10.1c2.3-2.4,4.7-4.8,7.1-7.2c2.8-2.4,5.7-4.7,8.7-6.9c3.5-2.4,7-4.8,10.4-7.4c3.3-2.5,6.5-5.1,9.8-7.6
			c1.6-1.2,3.4-2.5,4.9-3.8c2-1.7,4-3.5,5.8-5.4c1.1-1.3,2.2-2.5,3.2-3.9c1.1-1.4,2-2.9,3-4.4c1.6-2.6,3.1-5.2,4.7-7.9
			c1.7-2.7,3.3-5.5,4.7-8.3c1.3-2.6,2.4-5.3,3.3-8.1c1.9-5.9,3.8-11.9,5.6-17.9c0.9-3,1.7-6,2.5-9c0.7-2.8,1.2-5.7,1.7-8.6
			c1.1-5.9,2.3-11.8,3.2-17.7c0.5-2.9,0.9-5.9,1.3-8.8c0.4-2.9,1-5.7,1.3-8.6c0.4-3.6,0.6-7.2,0.8-10.8c0.1-2.9-0.1-5.8-0.3-8.7
			c-0.2-3-0.3-5.9-0.5-8.9c-0.1-1.5-0.1-2.9-0.2-4.4c0-0.5-0.1-1.1-0.1-1.6c1,0,2,0,2.9,0c1.8,0.1,3.5,0.3,5.2,0.7
			c1.8,0.7,3.5,1.5,5.2,2.5c2.1,1.5,4.2,3,6.3,4.6c2.1,1.6,4.2,3.2,6.2,4.9c2.4,2.1,4.7,4.2,6.9,6.4c1.6,1.6,3.1,3.2,4.6,4.8
			c4.5,5,8.8,10.1,12.1,16c0.6,1.3,1.3,2.7,1.8,4c0.7,1.8,1.4,3.6,2.1,5.3c0.6,1.6,1.2,3.3,1.7,5c0.4,1.4,0.8,2.7,1.1,4.1
			c0.6,3.3,1.1,6.6,1.2,10c0.1,2.3,0,4.6-0.1,7c-0.2,2.6-0.5,5.1-0.8,7.6c-0.4,2.8-0.8,5.6-1.2,8.4c-0.8,5.1-1.8,10.1-2.8,15.1
			c-1,5.1-2.3,10.1-3.5,15.1c-1.1,4.5-2.5,8.9-3.8,13.3c-2.3,7.1-4.8,14.1-7.9,20.9c-1.7,3.7-3.4,7.4-5,11.1
			c-1.4,3.4-2.6,6.9-3.7,10.4c-1.1,3.4-2.1,6.8-3,10.2c-0.4,1.4-0.7,2.9-0.9,4.3c-0.2,1.3-0.5,2.6-0.6,3.9
			c-0.3,3.4-0.6,6.8-0.5,10.3c0.1,1.7,0.2,3.4,0.4,5.2c0.1,1.3,0.4,2.7,0.6,4c0.3,1.9,0.8,3.8,1.3,5.7c0.4,1.3,0.7,2.7,1.2,4
			c0.9,2.9,1.9,5.8,3.1,8.6c0.5,1.1,0.9,2.3,1.6,3.2c0.5,0.6,0.9,1.2,1.5,1.7c0.1,0.1,0.3,0.3,0.4,0.4c1.6,1.1,3.4,2.2,5.3,2.4
			c1.7,0.2,3.4,0.3,5,0c1.1-0.2,2.2-0.4,3.3-0.6c2.9-0.6,5.6-1.6,8.5-2.3c1.9-0.3,3.8-0.4,5.7-0.3c3.1,0.2,6.2,0.4,9.3,0.4
			c2.6,0.1,5.2,0.1,7.8,0.2c6.4,0.5,12.8,0.9,19.2,0.9c3,0,5.9-0.2,8.9-0.2c2.4,0,4.8,0,7.2,0.1c9.2,0.7,18.2,2.5,27.3,4
			c4.5,0.8,9.1,1.4,13.6,1.6c2.8,0.1,5.6,0.1,8.4,0.1c2,0,4,0,5.9,0c2.4,0.2,4.7,0.4,7.1,0.6c2.5,0.3,5,0.6,7.4,1.2
			c2.7,1,5.2,2.1,7.7,3.6c2.1,1.5,4.1,3.2,6,5c1.9,1.9,3.9,3.7,5.8,5.6c1.7,2,3.3,4.1,4.9,6.2c1.4,2,2.9,3.9,4.2,6
			c0.2,0.4,0.3,0.9,0.4,1.3c0.1,0.6,0.1,1.3,0.2,1.9c-0.2,1.5-0.5,2.9-0.9,4.3c-0.6,1.6-1.5,3.1-2.4,4.6c-2.5,3.8-5.6,7.3-8.7,10.6
			c-1.5,1.7-3.1,3.2-4.6,4.9c-0.6,0.7-1.2,1.3-1.7,2c-0.8,1.2-1.7,2.4-2.3,3.7c-0.5,1.3-1,2.6-1.3,4c-0.2,1.2-0.3,2.3-0.3,3.5
			c-0.2,4.9,1.7,9.7,4.3,13.7c1.3,2,2.7,4,3.9,6c1.3,2.1,2.4,4.3,3.6,6.4c0.8,1.5,1.7,3,2.5,4.5c0.8,1.5,1.5,3.1,2.3,4.6
			c1,1.9,2,3.8,2.8,5.7c0.8,2,1.6,4,2.2,6.1c0.5,1.7,0.9,3.4,1.3,5.1c0.7,3.2,1.3,6.5,1.3,9.8
			C1016.5,425.4,1016.5,425.8,1016.4,426.3z"/>
		<path class="st0" d="M917.3,383.1c-2-6.6-5.4-13-10.3-17.9c-1.3-1.3-2.7-2.5-4.1-3.5c-1.4-1.1-2.9-2.1-4.5-2.9
			c-1.3-0.7-2.6-1.3-4-1.8c-1.7-0.6-3.5-1.3-5.3-1.7c-1.9-0.4-3.7-0.7-5.6-0.9c-2.1-0.2-4.2-0.3-6.3-0.2c-3.8,0.2-7.7,0.9-11.2,2.3
			c-3.4,1.2-6.7,2.8-9.8,4.7c-2.9,1.8-5.6,3.9-8.2,6.1c-2.7,2.3-5.2,4.7-7.4,7.4c-0.9,1.1-1.8,2.3-2.7,3.5c-3.2,4.2-6,8.8-8.6,13.4
			c-0.2,0.3-0.3,0.6-0.5,0.8c-0.5-2.2-1-4.3-1.6-6.4c-0.7-2.4-1.5-4.8-2.3-7.2c-0.5-1.5-1.2-3.1-1.9-4.5c-0.8-1.7-1.6-3.4-2.5-5
			c-1.7-3-3.7-5.7-5.9-8.3c-4.7-5.3-10.7-9.5-17.6-11.4c-2-0.6-3.9-0.9-6-1.1c-2.1-0.2-4.2-0.4-6.3-0.3c-3.5,0.1-7,0.6-10.5,1.3
			c-3.6,0.8-7.3,1.8-10.7,3.3c-3.1,1.4-6.1,2.9-8.8,4.9c-5.6,3.9-10.5,8.8-14.5,14.3c-2.2,3-4.2,6-5.9,9.3c-1.6,3.1-2.9,6.3-4.1,9.6
			c-1.1,3.3-1.9,6.6-2.4,10c-0.5,3.6-0.8,7.2-0.8,10.8c0.1,3.7,0.5,7.4,1.1,11.1c0.6,3.5,1.4,6.9,2.5,10.3c0.9,2.7,1.8,5.4,2.9,8
			c0.7,1.5,1.3,3,2,4.4c2.1,4.7,4.4,9.2,7,13.6c1.2,2.1,2.4,4.1,3.7,6.1c1.3,2,2.6,4.1,4,6.1c1.5,2.1,3,4.3,4.5,6.4
			c1.7,2.3,3.4,4.5,5.1,6.8c3,4,6.3,7.9,9.5,11.8c3.1,3.8,6.3,7.5,9.6,11.2c6.7,7.5,13.6,15.1,21,22c3.5,3.2,7,6.4,10.8,9.2
			c2.1,1.5,4.2,3.1,6.4,4.6c1.1,0.8,2.2,1.6,3.3,2.4c0.7,0.5,1.3,1,2,1.4c0,0,0,0,0,0c-0.7-0.6-1.4-1.4-2.1-2
			c-0.8-0.8-1.7-1.7-2.5-2.5c-1.5-1.5-3.1-3.1-4.6-4.6c-3-3-5.7-6.2-8.5-9.4c-6.1-7.3-12.5-14.4-18.7-21.6c-1.6-1.9-3.3-3.8-4.8-5.7
			c-1.7-2.1-3.3-4.1-5-6.2c-1.6-2-3.2-4.2-4.8-6.3c-2.9-3.7-5.6-7.6-8.2-11.4c-1.3-1.9-2.6-3.8-3.8-5.7c-1.3-2.1-2.7-4.1-4-6.2
			c-0.9-1.6-1.8-3.1-2.7-4.7c-0.4-0.7-0.9-1.4-1.3-2.2c-1.2-2.2-2.3-4.5-3.5-6.7c-1.2-2.6-2.4-5.2-3.4-7.9c-0.7-2-1.5-4-2.2-6
			c-0.6-1.7-1.1-3.5-1.6-5.2c-0.6-2.1-1.1-4.3-1.5-6.4c-1-5.4-1.4-10.8-1.1-16.3c0.5-4.9,1.4-9.7,2.9-14.3c1.7-4.5,4-8.7,6.7-12.7
			c2.9-4,6.2-7.7,9.9-10.9c2.8-2.3,5.8-4.3,9-5.9c3.7-1.7,7.5-2.8,11.5-3.6c3.6-0.6,7.3-0.8,10.9-0.7c2.1,0.2,4.2,0.6,6.2,1.2
			c2,0.8,3.9,1.8,5.7,3c2.2,1.6,4.2,3.5,6,5.5c2.2,2.8,4.1,5.8,5.7,9c0.9,2.1,1.8,4.2,2.6,6.4c0.6,1.5,1,3.1,1.6,4.7
			c1,2.9,1.6,5.9,2.3,8.9c0.5,2.7,0.9,5.5,1.1,8.3c0,0.6,0.1,1.2,0.1,1.9c-1.1,3.2-2.1,6.4-3,9.6c-0.7,2.6-1.2,5.3-1.5,7.9
			c-0.2,1.9-0.4,4.2,0.4,6c0.3,0.9,0.8,1.7,1.5,2.3c0.4,0.3,0.8,0.5,1.2,0.8c1,0.6,2.1,0.9,3.3,0.9c1-0.1,2.3-0.5,3.1-1.1
			c0.8-0.5,1.8-1.7,2.3-2.6c0.5-1,0.8-1.9,1.2-2.9c1.7-4.8,2.2-10,2.4-15.1c0-0.5,0-1.1,0.1-1.6c0.4-0.9,0.8-1.7,1.2-2.6
			c1.1-2.5,2.4-4.9,3.8-7.3c2.6-4.7,5.6-9.2,8.6-13.7c0.9-1.4,1.9-2.7,2.9-4c0.9-1.1,1.8-2.3,2.8-3.4c1.8-2.1,3.8-4,5.9-5.8
			c3.1-2.6,6.5-4.8,10.1-6.6c2.6-1.2,5.3-2.1,8.1-2.7c2.5-0.4,4.9-0.5,7.4-0.4c2.5,0.3,4.9,0.8,7.3,1.5c2.1,0.8,4.1,1.9,5.9,3.1
			c1.7,1.3,3.2,2.7,4.7,4.3c1.5,1.9,2.7,3.9,3.8,6c1.2,2.8,2.1,5.7,2.8,8.6c0.6,3.8,0.8,7.5,0.6,11.3c-0.1,1.1-0.2,2.2-0.3,3.4
			c-0.1,1.4-0.4,2.9-0.6,4.3c-0.4,2.6-0.8,5.2-1.4,7.8c-0.4,1.8-0.8,3.6-1.2,5.3c-0.3,1.4-0.8,2.8-1.1,4.2c-0.6,2.2-1.3,4.3-2.1,6.5
			c-0.3,0.8-0.7,1.6-1,2.4c-0.4,0.9-0.7,1.9-1.2,2.8c-0.5,0.9-0.9,1.8-1.4,2.7c-0.5,0.9-0.9,1.8-1.4,2.7c-1,1.7-2,3.5-3.1,5.2
			c-1,1.5-2.1,3.1-3.1,4.6c-5.6,7.8-11.4,15.4-17.4,22.9c-2.8,3.6-5.8,7.1-8.9,10.5c-3.2,3.6-6.5,7.2-9.6,11c-1.7,2.1-3.4,4.2-5,6.4
			c-0.9,1.2-1.8,2.5-2.6,3.8c-0.7,1.1-1.5,2.1-2.2,3.3c-1.2,2-2.4,4-3.3,6c-1.3,2.9-2.5,5.9-3.6,8.9c-0.7,2-1.4,4.1-1.9,6.2
			c-0.6,2.3-1.3,4.7-1.6,7.1c-0.8,5.4-1.3,10.8-1.7,16.2c0,0,0,0,0,0c0,0,0,0,0,0c2.9-4.4,5.8-8.9,8.6-13.3c3.6-5,7.1-10,10.4-15.1
			c2.8-4.5,5.6-8.9,8.5-13.3c1.3-1.7,2.5-3.4,3.8-5.1c6.1-7.7,12.8-14.9,18.7-22.8c6.5-8.6,12.7-17.2,18.8-26.1c0.7-1,1.3-2,2-3.1
			c0.5-0.8,1.1-1.6,1.6-2.5c1.3-2.3,2.6-4.5,3.8-6.9c0.6-1.2,1.3-2.3,1.7-3.6c0.5-1.3,1.1-2.7,1.6-4c1.1-2.8,2-5.6,2.9-8.4
			c0.3-0.9,0.5-1.9,0.8-2.9c0.3-1.2,0.7-2.4,1-3.6c0.5-2.3,1-4.5,1.4-6.8c0.5-2.6,0.9-5.2,1.3-7.9c0.4-2.6,0.6-5.2,0.8-7.8
			c0.3-3.5,0.4-7.1,0-10.6C918.9,390,918.3,386.5,917.3,383.1z"/>
		<path class="st0" d="M599.2,380.1c-0.4-2-1.1-4.2-2.5-5.8c-1.1-1.3-2.3-2.5-3.4-3.7c-1.1-1.4-2.2-2.8-3.6-3.9
			c-1.5-1.2-3.4-1.8-5.2-2.2c-0.4-0.1-0.8-0.2-1.2-0.3c1.3,0.1,2.6,0.1,3.9,0.2c1.2,0.1,2.4,0.2,3.6,0.4c0.6,0.1,1.1,0.2,1.7,0.3
			c0.3,0.1,0.7,0.2,1.1,0.1c0,0,0,0,0,0c0,0,0-0.1,0-0.1c0,0,0,0,0,0c0,0,0,0,0,0c0,0,0,0,0,0.1c0,0,0,0,0,0c0,0,0,0-0.1,0
			c0,0,0,0,0,0c-1.2-0.2-2.4-0.7-3.6-1c-1.1-0.3-2.2-0.6-3.2-0.8c-2.5-0.5-5-1.1-7.4-1.7c-4.9-1.3-9.7-3-14.4-4.6
			c-2.5-0.9-5.1-1.8-7.7-2.5c-2.4-0.7-4.9-1.1-7.4-1.5c-1.2-0.2-2.4-0.2-3.7-0.4c-1.5-0.1-3-0.2-4.6-0.2c-1.2,0-2.5,0-3.7,0
			c-1.1,0-2.3,0.1-3.4,0.2c-2.9,0.4-5.8,0.9-8.7,1.5c-2.5,0.6-4.8,1.4-7.1,2.5c-2.8,1.3-5.6,2.7-8.3,4.3c-3.5,2-6.8,4.5-9.6,7.4
			c-3.6,3.7-7,7.8-10.1,11.9c-0.7,0.9-1.3,1.8-1.9,2.8c-0.4,0.6-0.8,1.2-1.2,1.8c-0.6,1.1-1.2,2.1-1.7,3.2c-1.4,3-2.7,6-3.7,9.1
			c-0.9,2.6-1.7,5.1-2.4,7.7c-0.7,2.5-1.3,5-1.9,7.5c-1.4,5.7-1.9,11.5-2.1,17.4c-0.2,5,0,10.1,0.4,15.1c0.4,5.5,0.8,11,1.3,16.5
			c0.4,5,0.9,10.1,1.4,15.1c0.3,2.7,0.5,5.4,0.7,8.1c0.2,2.5,0.3,4.9,0.3,7.4c0,2.7-0.2,5.4-0.4,8.1c-0.2,2.5-0.4,5-0.5,7.5
			c-0.2,5.3-0.3,10.6-0.2,15.9c0.1,10.1-0.5,20.1-0.2,30.2c0.2,5.5,0.2,11,1.4,16.4c0.5,2.5,1.1,5.1,2,7.5c0.9,2.4,1.9,4.8,3,7.2
			c1.4,3,2.8,5.8,4.5,8.6c1.2,2,2.8,3.9,4.3,5.5c1.4,1.5,3,2.8,4.6,4c1,0.8,2.2,1.5,3.2,2.2c0.4,0.3,0.8,0.6,1.2,0.8
			c1.1,0.6,2.1,1.3,3.2,1.9c2.4,1.3,4.8,2.4,7.3,3.4c3,1.3,6.1,2.2,9.2,3.2c3.6,1.1,7.3,1.5,11,1.8c1.4,0.1,2.9,0.2,4.3,0.2
			c1.2,0,2.4,0,3.6-0.1c1.4-0.1,2.7-0.2,4.1-0.4c1.9-0.3,3.8-0.6,5.7-1c2.6-0.5,5.1-1,7.7-1.6c2.6-0.6,5.2-1.2,7.8-1.9
			c2.9-0.7,5.9-1.3,8.6-2.5c2.1-0.9,4.2-1.8,6-3.1c1.6-1.1,3.1-2.3,4.5-3.7c1.4-1.4,2.6-2.9,3.7-4.6c0.9-1.4,1.7-2.8,2.4-4.3
			c1.4-3.2,2.6-6.5,3.5-9.9c1.4-5,2.4-10.1,3-15.3c0.7-6.2,1.2-12.5,1.5-18.7c0.2-5,0.3-10,0.3-15c0.1-5.3,0.1-10.5,0.1-15.8
			c-0.1-10.7-0.5-21.4-1-32c-0.1-2.5-0.3-4.9-0.4-7.4c-0.1-2.8-0.3-5.6-0.3-8.4c0-2.6,0-5.3,0.2-7.9c0.2-2.5,0.4-5.1,0.5-7.6
			c0.4-10.3,0.1-20.7,0.7-31c0.4-4.9,0.9-9.9,1-14.8c0.1-4.8,0.3-9.6,0.3-14.4C600.8,390.2,600.2,385.1,599.2,380.1z M585.8,380.2
			c-0.3,1.6-0.5,3.1-0.7,4.7c-0.6,4-1.1,8-1.3,12c-0.2,3.5-0.2,7.1-0.3,10.6c-0.1,3.3-0.2,6.5-0.4,9.8c-0.4,4.9-0.9,9.8-1,14.7
			c-0.1,5.3,0,10.7-0.2,16c-0.1,2.8-0.1,5.6-0.2,8.3c-0.1,2.5-0.4,5.1-0.5,7.6c-0.1,2.6-0.3,5.3-0.2,7.9c0.1,2.8,0.2,5.6,0.3,8.4
			c0.2,5.1,0.5,10.2,0.7,15.3c0.4,10.5,0.7,21,0.7,31.5c0,10.1-0.1,20.2-0.8,30.3c-0.4,4.5-0.9,9-1.6,13.5c-0.6,4-1.7,7.9-3,11.8
			c-0.8,2.1-1.7,4.1-2.8,6c-0.6,0.7-1.2,1.4-1.9,2.1c-0.9,0.6-1.7,1.2-2.7,1.7c-2.3,1-4.7,1.6-7.2,2.2c-2,0.5-4.1,1-6.1,1.5
			c-3.2,0.8-6.5,1.5-9.8,2.2c-1.6,0.2-3.2,0.5-4.8,0.6c-2.9,0.3-5.8,0.4-8.7,0.2c-2.5-0.3-5-0.7-7.5-1.4c-1.1-0.3-2.2-0.7-3.3-1
			c-0.9-0.3-1.8-0.7-2.6-1c-1.5-0.6-3-1.3-4.5-2c-2.3-1.1-4.4-2.4-6.5-3.8c-1.4-1.1-2.8-2.2-4-3.5c-1.7-2.2-3.1-4.6-4.3-7.1
			c-1-2.2-2-4.5-2.9-6.8c-0.8-2.2-1.4-4.5-1.9-6.8c-0.4-2.9-0.6-5.9-0.7-8.9c-0.1-3.7-0.2-7.3-0.2-11c0-5,0.1-10,0.2-15
			c0.1-5.2-0.1-10.4-0.1-15.6c0-5.1,0.3-10.1,0.6-15.1c0.2-2.7,0.4-5.3,0.4-8c0-2.5-0.1-4.9-0.3-7.4c-0.4-5.4-1-10.9-1.7-16.3
			c-0.6-5.3-1-10.5-1.5-15.8c-0.5-5.2-0.9-10.3-1.2-15.5c-0.1-2.4-0.3-4.8-0.2-7.2c0-1.4,0-2.8,0.1-4.2c0.1-0.7,0.1-1.4,0.2-2.1
			c0.2-1.3,0.3-2.6,0.5-3.9c0.2-1.2,0.4-2.4,0.7-3.6c0.4-2.1,0.9-4.2,1.4-6.3c0.5-2.2,1.1-4.3,1.7-6.5c0.5-1.8,1.1-3.6,1.7-5.3
			c0.4-1,0.9-2.1,1.3-3.1c0.4-1,1-2,1.5-3c0.8-1.7,2-3.3,3-4.8c3.3-4.7,6.7-9.4,10.9-13.2c3.8-3.1,8.1-5.7,12.4-8.1
			c2-0.9,4-1.7,6.1-2.4c1.9-0.7,3.9-1.1,5.9-1.5c2.2-0.4,4.4-0.8,6.7-0.9c1.2-0.1,2.5-0.2,3.7-0.2c1.2,0,2.5,0,3.7,0
			c1,0.1,1.9,0.2,2.9,0.2c5.5,0.7,11.1,1.4,16.6,2.2c1.9,0.2,3.8,0.4,5.8,0.6c0.1,0,0.2,0,0.2,0.1c0.3,0.1,0.5,0.3,0.8,0.4
			c0.8,0.6,1.5,1.3,2.3,1.9c1,0.8,2,1.6,2.8,2.6c0.3,0.4,0.6,0.8,0.8,1.2c0.3,1,0.6,2,0.8,3c0.3,1.4,0.6,2.9,0.6,4.3
			C586.2,378.4,586,379.3,585.8,380.2z"/>
	</g>
</g>
<g id="Aufrichtig" class="st1">
	<path class="st2" d="M1094.9,201.9c-0.1-1.6-0.1-3.2-0.2-4.8c-0.2-2-0.3-4-0.5-6c-0.3-3.2-0.7-6.4-1.1-9.5
		c-0.3-2.5-0.8-4.9-1.2-7.4c-0.2-1.2-0.4-2.4-0.7-3.6c-0.4-2-0.8-4.1-1.2-6.1c-0.3-1.6-0.8-3.2-1.2-4.8c-0.3-1.4-0.7-2.9-1.1-4.3
		c-0.5-1.6-0.8-3.2-1.4-4.8c-0.6-1.9-1.3-3.8-1.9-5.7c-0.5-1.5-1.1-2.9-1.7-4.4c-0.8-2-1.6-3.9-2.4-5.8c-0.6-1.3-1.2-2.7-1.8-4
		c-0.8-1.6-1.5-3.1-2.4-4.6c-0.8-1.4-1.6-2.9-2.5-4.3c-1.9-3-3.8-5.9-5.9-8.7c-2.3-3.1-4.6-6.2-7.2-9.1c-1.2-1.3-2.5-2.6-3.8-3.8
		c-0.5-0.5-1-0.9-1.5-1.3c-0.6-0.5-1.2-1.1-1.8-1.6c-3.1-2.4-6.1-4.8-9.3-6.9c-2.6-1.7-5.3-3.5-7.9-5.2c-4.3-2.8-8.7-5.6-13.4-7.7
		c-2.2-0.9-4.4-2-6.8-2.7c-1.6-0.5-3.2-1-4.9-1.4c-3.3-0.8-6.6-1.5-10-2.3c-3-0.7-5.9-1.3-8.9-2c-3.2-0.7-6.4-1.4-9.7-1.9
		c-7-1-14-1.7-21-2.6c-3.2-0.4-6.4-0.9-9.5-1.3c-2.9-0.3-5.9-0.7-8.9-0.9c-3.1-0.1-6.3-0.2-9.4-0.1c-3.2,0.2-6.5,0.5-9.7,0.9
		c-3.5,0.4-7,0.9-10.6,1.3c-2.8,0.4-5.7,0.9-8.5,1.5c-3,0.7-5.9,1.4-8.8,2.4c-2.9,0.9-5.8,1.8-8.6,2.7c-1.6,0.5-3.2,1-4.8,1.6
		c-1.5,0.5-3.1,1-4.6,1.6c-3.5,1.4-6.9,2.9-10.2,4.5c-3,1.5-6,3.1-9,4.6c-2.9,1.5-5.7,2.9-8.5,4.5c-2.6,1.5-5.1,3.2-7.6,4.8
		c-2.9,1.9-5.8,3.8-8.7,5.6c-2.6,1.7-5.2,3.4-7.8,5.2c-2.8,2-5.5,4.1-8.2,6.2c-4.4,3.3-8.8,6.6-13,10.3c-4.2,3.7-7.8,7.9-11.5,12.2
		c-3.7,4.4-7.3,9-10.6,13.7c-0.2,0.3-0.5,0.7-0.7,1c-0.9-1.9-1.8-3.8-2.9-5.5c-1-1.7-2.1-3.4-3.3-5.1c-1.2-1.7-2.6-3.4-3.9-5
		c-1-1.2-2-2.4-3-3.6c-2.1-2.3-4.1-4.7-6.3-6.9c-2.2-2.3-4.5-4.6-7-6.5c-3-2.3-6-4.5-9.1-6.7c-2.7-1.9-5.4-3.9-8-5.8
		c-2.6-1.9-5.1-3.9-7.8-5.7c-2.6-1.8-5.3-3.4-8.2-4.8c-3-1.4-6-2.8-9-4.2c-6.4-2.8-12.8-5.9-19.6-7.6c-6.4-1.6-12.8-3-19.2-4.3
		c-3.1-0.6-6.3-1-9.5-1.5c-3.6-0.5-7.3-1.1-10.9-1.6c-3.2-0.4-6.3-0.8-9.5-1c-3.2-0.2-6.4-0.3-9.6-0.3c-6.6-0.1-13.1,0.5-19.7,1
		c-6.7,0.5-13.5,1.3-20,3c-6.3,1.7-12.7,3.3-18.8,5.7c-6.3,2.5-12.5,5.4-18.5,8.5c-5.8,3-11.5,6.1-17.2,9.3c-2.8,1.6-5.4,3.6-8,5.5
		c-2.5,1.8-4.9,3.8-7.4,5.6c-3,2.2-5.9,4.4-8.8,6.8c-2.5,2.1-5.1,4.2-7.4,6.5c-2.4,2.4-4.7,4.9-6.9,7.5c-2.5,2.8-4.7,5.9-7,8.9
		c-3.9,5.1-7.4,10.4-10.7,16c-1.7,2.9-3.5,5.8-5.1,8.8c-1.6,3.1-3.2,6.2-4.8,9.4c-3.1,6.3-6.1,12.6-8.7,19.1
		c-2.4,5.8-4.6,11.7-6.3,17.8c-0.9,3.3-1.7,6.7-2.5,10.1c-0.6,2.9-1.3,5.8-1.7,8.8c-1.1,7.3-1.9,14.7-1.9,22.2
		c0,3.2,0.1,6.4,0.4,9.7c0.4,4,0.9,8,1.6,12c1.1,6.2,2.5,12.4,4.3,18.5c3.7,12.6,8.1,25,13.2,37.1c1.4,3.3,2.8,6.7,4.4,9.9
		c1.4,2.9,2.9,5.8,4.3,8.8c1.3,2.8,2.4,5.7,3.9,8.5c1.3,2.6,2.6,5.1,3.8,7.7c1.2,3,2.3,6.1,3.5,9.1c1.3,3.4,3,6.7,4.5,10
		c1.4,3.2,2.7,6.3,4.1,9.5c1.3,2.9,2.9,5.7,4.3,8.6c1.4,2.8,2.6,5.6,3.9,8.4c1.4,2.9,2.9,5.6,4.6,8.3c1.6,2.6,3.3,5.2,4.8,7.9
		c1.4,2.4,2.6,4.9,4,7.3c1,1.7,2,3.5,3.1,5.2c0.4,0.5,0.7,1.1,1,1.7c0.2,0.4,0.4,0.8,0.6,1.1c0,0,0,0,0,0c-0.1-0.2-0.1-0.4-0.2-0.7
		c0,0,0,0,0,0c-0.1-1-0.4-2-0.6-3c-0.5-1.8-0.8-3.7-1.3-5.5c-0.6-2.3-1-4.7-1.6-7.1c-0.7-2.6-1.5-5.2-2.5-7.7
		c-1-2.6-2.1-5.2-3.1-7.8c-1.1-2.7-2.2-5.5-3.4-8.2c-2.2-5-4.7-9.7-6.9-14.7c-1.8-4.2-3.5-8.5-5.3-12.7c-1.3-3.2-2.4-6.5-3.4-9.8
		c-0.6-1.7-1.1-3.5-1.8-5.2c-0.7-1.7-1.4-3.3-2.1-5c-1.6-4-2.8-8-4.3-12c-1.1-3-2.3-5.9-3.4-8.8c-1.1-3-2.2-6.1-3.2-9.2
		c-2-6.2-4-12.4-5.8-18.6c-1.8-6.2-3.5-12.4-4.9-18.7c-0.8-3.3-1.5-6.7-2.1-10.1c-0.5-2.7-0.9-5.5-1.3-8.2c-0.3-2.6-0.5-5.2-0.7-7.8
		c-0.2-2.7-0.2-5.5-0.2-8.2c0-5.3,0.4-10.6,1-15.8c0.5-3.3,1.1-6.6,1.8-9.9c0.7-3.5,1.6-6.9,2.5-10.3c1.8-6.5,4.1-12.8,6.6-19
		c1.8-4.1,3.6-8.1,5.6-12.1c2.3-4.6,4.5-9.2,7-13.7c2.5-4.5,5.1-8.8,7.9-13.1c2.5-3.9,5.2-7.6,8-11.3c2.9-3.7,5.9-7.3,9.2-10.6
		c3.4-3.5,7.2-6.6,11-9.7c3.6-2.8,7.2-5.6,10.9-8.3c2.1-1.5,4.2-3,6.3-4.4c2-1.3,4.1-2.4,6.1-3.6c8.4-4.6,16.8-9.1,25.5-12.9
		c2.2-0.9,4.4-1.8,6.7-2.5c2.6-0.8,5.3-1.6,7.9-2.3c2.7-0.7,5.5-1.5,8.3-2.1c2.2-0.5,4.4-0.9,6.6-1.2c3.6-0.4,7.3-0.7,10.9-0.9
		c3.9-0.3,7.8-0.6,11.8-0.7c3.9-0.1,7.8,0,11.6,0.2c3.5,0.2,7,0.6,10.5,1c3.7,0.5,7.4,1.1,11.1,1.6c4.2,0.6,8.3,1.4,12.4,2.3
		c3.9,0.8,7.8,1.7,11.7,2.7c3.8,0.9,7.4,2.2,11,3.7c3.9,1.7,7.8,3.5,11.7,5.3c1.9,0.9,3.8,1.8,5.7,2.8c1.9,1,3.8,2.2,5.5,3.4
		c3.7,2.5,7.2,5.2,10.7,7.8c3.4,2.5,6.9,5,10.4,7.5c1.6,1.3,3.1,2.6,4.6,4c1.8,1.7,3.5,3.5,5.1,5.3c3,3.3,6,6.7,8.7,10.2
		c1.2,1.8,2.4,3.6,3.5,5.4c1.2,2.1,2.2,4.2,3.3,6.4c1,2,1.9,4,2.9,6c0.5,0.9,0.9,2,1.5,2.9c1,1.4,1.9,2.7,3.6,3.5
		c1.2,0.7,2.6,1.1,4,1.1c0.8-0.1,1.5-0.2,2.3-0.3c1.3-0.2,3.1-1.5,3.9-2.4c0.2-0.2,0.3-0.3,0.5-0.5c0.8-0.9,1.5-1.9,2.2-2.9
		c1.1-1.7,2.2-3.4,3.4-5c2.3-3.1,4.5-6.3,6.8-9.4c3.1-4,6.4-7.9,9.9-11.6c2-2.2,4-4.2,6.2-6.2c1.6-1.4,3.3-2.8,4.9-4.1
		c3.1-2.4,6.2-4.8,9.3-7.2c3.8-2.9,7.8-5.6,11.8-8.1c4.4-2.8,8.7-5.6,13-8.4c4.3-2.8,8.9-5,13.4-7.3c4.1-2.1,8.2-4.2,12.4-6.1
		c6.4-2.5,13.1-4.5,19.7-6.5c3.2-1,6.4-1.9,9.8-2.5c3-0.6,6-1,9-1.5c2.5-0.3,5-0.6,7.5-0.9c2.8-0.3,5.6-0.6,8.4-0.6
		c2.8,0,5.5,0,8.3,0.2c2.7,0.2,5.3,0.5,8,0.8c4.3,0.6,8.7,1.2,13,1.7c3.9,0.5,7.8,0.9,11.7,1.4c3,0.4,6,1,9,1.6
		c3.6,0.8,7.1,1.6,10.7,2.4c3.1,0.7,6.1,1.3,9.2,2.1c1.8,0.4,3.6,0.9,5.4,1.4c1.5,0.5,3,1,4.5,1.6c2.2,1,4.4,2.1,6.5,3.4
		c1.1,0.7,2.3,1.4,3.4,2.1c1.6,1,3.2,2.1,4.8,3.1c3.6,2.4,7.2,4.7,10.7,7.2c2,1.6,4,3.2,5.8,5c0.6,0.6,1.3,1.2,1.9,1.8
		c0.6,0.6,1.1,1.3,1.7,1.9c0.7,0.8,1.4,1.7,2.1,2.5c1.4,1.9,2.8,3.9,4.2,5.8c0.7,1,1.3,2,2,3c0.7,1,1.3,2,1.9,3.1
		c0.8,1.4,1.6,2.8,2.4,4.1c0.7,1.2,1.2,2.5,1.9,3.7c1,1.9,1.8,3.8,2.6,5.7c0.6,1.5,1.2,3,1.8,4.6c0.6,1.6,1.1,3.2,1.6,4.9
		c0.5,1.5,0.9,2.9,1.3,4.4c0.4,1.5,0.9,3,1.2,4.5c0.5,2.1,1,4.1,1.5,6.2c0.4,1.7,0.7,3.5,1.1,5.2c0.6,3.1,1.1,6.3,1.7,9.4
		c0.7,5.2,1.3,10.5,1.5,15.8c0.1,3,0.2,6,0.2,9.1c0,3.1,0,6.1-0.1,9.2c-0.1,3.1-0.2,6.1-0.4,9.2c-0.2,3-0.4,6-0.7,9
		c-0.4,5-1.1,10-1.7,15c-0.8,4.8-1.5,9.6-2.5,14.3c-1,4.7-1.9,9.3-3.2,13.9c-3.6,13.1-7.7,26.1-11.9,39.1
		c-2.1,6.3-4.2,12.5-6.5,18.7c-2.1,5.7-4.4,11.4-6.7,17c-3,7-6.2,13.9-9.5,20.8c-2.8,5.9-5.7,11.8-8.5,17.7
		c-2.8,5.9-5.8,11.6-8.8,17.4c-3.3,6.1-6.6,12.1-10,18.1c-3.2,5.6-6.6,11.2-10.2,16.6c-3.8,5.6-7.7,11.1-11.7,16.6
		c-3.9,5.3-7.9,10.5-11.9,15.7c-4.1,5.3-8.2,10.6-12.2,15.9c-3.9,5.2-7.7,10.3-11.6,15.5c-4,5-8.1,10-12.3,15
		c-4,4.8-8.3,9.4-12.5,13.9c-4.5,4.9-9.1,9.9-13.8,14.7c-4.6,4.7-9.4,9.3-14.2,13.9c-2.4,2.2-4.8,4.5-7.2,6.6
		c-2.6,2.3-5.3,4.5-7.9,6.7c-5,4.2-10,8.4-15,12.5c-2.3,1.7-4.6,3.4-7,5c-2.5,1.7-5,3.3-7.5,4.9c-5.2,3.3-10.5,6.7-15.7,10.1
		c-5.3,3.5-10.5,6.9-16.1,9.8c-4.9,2.6-10,4.9-15.1,7.2c-2.1,0.8-4.1,1.6-6.3,2.3c-2.2,0.7-4.5,1.4-6.7,2.2
		c-2.4,0.8-4.9,1.7-7.4,2.4c-1.9,0.5-3.8,0.9-5.7,1.2c-2.7,0.3-5.4,0.7-8.1,1.1c-2,0.3-3.9,0.7-5.9,0.9c-1.5,0.2-3.1,0.3-4.6,0.2
		c-0.2,0-0.3-0.1-0.5-0.1c-0.2-0.1-0.4-0.2-0.6-0.4c-0.1-0.3-0.2-0.7-0.3-1.1c-0.1-2.1,0-4.2,0.2-6.3c0.3-1.9,0.6-3.9,1.2-5.7
		c0.7-2.3,1.5-4.5,2.4-6.7c2.6-5.8,6.3-11,9.8-16.2c3.7-5.5,7.1-11.2,11.1-16.5c1.7-2.1,3.6-4.2,5.5-6.2c2-2.1,4-4.1,5.9-6.2
		c3.7-4.1,7.2-8.3,10.9-12.4c3.7-4.1,7.6-7.9,11.8-11.5c3.6-3.2,7.1-6.6,10.9-9.6c3.2-2.4,6.6-4.7,9.9-7c5.1-3.3,10-6.9,15.3-10
		c5.2-3.1,10.3-6.2,15.4-9.4c5.4-3.4,10.6-7,16-10.5c2.4-1.6,4.8-3.3,7.1-5.1c2.8-2.1,5.6-4.2,8.2-6.5c2.5-2.2,5-4.4,7.2-6.8
		c1.4-1.5,2.8-3.1,4-4.7c1-1.3,2-2.5,2.8-3.9c1-1.8,2-3.8,2.4-5.8c0.2-0.7,0.3-1.3,0.4-2.1c0.2-0.9,0.3-1.8,0.2-2.7
		c-0.1-0.6-0.2-1.2-0.2-1.7c-0.3-1.9-1.1-3.8-2.2-5.5c-0.8-1.3-1.8-2.2-3.1-3.1c-0.5-0.4-1-0.7-1.5-0.9c-0.5-0.2-1.1-0.5-1.6-0.7
		c-1.8-0.5-3.8-0.7-5.7-0.5c-1.2,0.1-2.5,0.3-3.7,0.5c-1.5,0.2-2.9,0.5-4.4,0.8c-2.8,0.6-5.5,1.2-8.2,2.1c-3,1-5.9,2.1-8.9,3.2
		c-6.1,2.2-12.3,4-18.3,6.3c-3.4,1.3-6.8,2.7-9.9,4.4c-2.7,1.5-5.3,3-8,4.6c-2.7,1.6-5.3,3.1-8,4.6c-2.8,1.5-5.7,2.9-8.6,4.3
		c-5.5,2.7-10.6,6.2-15.9,9.3c-2.5,1.5-5.2,2.9-7.8,4.2c-2.6,1.3-5.1,2.6-7.8,3.8c-0.3,0.1-0.6,0.2-0.9,0.4
		c-0.9,0.3-1.7,0.6-2.6,0.8c0.3-1,0.6-2.1,1-3.1c0.7-1.6,1.6-3,2.7-4.5c1.4-1.7,2.9-3.3,4.4-5c1.8-2,3.6-3.9,5.4-5.9
		c2-2.1,3.9-4.1,6-6.1c2-1.9,4.1-3.8,6.2-5.7c2.3-2.1,4.7-4.1,7.1-6.2c2.2-1.9,4.3-3.8,6.5-5.7c4.7-4.1,9.7-7.8,14.4-11.8
		c4.9-4.3,9.7-8.8,14.4-13.4c4.5-4.3,8.9-8.7,13.3-13.1c4.5-4.4,8.9-8.8,13.4-13.2c4.7-4.6,9.3-9.2,14.1-13.7
		c4.6-4.4,9.2-8.9,13.7-13.5c4.4-4.6,8.8-9.4,13.1-14c4.1-4.4,8.2-8.7,12.5-12.9c2.4-2.3,4.7-4.6,7-7c1.3-1.4,2.5-2.9,3.7-4.5
		c0.9-1.2,1.9-2.5,2.7-3.8c0.5-0.8,1-1.6,1.4-2.4c0.4-0.8,0.8-1.5,1.1-2.3c0.6-1.1,1-2.4,1.5-3.5c0.3-0.7,0.5-1.3,0.8-2
		c0.5-1.5,1-3.1,1.4-4.6c0.2-0.8,0.4-1.5,0.5-2.3c0.3-1.7,0.6-3.3,0.7-5c0.2-4.2-0.7-8.5-3.2-12c-1.3-1.9-2.9-3.4-4.8-4.7
		c-0.7-0.5-1.3-0.8-2-1.2c-0.9-0.4-2.2-1-3.3-1.3c-2.2-0.5-4.5-0.8-6.7-0.6c-1.2,0.1-2.4,0.2-3.7,0.4c-1.4,0.2-2.8,0.4-4.2,0.8
		c-2.1,0.6-4.2,1.4-6.2,2.3c-1.3,0.6-2.6,1.2-3.9,2c-2.9,1.7-5.7,3.5-8.5,5.4c-5.4,3.5-10.9,6.9-16.2,10.5
		c-5.4,3.7-10.6,7.5-16,11.2c-5.4,3.7-10.9,7.4-16.2,11.3c-2.7,2-5.4,4-8.1,6c-2.6,1.9-5.2,3.7-7.8,5.5c-3.1,2.1-6.2,4.3-9.1,6.6
		c-2.5,1.9-4.9,4-7.2,6c-5,4.3-9.9,8.7-15,12.8c-4.7,3.8-9.4,7.8-14.2,11.5c-2.1,1.5-4.2,3-6.3,4.5c-2.3,1.6-4.5,3.2-6.7,4.9
		c-4.5,3.4-8.7,7-13.1,10.5c-3.4,2.6-6.9,5.2-10.8,7.1c-1.4,0.5-2.8,0.8-4.2,1.1c-0.5,0.1-1.1,0.1-1.6,0.1c0.2-0.3,0.5-0.7,0.7-1
		c1.5-1.9,3-3.7,4.5-5.6c1.7-2.1,3.3-4.3,5-6.4c1.8-2.2,3.6-4.4,5.7-6.4c2-2,4.1-3.9,6.2-5.8c4.1-3.7,8.4-7.3,12.5-11.1
		c4.2-3.8,8.1-7.8,12.2-11.6c2.2-2,4.5-4,6.8-6c2.3-2,4.5-4.2,6.7-6.3c2.4-2.3,4.7-4.6,7.2-6.8c2.4-2.2,4.9-4.4,7.3-6.7
		c4.6-4.5,9.1-9.2,13.5-13.8c4.7-4.9,9.4-9.8,14.1-14.8c4.4-4.8,8.6-9.8,13-14.5c2.3-2.5,4.6-5,7.1-7.3c2.4-2.3,4.8-4.6,7.2-6.9
		c4.6-4.4,9.3-8.7,13.7-13.3c1.5-1.6,2.8-3.3,4.1-5c1.1-1.4,2-2.9,2.8-4.5c1.1-2.3,2.2-4.7,2.8-7.2c0.4-1.7,0.7-3.5,0.9-5.2
		c0.1-1,0.2-2,0.1-3.1c-0.1-1.3-0.2-2.6-0.4-4c-0.1-0.9-0.3-1.8-0.5-2.7c-1.1-3.8-3-7.5-6.1-10.1c-0.7-0.6-1.4-1.1-2.2-1.7
		c-0.4-0.3-0.8-0.5-1.2-0.7c-1.1-0.5-2.1-1-3.2-1.3c-1.2-0.3-2.3-0.5-3.5-0.6c-0.8-0.1-1.5-0.1-2.3-0.1c-2.4,0.2-4.8,0.5-7.1,0.9
		c-1.5,0.2-3,0.5-4.4,0.9c-1.4,0.4-2.9,0.8-4.3,1.3c-2.1,0.8-4.3,1.6-6.3,2.6c-1.5,0.7-3,1.5-4.5,2.3c-2.8,1.5-5.4,3.2-8.1,4.9
		c-2.8,1.8-5.6,3.5-8.2,5.5c-3.1,2.3-6.1,4.6-8.9,7.2c-4.8,4.4-9,9.1-13.4,13.9c-4.6,4.9-9.2,9.7-14,14.3
		c-4.8,4.7-9.7,9.4-14.7,13.9c-4.8,4.3-9.7,8.6-14.6,12.8c-4.9,4.2-9.8,8.5-14.5,12.9c-4.8,4.5-9.5,9-14.2,13.5
		c-4.7,4.5-9.2,9.2-13.8,13.9c-1.3,1.3-2.5,2.6-3.8,4c2.5-3.7,4.8-7.5,6.9-11.4c1.4-2.7,2.7-5.5,4.1-8.2c1.4-2.8,2.9-5.5,4.4-8.2
		c1.5-2.6,3-5.2,4.5-7.8c1.6-2.6,3.3-5.1,4.9-7.7c1.7-2.8,3.5-5.5,5.1-8.3c1.6-2.7,3.1-5.5,4.6-8.3c3-5.5,6.1-10.8,9.4-16.1
		c1.6-2.6,3.2-5.3,4.7-8c1.6-2.9,3.1-5.9,4.7-8.8c1.5-2.8,2.9-5.6,4.2-8.4c1.6-3.4,3-6.9,4.2-10.5c1-3,1.9-6.1,2.5-9.2
		c0.2-0.7,0.3-1.4,0.4-2.2c0.2-1.3,0.4-2.7,0.5-4c0-0.9,0-1.8-0.1-2.7c-0.1-1.1-0.3-2.6-0.6-3.7c-0.5-1.8-1.2-3.7-2.2-5.3
		c-0.5-0.7-1.1-1.4-1.6-2.1c-0.1-0.1-0.3-0.3-0.4-0.4c-1-0.8-2-1.6-3.1-2.2c-1-0.4-2-0.8-3-1.2c-0.4-0.1-0.8-0.2-1.2-0.3
		c-1.1-0.2-2.3-0.4-3.4-0.4c-1.8-0.1-3.5,0.1-5.3,0.4c-2.2,0.3-4.4,0.9-6.5,1.7c-1.8,0.7-3.5,1.5-5.2,2.5c-0.7,0.4-1.3,0.8-2,1.2
		c-1.2,0.8-2.3,1.6-3.4,2.4c-3.2,2.3-6.3,4.7-9.3,7.2c-2.5,2-4.8,4.2-7.1,6.4c-4.6,4.4-9,8.9-13.4,13.5c-4.6,4.8-9.1,9.7-13.5,14.7
		c-4.3,4.9-8.8,9.8-12.9,14.9c-4.4,5.5-8.5,11.3-12.7,17c-4,5.5-7.9,11-11.9,16.5c-3.8,5.3-7.6,10.5-11.2,15.9
		c-3.8,5.6-7.3,11.3-10.9,17c-3.7,5.8-7.3,11.7-11.1,17.4c-1.9,2.8-3.7,5.7-5.7,8.5c-1,1.4-1.9,2.8-2.9,4.2c-0.7,1-1.5,2-2.2,3
		c-0.8,0.9-1.6,1.9-2.3,2.8c-0.8,1-1.7,1.9-2.6,2.8c-1.7,1.8-3.5,3.6-5.3,5.3c-3.6,3.4-7.3,6.7-11.2,9.9c-2.5,1.9-5,3.7-7.5,5.5
		c-2.6,1.8-5.2,3.6-7.7,5.4c-1.9,1.4-3.9,2.8-5.9,4.1c0.3-0.6,0.5-1.2,0.8-1.8c1.5-3.6,2.9-7.1,4.2-10.8c1.1-3,2-6,2.9-9.1
		c0.9-3,1.6-6,2-9.1c0.3-2.4,0.6-4.9,0.8-7.3c0.1-1.5,0.1-3.1,0.2-4.6c0-0.9-0.1-1.8-0.1-2.7c0-0.6,0-1.2-0.1-1.8
		c-0.1-1.6-0.2-3.3-0.4-4.9c-0.3-2.4-0.6-4.8-1-7.1c-0.3-1.6-0.6-3.3-1-4.9c-1.4-6.5-3.6-12.8-6.2-18.9c-1.5-3.6-3.2-7.2-4.9-10.7
		c-1.5-3-3.2-5.8-4.8-8.7c-1.7-2.9-3.6-5.6-5.6-8.3c-1.3-1.8-2.8-3.6-4.2-5.4c-0.4-0.5-0.9-1-1.3-1.5c-0.6-0.6-1.1-1.3-1.7-1.9
		c-5.1-5.2-10.3-10.4-16.5-14.2c-1.3-0.8-2.7-1.6-4.1-2.2c-1.3-0.6-2.6-1.2-3.9-1.7c-0.7-0.3-1.5-0.6-2.3-0.8
		c-4.5-1.3-9.1-2.1-13.8-1.6c-2.2,0.2-4.5,0.5-6.7,0.9c-1.4,0.2-2.8,0.6-4.2,1c-2.1,0.7-4.2,1.6-6.3,2.5c-0.7,0.3-1.3,0.6-2,0.9
		c-0.7,0.3-1.5,0.6-2.1,1.1c-1.4,1-3,2-3.8,3.6c-0.4,0.9-0.9,1.7-1.1,2.7c-0.4,2-0.3,2.5,0,4.5c0,0.3,0.1,0.6,0.2,1
		c0.3,1.3,0.6,2.7,1,4c0.9,2.8,1.9,5.5,2.9,8.2c1,2.9,1.9,5.7,2.8,8.6c1,3.2,2.3,6.3,3.5,9.5c1.2,3,2.5,6,3.4,9.1
		c0.9,3.1,1.5,6.2,2,9.4c0.6,5.2,1.1,10.4,1.6,15.7c1,13.4,1.7,26.8,1.9,40.2c0.1,3.4,0,6.9,0,10.3c0,1.6-0.1,3.3-0.2,4.9
		c0,1.3-0.1,2.6-0.1,4c-0.2,3.5-0.5,7.1-0.7,10.6c-0.3,3.3-0.6,6.5-1,9.8c-0.4,2.7-0.8,5.4-1.3,8.1c-0.2,1.3-0.5,2.6-0.7,3.8
		c-0.2,1.2-0.5,2.4-0.3,3.6c0,0.1,0.2,0.1,0.3,0.1c0.5-0.5,0.8-1.3,1.1-2c0.3-0.8,0.7-1.5,0.9-2.3c0,0,0,0,0,0
		c-0.1,0.3-0.2,0.6-0.3,0.9c0,0,0,0,0,0c-0.5,1-1,2.1-1.6,3c0,0,0,0,0,0c0-0.1,0-0.2,0-0.2c0.3-1.8,1-3.6,1.5-5.4
		c0.9-3.1,1.9-6.3,2.7-9.5c0.8-3.5,1.6-7,2.3-10.6c0.6-3.3,1-6.6,1.4-9.9c0.3-1.9,0.4-3.9,0.6-5.8c0.1-1.2,0.3-2.5,0.4-3.7
		c0.6-7.2,1-14.4,1.4-21.7c0.3-6.4,0.7-12.8,0.9-19.2c0.2-6.6,0.5-13.2,0.5-19.7c0-3.1,0-6.2-0.3-9.3c-0.1-1.3-0.3-2.5-0.4-3.8
		c-0.1-0.8-0.2-1.6-0.4-2.5c-0.4-1.7-0.8-3.4-1.2-5.1c-0.9-3.1-1.9-6.2-2.9-9.3c-1-3-1.8-6.1-2.5-9.2c-0.7-3-1.5-6-2.3-8.9
		c-0.5-1.8-1-3.5-1.4-5.3c1.3-0.6,2.7-1.1,4.1-1.5c1.6-0.4,3.1-0.7,4.7-1c2.2-0.2,4.4-0.4,6.7-0.2c1.2,0.2,2.3,0.5,3.5,0.8
		c0.9,0.3,1.8,0.6,2.7,0.9c1.4,0.6,2.7,1.3,4,2.1c0.8,0.5,1.6,0.9,2.4,1.5c0.5,0.4,1.1,0.8,1.6,1.2c0.6,0.5,1.1,0.9,1.7,1.4
		c0.9,0.7,1.7,1.5,2.5,2.3c1.3,1.2,2.5,2.4,3.8,3.7c1.6,1.7,3.2,3.4,4.7,5.1c0.8,0.9,1.6,1.9,2.4,3c2.8,3.9,5.5,7.9,7.7,12.1
		c1.1,2.1,2.2,4.1,3.2,6.2c1,1.9,1.9,3.9,2.8,5.9c1.6,3.8,3,7.6,4.2,11.5c0.7,2.3,1.3,4.6,1.8,6.9c0.5,2.2,0.9,4.4,1.2,6.6
		c0.3,2.8,0.6,5.6,0.7,8.4c0.1,1.7,0,3.3,0,4.9c0,1.3-0.2,2.7-0.3,4c-0.3,2-0.6,3.9-1.1,5.9c-0.5,2.3-1.1,4.6-1.9,6.8
		c-1.6,4.9-3.3,9.7-5.3,14.4c-1.9,4.4-3.7,8.8-5.3,13.2c-0.4,1.2-0.8,2.4-1.1,3.6c-0.1,0.5-0.3,1.1-0.3,1.6c-0.1,1-0.4,1.9-0.4,2.9
		c0,0.9,0,1.7,0.3,2.6c0.2,1,0.6,1.9,1.2,2.7c0.7,1.2,1.6,2.1,2.8,2.8c1.1,0.6,3.3,1.4,4.6,1.3c1-0.1,2.1-0.2,3.1-0.4
		c1.7-0.5,3.4-1.3,5.1-2c2.4-1,4.9-2.1,7.2-3.3c2-1,3.9-2.3,5.8-3.6c4.1-2.8,8.1-5.7,12.2-8.5c5.9-4.1,11.7-8.4,17-13.2
		c4.8-4.4,9.6-8.9,13.7-13.9c2.5-3,4.9-6.1,7.1-9.3c1.8-2.7,3.6-5.3,5.4-8c3.7-5.6,7.4-11.3,11-17c3.7-5.9,7.4-12,11.3-17.8
		c3.8-5.6,7.7-11.1,11.6-16.6c7.4-10.3,14.7-20.6,22.3-30.7c1.8-2.2,3.6-4.5,5.4-6.6c2.1-2.4,4.1-4.7,6.2-7.1
		c4.4-5,8.8-10,13.4-14.8c4.4-4.6,8.8-9.1,13.3-13.6c2.3-2.3,4.6-4.5,7-6.7c2-1.8,4.1-3.5,6.1-5.2c3.3-2.5,6.7-5,10.5-6.9
		c1.1-0.4,2.3-0.7,3.5-1c0.2,0,0.5-0.1,0.7-0.1c0.7,0,1.4-0.1,2.1,0c0.1,0,0.1,0,0.2,0.1c0,0,0,0,0,0c0.2,0.5,0.3,1,0.4,1.6
		c0.1,1.1,0,2.2-0.1,3.4c-0.6,3.5-1.3,7-2.3,10.4c-0.9,3.4-2.2,6.6-3.5,9.8c-0.8,1.9-1.7,3.7-2.5,5.6c-1.3,2.8-2.7,5.7-4.1,8.5
		c-1.4,2.8-3,5.6-4.6,8.3c-3.2,5.5-6.4,11.1-9.4,16.7c-2.9,5.5-6,11-9.5,16.3c-1.7,2.6-3.5,5.2-5.2,7.9c-1.6,2.6-3.2,5.2-4.7,7.9
		c-1.5,2.6-3,5.3-4.4,8c-1.4,2.6-2.6,5.2-4,7.8c-2.9,5.3-6.2,10.3-9.7,15.2c-1.8,2.5-3.6,5-5.2,7.7c-1.6,2.6-3,5.3-4.4,8
		c-1.3,2.6-2.7,5.2-4.1,7.9c-0.9,1.8-1.8,3.7-2.5,5.6c-0.2,0.6-0.5,1.2-0.7,1.8c-0.1,0.4-0.3,0.8-0.4,1.2c-0.3,1-0.3,2.1,0,3.1
		c0,0.1,0,0.2,0,0.3c0.3,1,0.8,1.8,1.5,2.6c0.7,0.7,1.6,1.2,2.6,1.5c0.7,0.1,1.3,0.2,2,0.3c0.5-0.1,1-0.1,1.6-0.2
		c0.6,0,1.1-0.2,1.6-0.4c1.2-0.4,2.5-1.1,3.5-1.9c1.2-0.9,2.4-1.8,3.5-2.8c0.5-0.5,1-1,1.5-1.5c1.9-1.9,3.8-3.9,5.7-5.8
		c3.8-3.7,7.8-7,11.7-10.6c5-4.6,9.9-9.4,14.8-14.2c4.6-4.4,9.5-8.6,14.2-12.9c5-4.6,9.9-9.2,15-13.6c4.7-4.1,9.5-7.9,14.3-11.9
		c10.3-8.7,20.2-17.9,29.7-27.3c4.6-4.5,9-9.3,13.4-14c2.4-2.5,4.8-4.9,7.3-7.3c1.9-1.8,3.9-3.5,5.9-5.1c3.9-2.8,7.9-5.4,12-7.9
		c2-1.2,3.9-2.4,6-3.6c1.6-0.9,3.3-1.7,5-2.5c2-0.7,4-1.3,6-1.8c1.7-0.5,3.5-0.8,5.2-1c1.1-0.1,2.2-0.2,3.3-0.2
		c0.2,0,0.4,0.1,0.6,0.2c0.1,0.1,0.2,0.1,0.3,0.2c0.2,0.2,0.4,0.4,0.6,0.6c0.3,0.4,0.5,0.8,0.7,1.3c0.3,1,0.6,2,0.8,3
		c0.1,1.2,0.1,2.4,0,3.6c-0.3,1.9-0.9,3.7-1.5,5.5c-0.5,1.2-1.1,2.3-1.8,3.4c-0.3,0.5-0.6,0.9-1,1.4c-1.9,2.3-3.9,4.5-6,6.6
		c-4.5,4.6-9,9.1-13.5,13.6c-4.8,4.7-9.4,9.5-13.9,14.6c-2.2,2.5-4.3,5-6.5,7.4c-2.2,2.4-4.5,4.8-6.7,7.2
		c-4.6,4.8-9.1,9.7-13.7,14.5c-4.5,4.8-9.1,9.6-13.8,14.2c-2.3,2.3-4.6,4.5-6.9,6.9c-2.2,2.3-4.4,4.6-6.6,6.8
		c-4.4,4.3-8.9,8.4-13.2,12.8c-2.3,2.3-4.5,4.7-6.8,6.9c-2.3,2.2-4.7,4.4-7.1,6.6c-4.6,4.4-9.2,8.7-13.3,13.5
		c-4.2,5-7.8,10.3-11.7,15.5c-0.9,1.2-1.8,2.4-2.7,3.6c-0.4,0.5-0.7,1.1-1,1.7c-0.6,1.3-1.2,2.7-1.2,4.1c0,1.9,0.5,3.9,1.9,5.3
		c0.7,0.7,1.4,1.2,2.2,1.7c1,0.6,2.2,0.8,3.3,1c2.1,0.4,4.2,0.3,6.2,0.1c1.1-0.1,2.3-0.2,3.4-0.5c1.7-0.4,3.4-1.1,5.1-1.8
		c1.2-0.6,2.5-1.2,3.7-1.9c2.8-1.7,5.5-3.4,8.1-5.3c5.2-3.6,10.2-7.5,15.6-10.9c2.7-1.7,5.4-3.4,8.1-5.1c2.7-1.8,5.3-3.6,7.8-5.6
		c5.6-4.1,11.2-8.3,16.6-12.6c4.7-3.8,9.3-7.7,14-11.4c3.6-2.7,7.3-5.2,11.1-7.6c3.8-2.5,7.6-5.1,11.3-7.8c2.7-1.9,5.4-3.9,8.1-5.7
		c2.8-2,5.7-3.9,8.6-5.8c5.3-3.5,10.6-7.2,15.8-10.8c2.8-1.9,5.6-3.9,8.4-5.7c2.7-1.7,5.4-3.4,8.1-5c2.6-1.7,5.2-3.4,7.9-5
		c1.5-0.9,2.9-1.9,4.4-2.7c1.1-0.6,2.3-1.2,3.4-1.7c1-0.4,2-0.7,3-1c0.9-0.2,1.9-0.4,2.8-0.6c1-0.1,2.1-0.2,3.1-0.1
		c0.3,0.1,0.5,0.1,0.8,0.2c0.3,0.2,0.6,0.3,0.9,0.5c0.2,0.2,0.5,0.4,0.7,0.7c0.1,0.2,0.3,0.5,0.4,0.7c0.1,0.5,0.3,1,0.4,1.4
		c0.1,1.1,0.1,2.3-0.1,3.4c0,0.2,0,0.4-0.1,0.6c-0.3,1.6-0.6,3.2-1,4.7c-0.5,1.6-1,3.2-1.6,4.8c-0.5,1.2-1,2.4-1.7,3.5
		c-0.5,0.8-0.9,1.7-1.5,2.4c-0.4,0.6-0.8,1.2-1.3,1.8c-1.1,1.3-2.2,2.7-3.4,3.9c-1.6,1.6-3.2,3.3-4.8,4.9
		c-4.2,4.3-8.2,8.8-12.3,13.1c-4.4,4.7-8.7,9.4-13.1,14.1c-4.4,4.7-9,9.1-13.6,13.5c-4.7,4.6-9.2,9.3-13.9,13.9
		c-8.8,8.9-17.3,18-26.1,26.9c-4.6,4.6-9.3,9.3-14.1,13.7c-2.3,2.1-4.8,4.1-7.2,6.1c-2.4,1.9-4.7,3.9-7,5.9
		c-2.2,1.9-4.3,3.9-6.5,5.8c-2.4,2-4.8,4.1-7.1,6.2c-4.7,4.2-9.2,8.4-13.6,12.9c-2,2-3.9,4.1-5.8,6.2c-2.2,2.4-4.4,4.9-6,7.7
		c-0.9,1.5-1.6,3.2-2.2,4.9c-0.5,1.3-0.9,2.6-1.1,4c-0.5,2.5-1.1,5.7,0.3,8c0.5,0.8,1,1.5,1.8,2.2c0.8,0.7,1.5,1.1,2.4,1.6
		c2.2,1.1,4.6,1.1,7,1c2.5-0.1,4.9-1,7.2-1.9c1.8-0.6,3.5-1.4,5.2-2.2c2.8-1.2,5.5-2.5,8.2-3.8c5.5-2.7,10.6-6.1,16-8.8
		c2.8-1.4,5.7-2.7,8.6-4c2.9-1.4,5.8-2.8,8.6-4.3c2.6-1.4,5.2-2.9,7.8-4.3c2.4-1.3,4.8-2.5,7.3-3.6c3.6-1.4,7.3-2.7,11-3.8
		c4-1.3,7.9-2.6,11.9-4c3.9-1.4,7.8-2.8,11.8-3.7c3.1-0.7,6.2-1.5,9.4-2c-0.1,0.7-0.3,1.4-0.5,2.1c-0.8,1.5-1.7,2.8-2.6,4.2
		c-2.4,3-5.1,5.8-7.9,8.5c-2.6,2.5-5.4,4.7-8.2,6.9c-3.1,2.3-6.3,4.4-9.5,6.6c-3.5,2.4-7,4.8-10.5,7.1c-5.1,3.4-10.4,6.6-15.7,9.7
		c-2.4,1.4-4.8,2.9-7.2,4.4c-2.6,1.7-5.2,3.5-7.9,5.2c-2.6,1.6-5.2,3.2-7.7,4.9c-2.8,1.8-5.5,3.8-8.1,5.8c-2.2,1.8-4.4,3.7-6.5,5.5
		c-2.1,1.9-4.4,3.7-6.4,5.6c-2.3,2.1-4.6,4.2-6.7,6.4c-2.1,2.2-4.1,4.5-6.1,6.8c-2,2.3-4,4.6-6.1,6.9c-2.2,2.4-4.6,4.8-6.9,7.1
		c-2.6,2.6-4.9,5.3-7.1,8.3c-2,2.7-3.9,5.5-5.7,8.3c-1.6,2.5-3.3,5.1-5,7.6c-1.8,2.6-3.5,5.2-5.3,7.9c-1.6,2.5-3.2,5.1-4.4,7.8
		c-1.5,3.1-2.7,6.4-3.9,9.6c-0.9,2.5-1.5,5-2,7.6c-0.4,1.9-0.7,3.8-0.9,5.7c-0.2,1.3-0.4,2.5-0.4,3.8c-0.1,4.1,1.2,8.6,4.2,11.6
		c0.8,0.8,1.7,1.5,2.6,2.2c0.4,0.3,0.8,0.6,1.2,0.8c1.3,0.7,2.6,1.4,4,1.7c1.8,0.4,3.6,0.6,5.5,0.6c1.4,0,2.9-0.1,4.2-0.2
		c2.8-0.3,5.7-0.7,8.5-1.1c4.5-0.6,9.1-0.9,13.6-2.1c4.4-1.2,8.7-2.9,13.1-4.2c4.8-1.5,9.4-3.4,14-5.5c4.2-1.9,8.4-3.9,12.5-6
		c5.6-2.9,10.8-6.4,16.1-9.9c5.6-3.6,11.2-7.2,16.8-10.8c2.8-1.8,5.5-3.5,8.2-5.4c3.4-2.5,6.7-5,10-7.7c2.6-2.1,5.1-4.3,7.7-6.4
		c2.4-2.1,4.9-4.1,7.3-6.1c2.5-2.1,4.9-4.2,7.3-6.3c2.6-2.4,5.1-4.7,7.7-7.2c4.8-4.6,9.7-9.3,14.3-14.1c4.5-4.8,9-9.6,13.5-14.5
		c4.5-4.9,9-9.9,13.3-15c4.7-5.6,9.3-11.3,13.7-17c4.1-5.3,8-10.8,12-16.1c8.1-10.6,16.4-21,24.1-31.8c3.9-5.4,7.9-10.8,11.4-16.4
		c3.7-5.8,7.2-11.7,10.6-17.6c3.3-5.9,6.5-11.8,9.7-17.8c3-5.6,5.8-11.3,8.5-17c6.1-12.7,12.3-25.2,17.7-38.2
		c2.5-6.1,5-12.2,7.3-18.4c2.2-6.2,4.4-12.4,6.5-18.7c2.1-6.4,4.1-12.9,6.1-19.3c1-3.4,2.1-6.7,3.1-10.1c1-3.2,1.9-6.4,2.7-9.7
		c0.8-3.1,1.5-6.1,2.2-9.2c0.8-3.6,1.5-7.2,2.2-10.9c0.7-3.5,1.2-7,1.7-10.6c0.5-3.4,0.9-6.8,1.3-10.3c0.4-3.7,0.7-7.3,1-11
		c0.3-3.2,0.4-6.5,0.6-9.7c0.1-1.8,0.1-3.5,0.2-5.3c0-1.2,0.1-2.4,0.1-3.7C1095,208.9,1095.1,205.4,1094.9,201.9z M906.1,466.3
		c0,0,0.1,0,0.1,0c0,0,0,0,0,0C906.1,466.4,906.1,466.4,906.1,466.3z"/>
</g>
<g id="Fair" class="st1">
	<g class="st3">
		<path class="st0" d="M1235.9,436.6c-0.1-1.1-0.3-2.2-0.5-3.2c-0.2-1.4-0.3-2.7-0.5-4.1c-0.2-1.6-0.6-3.2-0.9-4.8
			c-0.2-0.8-0.3-1.6-0.5-2.5c-0.3-1.1-0.7-2.1-1.2-3.2c-0.5-1.1-1-1.6-1.8-2.6c-0.8-1-2-1.8-3-2.5c-0.3-0.2-0.7-0.5-1.1-0.7
			c-3.2-1.7-6.8-2.6-10.3-3.5c-1.2-0.3-2.4-0.8-3.6-1.1c-1.6-0.4-3.3-0.6-5-0.7c-3.2-0.3-6.4-0.5-9.6-0.7c-1.9-0.1-3.7-0.1-5.6-0.1
			c-0.4,0-0.9,0-1.3,0c-1.1,0-2.3,0-3.4,0.1c-1.6,0.1-3.3,0.3-4.9,0.4c-1.7,0.1-3.4,0.1-5.1,0.3c-3.8,0.4-7.5,1.1-11.2,1.7
			c-3.2,0.5-6.3,1.2-9.4,1.7c-3.3,0.6-6.5,1.1-9.7,1.9c-3.4,0.9-6.8,1.9-10.2,2.9c-3.2,0.9-6.4,1.9-9.5,3.1
			c-3.3,1.3-6.5,2.5-9.8,3.5c-3.2,1-6.4,2-9.6,3.1c-3.2,1.2-6.4,2.3-9.6,3.3c-3.4,1.1-6.8,2.1-10.2,3.2c-6.4,2.1-12.8,4.1-19.2,6.3
			c-3.3,1.1-6.6,2.3-9.8,3.6c-3.4,1.3-6.7,2.6-10.2,3.8c-6.5,2.3-13.1,4.3-19.5,6.8c-3.1,1.2-6.2,2.5-9.4,3.6
			c-3.3,1.2-6.6,2.3-9.8,3.6c-6.2,2.4-12.4,4.8-18.5,7.4c-6.9,2.9-13.7,5.8-20.5,8.8c-4.8,2-9.6,3.9-14.4,5.9c-2.4,1-4.7,2-7.1,3.1
			c-1.9,0.9-3.9,1.9-5.8,2.8c-1.5,0.5-3,0.9-4.5,1.3c-0.2,0-0.5,0-0.7,0c-0.3-0.1-0.5-0.1-0.8-0.2c-1.1-0.5-2.2-1-3.3-1.7
			c-1.3-0.8-2.5-1.6-3.8-2.5c-3.1-2-6.1-4-9.2-6c-2.7-1.7-5.4-3.4-8.2-4.8c-3.7-1.9-7.6-3.3-11.4-4.8c-4.3-1.7-8.5-3.5-12.8-5.3
			c1.2,0.1,2.3,0.2,3.5,0.3c3.4,0.2,6.8,0.2,10.3,0.1c4-0.2,8.1-0.5,12.1-1.2c3.8-0.6,7.6-1.3,11.3-2.1c6.5-1.4,12.9-3.2,19.1-5.4
			c3.9-1.4,7.8-2.8,11.5-4.6c3-1.4,5.9-2.8,8.5-4.7c2.1-1.5,4.1-3.1,6.1-4.8c1.3-1.1,2.5-2.4,3.7-3.6c1.2-1.2,2.3-2.5,3.3-3.9
			c1.4-1.9,3-3.8,4.2-5.8c1.9-3,3.4-6.2,5-9.5c0.7-1.4,1.2-2.8,1.8-4.3c0.4-1,0.8-2,1.1-3c1.3-4.5,1.8-9.3,0.8-13.9
			c-0.3-1.5-0.8-2.9-1.5-4.3c-0.6-1.3-1.6-2.8-2.6-3.8c-1.3-1.2-2.8-2.4-4.4-3.1c-2.1-0.8-4.1-1.7-6.3-2.2c-3.1-0.7-6.3-1.2-9.5-2
			c-6.9-1.6-13.9-2.9-20.8-4.6c-6.9-1.7-13.8-3.3-20.7-4.9c-3.6-0.9-7.2-1.7-10.8-2.6c-3.4-0.8-6.9-1.6-10.3-2.4
			c-3.7-0.9-7.3-1.9-10.9-3c-3.2-0.9-6.4-2-9.5-3c-7.1-2.2-14.3-4-21.4-6.1c-6.7-2-13.4-4.4-20-6.6c-3.6-1.2-7.2-2.5-10.8-3.8
			c-3.4-1.2-6.7-2.5-10.2-3.5c-3.5-1.1-7-2.1-10.5-3c-3.2-0.9-6.5-1.6-9.7-2.4c-7.1-1.8-14.1-3.8-21-5.9c-7.1-2.1-14.2-4.4-21.2-6.7
			c-3.4-1.1-6.7-2.3-10.1-3.5c-3.3-1.2-6.6-2.2-9.9-3.4c-3.2-1.1-6.3-2.4-9.5-3.2c-4-1-8.1-1.8-12.3-2.2c-3.3-0.4-6.6-0.4-9.9,0
			c-3.6,0.4-7.2,1-10.8,1.5c-6.2,0.8-12.4,1.7-18.6,2.6c-3.1,0.4-6.1,0.9-9.2,1.4c-3.1,0.5-6.2,1-9.3,1.8c-0.9,0.2-1.8,0.5-2.7,0.8
			c-2.8,0.3-5.5,0.7-8.3,1.1c-1.8,0.2-3.6,0.5-5.3,0.6c-2.7,0.2-5.4,0.5-8.1,0.8c-2.7,0.3-5.3,0.7-8,1c-5.1,0.6-10.3,1-15.4,1.6
			c-5,0.6-10,1-15,1.6c-5.8,0.7-11.5,1.7-17.2,2.5c0.5-0.1,1.1-0.1,1.6-0.2c-2.6,0.3-5.2,0.7-7.7,1.1c-0.9,0.1-1.7,0.2-2.6,0.3
			c-4.6,0.6-9.2,1.4-13.7,2.6c-1.8,0.5-3.6,0.9-5.4,1.4c-1.5,0.4-2.9,1-4.2,1.7c0,0-0.1,0-0.1,0c-1.5-0.2-2.7-0.3-4.1,0
			c-1.9,0.3-3.4,1.3-4.9,2.6c-3.6,3.1-6.4,7.5-7.7,12.1c-0.9,3.3-1.2,6.7-1.3,10.1c-0.1,2.9-0.5,5.8-0.6,8.7c-0.2,3-0.2,6-0.3,8.9
			c-0.2,3.2-0.4,6.3-0.5,9.5c-0.1,3.6-0.1,7.2-0.2,10.8c-0.1,3.3-0.1,6.6-0.2,9.9c0,7-0.6,13.9-1,20.9c-0.2,3.5-0.3,7.1-0.3,10.6
			c0,3.6-0.2,7.2-0.2,10.8c0,6.9,0.5,13.7,0.6,20.6c0.2,7.1-0.2,14.2-0.4,21.4c-0.2,7.1-0.3,14.3,0,21.4c0.1,3.2,0.4,6.3,0.6,9.5
			c0.2,3.3,0.3,6.7,0.5,10c0.2,3.3,0.6,6.6,0.7,9.9c0.1,2.8,0.1,5.7-0.1,8.6c-0.3,1.7-0.7,3.4-1.1,5.2c-0.6,2.7-0.9,5.4-1.2,8.1
			c-0.4,3.8-1.1,7.7-0.8,11.4c0.2,1.8,0.3,3.8,0.9,5.6c0.5,1.7,1.2,3.3,1.9,4.9c1.4,3,3.3,6,6.2,7.6c2.8,1.6,6,1.8,9.1,0.8
			c1.5-0.5,3-1.1,4.5-1.7c1.3-0.5,2.6-1,3.9-1.5c2.4-1,4.8-2,7.2-3.1c3.5-1.6,7-3.3,10.5-4.8c1.7-0.7,3.5-1.3,5.2-1.9
			c2.2-0.8,4.4-1.7,6.5-2.7c2.6-1,5.2-1.8,7.8-2.8c2.9-1.1,5.8-1.9,8.8-2.6c3.4-0.8,6.8-1.6,10.2-2.4c2.7-0.6,5.5-1.2,8.2-1.6
			c3.3-0.3,6.6-0.3,10-0.3c2,0,4.1,0.1,6.1,0c5.7-0.2,11.3-0.8,17-1c3.2-0.1,6.3,0,9.5,0.3c3,0.2,6,0.6,8.9,0.9
			c5.4,0.6,10.7,1.1,16.1,1.7c7.6,0.9,15.1,2,22.6,2.8c7.2,0.8,14.4,1.5,21.6,2.3c5.3,0.6,10.6,1.4,15.8,2.4
			c5.6,1.1,11.2,2.4,16.8,3.7c11,2.5,22,4.9,33.1,6.8c3.6,0.6,7.2,1.3,10.8,1.8c3.6,0.5,7.3,0.9,10.9,1.4c7.1,0.9,14.2,2,21.2,3
			c3.5,0.5,7,1,10.4,1.7c3.4,0.6,6.8,1.2,10.2,1.8c3.2,0.6,6.4,1.3,9.5,1.9c3.2,0.6,6.4,1.1,9.5,2.1c3.1,1,6.1,1.9,9.3,2.7
			c3.6,0.9,7,2,10.5,3.2c3.4,1.2,6.8,2.5,10.2,3.7c3,1.1,6,2.2,9.2,2.9c3.2,0.7,6.3,1.4,9.5,2c3.9,0.8,7.9,1,11.9,1.2
			c1,0,1.9,0.1,2.9,0.1c2.6,0,5.2-0.2,7.8-0.4c3.8-0.3,7.6-0.7,11.3-1.4c13.9-2.5,26.6-9.3,38.6-16.6c5.7-3.5,11.4-6.9,17-10.4
			c6.2-3.8,12.3-7.7,18.6-11.5c6.2-3.8,12.4-7.5,18.5-11.3c6-3.7,12.1-7.3,18.2-10.8c12.6-7.2,25.3-14.1,37.4-22.2
			c6-4,11.9-8,18-11.8c5.5-3.4,11.3-6.5,16.7-10.1c5.5-3.7,10.8-7.7,16.3-11.4c2.9-2,6-3.7,9-5.5c3-1.8,6-3.6,9-5.4
			c6.1-3.6,12-7.5,18.1-11.1c5.9-3.4,11.6-7.2,17.3-10.9c3.6-2.4,7.1-4.9,10.5-7.6c2.6-2.1,5.2-4.4,7.4-6.9c1.6-1.8,3.1-3.8,4.4-5.9
			c0.4-0.6,0.6-1.3,0.9-1.9c0.6-1.4,1.1-2.7,1.4-4.1C1235.8,440.1,1236.1,438.3,1235.9,436.6z M1217.3,426.6
			C1217.3,426.6,1217.3,426.6,1217.3,426.6c0,0-0.1-0.1-0.1-0.1C1217.2,426.5,1217.2,426.6,1217.3,426.6z M546.7,348.7
			c0,0-0.1,0-0.1,0c0,0,0,0,0,0C546.6,348.7,546.6,348.7,546.7,348.7z M1218.1,439.4c-0.4,0.9-1,1.7-1.5,2.6
			c-1.6,1.9-3.2,3.8-5.1,5.5c-1.9,1.7-3.9,3.4-5.9,5.1c-6.5,4.9-13.2,9.5-19.9,13.9c-5.9,3.9-11.8,8-17.7,12c-3,2.1-6.1,4.1-9.2,6.1
			c-2.8,1.8-5.7,3.7-8.4,5.7c-5.3,3.8-10.4,7.9-15.8,11.6c-5.5,3.7-11.1,7.1-16.6,10.8c-3,2-6,4-9,6c-3,2-5.9,4.1-8.9,6.1
			c-5.7,3.9-11.6,7.5-17.5,11c-6.4,3.8-12.9,7.5-19.3,11.2c-3,1.7-6,3.5-9,5.3c-3.3,2-6.5,4-9.8,6c-6.1,3.8-12.3,7.5-18.5,11.2
			c-6.1,3.6-12,7.3-18.1,10.8c-5.8,3.3-11.5,6.6-17.3,9.9c-5.7,3.2-11.5,6.2-17.5,8.7c-5.6,2.2-11.3,3.9-17.2,4.8
			c-3.6,0.4-7.2,0.7-10.8,0.8c-2.1,0.1-4.3,0-6.4-0.1c-1.5-0.1-2.9-0.3-4.4-0.4c-2-0.2-3.9-0.5-5.9-1c-2.1-0.5-4.2-1.1-6.3-1.6
			c-2.2-0.5-4.4-1-6.5-1.7c-2-0.7-4-1.4-6-2.2c-4.7-1.8-9.5-3.7-14.3-5.3c-4.2-1.4-8.6-2.2-12.8-3.5c-1.5-0.5-3.1-1-4.6-1.4
			c-1.6-0.4-3.2-0.7-4.8-1c-3.2-0.6-6.3-1.3-9.5-1.9c-3.4-0.6-6.8-1.1-10.2-1.7c-3.3-0.6-6.6-1.2-9.9-1.7c-7-1-14.1-2.1-21.1-3
			c-3.7-0.5-7.4-1-11.2-1.5c-3.7-0.5-7.3-1.1-11-1.8c-6.6-1.2-13.2-2.5-19.8-4c-7.1-1.6-14.2-3.2-21.3-4.9
			c-6.9-1.6-13.8-3.1-20.8-4.1c-7.3-1-14.6-1.9-21.9-2.7c-4.6-0.5-9.2-1.1-13.8-1.7c-5.4-0.7-10.7-1.5-16.1-2.2
			c-5.8-0.7-11.7-1.3-17.6-1.9c-5.5-0.6-11-1.3-16.5-1.4c-0.1,0-0.1,0-0.2,0c-6.8,0-13.5,1.1-20.4,1.3c-3.1,0.1-6.2,0-9.3,0.1
			c-4,0.1-8,0.6-11.9,1.4c-3.2,0.7-6.3,1.4-9.4,2.3c-3.4,0.9-6.8,1.6-10.2,2.6c-3.1,0.9-6,2.1-9,3.2c-1.5,0.5-3,1-4.4,1.6
			c-1.5,0.6-2.9,1.2-4.4,1.8c-3.1,1.2-6.4,2.2-9.5,3.4c-3.5,1.4-6.9,2.8-10.3,4.2c-1.7,0.7-3.4,1.4-5.2,2c-1.5,0.5-3.1,1-4.6,1.6
			c-0.2,0.1-0.4,0.2-0.6,0.2c0-0.2-0.1-0.4-0.1-0.6c-0.1-1.8-0.1-3.6,0.1-5.4c0.5-3.6,0.9-7.2,1.8-10.8c0.5-2.2,1.1-4.3,1.3-6.6
			c0.4-2.9,0.5-5.9,0.5-8.8c0-4.6-0.6-9.2-0.8-13.8c-0.2-4.7-0.4-9.4-0.7-14.1c-0.5-6.9-0.5-13.8-0.4-20.7
			c0.1-7.1,0.6-14.1,0.6-21.2c0-7.1-0.6-14.1-0.7-21.1c0-3.3,0-6.5,0.1-9.8c0.1-3.8,0.1-7.6,0.2-11.4c0.3-6.9,1-13.8,1.2-20.7
			c0.1-3.3,0.1-6.6,0.1-9.9c0.1-3.6,0.2-7.2,0.2-10.8c0-3.4,0.1-6.8,0.4-10.3c0.2-3.3,0.3-6.6,0.4-9.8c0.1-2.7,0.2-5.5,0-8.2
			c-0.2-3.2-0.8-6.4-1.3-9.5c-0.2-1.7-0.3-3.4-0.2-5.1c0-0.1,0-0.2,0-0.3c0.4-0.1,0.7-0.2,1.1-0.2c0.7-0.1,1.5-0.1,2.3-0.2
			c1.1-0.1,2.3-0.3,3.4-0.3c2.5,0,5.1,0.2,7.6,0.3c3.1,0,6.2,0,9.3-0.2c4.3-0.3,8.5-1,12.7-1.6c-0.6,0.1-1.1,0.1-1.7,0.2
			c5.5-0.7,11-1.6,16.4-2.4c2.8-0.4,5.7-0.7,8.5-1c3.3-0.4,6.6-0.8,9.8-1.2c3.3-0.4,6.7-0.7,10-1.2c3.8-0.5,7.7-1.1,11.5-1.7
			c3.5-0.5,7-1,10.4-1.6c5.2-1,10.4-2.3,15.5-3.5c5-1.2,9.9-2.7,14.8-4.1c4.2-0.2,8.3-0.5,12.5-0.8c4.2-0.3,8.4-0.4,12.5-0.8
			c2.1-0.2,4.1-0.4,6.2-0.4c1.9,0,3.7,0,5.6,0.2c4.9,0.7,9.7,1.8,14.3,3.4c3.1,1.1,6.2,2.3,9.3,3.4c3.5,1.2,6.9,2.5,10.4,3.8
			c6.6,2.4,13.4,4.5,20.1,6.7c6.9,2.2,13.9,4.4,20.9,6.3c3.8,1,7.5,2,11.3,2.9c3.2,0.8,6.3,1.6,9.5,2.5c3.4,1,6.9,2,10.2,3.2
			c3.5,1.2,7.1,2.5,10.6,3.8c7,2.4,14,4.8,20.9,7.1c6.8,2.3,13.7,4,20.6,6c6.8,1.9,13.6,4.3,20.4,6.2c7.1,2,14.3,3.6,21.5,5.3
			c6.8,1.7,13.7,3.2,20.5,4.8c3.6,0.9,7.2,1.8,10.8,2.7c3.5,0.8,6.9,1.5,10.4,2.3c3.2,0.7,6.4,1.5,9.7,2.1c2.5,0.5,5.1,0.9,7.6,1.6
			c0,0.5,0,0.9,0,1.4c-0.3,1.6-0.8,3.1-1.3,4.7c-0.9,2-1.8,3.9-2.8,5.9c-1.1,2.2-2.4,4.3-3.7,6.3c-1.2,1.6-2.5,3.1-3.9,4.5
			c-1.6,1.6-3.2,3.1-4.9,4.6c-1.6,1.2-3.3,2.3-5.1,3.2c-1.7,0.9-3.4,1.7-5.2,2.5c-5.9,2.4-11.9,4.5-18,6.1c-6.3,1.6-12.6,3-19,4
			c-6.9,0.8-13.9,1-20.9,0.2c-3.8-0.5-7.7-0.9-11.5-1.5c-4.6-0.7-9.1-1.8-13.5-3c-4.2-1.2-8.4-2.4-12.7-3.5
			c-4.3-1.1-8.5-2.4-12.8-3.7c-6.2-1.9-12.5-3.5-18.8-4.7c-3.3-0.6-6.6-1-9.8-1.7c-3.7-0.8-7.4-1.6-11.2-1.8
			c-2.8-0.1-5.6,0.2-8.4,0.6c-1,0.1-2.1,0.3-3.1,0.4c-2.3,0.4-4.3,2-5.5,4c-2.2,3.6-0.9,8.3,1.3,11.5c0.8,1.2,1.6,2.3,2.6,3.4
			c1.4,1.5,3,2.8,4.7,3.9c1.4,0.9,2.8,1.7,4.2,2.4c3.5,1.7,7.1,3.3,10.8,4.5c6.6,2.3,13.4,4.2,20.1,6.2c6.7,2,13.5,3.8,20.2,5.8
			c6.1,1.8,12.1,3.8,18.2,5.7c5.8,1.8,11.7,3.7,17.4,5.9c5.4,2.2,10.7,4.5,16.1,6.6c2.6,1,5.2,2.1,7.7,3.4c2.3,1.2,4.5,2.5,6.7,3.8
			c2.6,1.6,5.1,3.3,7.7,5c2.2,1.4,4.3,3,6.6,4.3c1.2,0.7,2.6,1.4,3.9,1.9c1.6,0.7,3.4,1.5,5.1,1.9c3.3,0.7,6.6,0.4,9.8-0.3
			c1.4-0.3,2.9-0.7,4.3-1.2c3.8-1.5,7.5-3.4,11.2-5.1c2.6-1.2,5.3-2.3,7.9-3.5c5-2.1,10.1-4.1,15.1-6.2c4.2-1.8,8.3-3.6,12.5-5.4
			c4.3-1.8,8.7-3.5,13.1-5.2c4.8-1.9,9.7-3.8,14.6-5.6c6.5-2.3,12.7-5,19.3-7.2c6.8-2.2,13.6-4.5,20.3-7.1c3.1-1.2,6.1-2.4,9.2-3.5
			c3.4-1.2,6.8-2.3,10.3-3.4c6.6-2.1,13.2-4.3,19.8-6.4c6.4-2,12.6-4.5,19-6.4c3.2-0.9,6.3-2,9.3-3.2c3.2-1.3,6.5-2.4,9.8-3.4
			c6.6-1.9,13.1-3.9,19.9-5c3.1-0.5,6.3-1.2,9.4-1.7c1.6-0.3,3.2-0.4,4.7-0.7c1.2-0.2,2.5-0.4,3.7-0.7c2.4-0.2,4.8-0.3,7.2-0.5
			c1.3-0.1,2.6-0.3,4-0.4c1.4-0.1,2.8,0,4.2-0.1c1.6-0.1,3.1-0.1,4.7,0c1.3,0.1,2.6,0.2,3.9,0.3c1.8,0.1,3.7,0.2,5.5,0.4
			c0.6,0.1,1.2,0.3,1.8,0.5c1.1,0.4,2.2,0.6,3.4,0.8c1.7,0.3,3.4,0.7,5,1.2c0.1,0.4,0.1,0.7,0.2,1.1c0.2,1.4,0.2,2.8,0.3,4.2
			c0,1.1,0.2,2.1,0.3,3.1c0,0.5,0.1,0.9,0,1.3C1218.3,438.4,1218.2,438.9,1218.1,439.4z"/>
		<path class="st0" d="M875.7,207.5c0.1,2.2,0.4,4.4,0.5,6.6c0.1,2.2,0.2,4.4,0.4,6.6c0.2,2.4,0.5,4.8,0.7,7.2
			c0.3,3.1,0.6,6.3,1,9.4c0.3,1.7,0.6,3.4,0.8,5.2c0.3,2.3,0.4,4.6,0.7,6.9c0.4,3,0.9,6,1.4,8.9c0.4,2.3,0.7,4.6,1.5,6.7
			c1,2.8,2.4,5.4,3.6,8.1c0.8,1.8,1.5,3.5,2.4,5.2c0.8,1.6,1.8,3.1,2.9,4.6c1.1,1.5,2.3,3,3.4,4.5c1.2,1.6,2.3,3.2,3.5,4.7
			c2.7,3.7,5.7,7.2,9.1,10.2c2.8,2.5,5.9,4.7,8.9,6.9c1.2,1,2.4,1.9,3.5,3c1.7,1.6,3.4,3,5.2,4.4c2.5,1.8,5.1,3.3,7.6,5
			c2.7,2.1,5.4,4.3,8.5,6c2.6,1.5,5.3,2.8,8.1,3.9c2.4,0.9,4.8,1.5,7.2,2c4.9,1.1,9.7,2.6,14.7,3.5c4.8,0.9,9.7,1.7,14.5,2.4
			c2.5,0.4,5,0.8,7.5,1.2c2.4,0.4,4.7,0.9,7.1,1.3c5.4,0.8,10.9,1.5,16.4,1.8c0.7,0,1.3,0,2,0c1.8,0,3.7-0.1,5.5-0.4
			c3.1-0.4,6.2-0.7,9.1-1.5c4.9-1.2,9.6-2.9,14.3-4.6c3-1.1,6-2.3,8.8-3.7c2.1-1,4.2-2,6.3-2.9c4.7-2.2,9.4-4.5,13.7-7.3
			c4.7-3,8.9-6.6,13.1-10.2c3.8-3.3,7.5-6.7,11.2-10.1c4.1-3.7,7.1-8.3,10.5-12.6c1.5-1.9,2.8-3.8,4.2-5.7c1.5-2,3-4,4.5-6
			c3-3.9,5.7-7.9,7.8-12.3c1.3-2.7,2.6-5.5,3.6-8.3c0.8-2.2,1.6-4.3,2.5-6.5c0.9-2.3,1.9-4.6,2.6-7c0.6-2.3,1.2-4.5,1.8-6.8
			c0.6-2.3,1.3-4.7,2-7c0.7-2.4,1.5-4.7,2.2-7.1c0.8-3.1,1.3-6.3,1.4-9.5c0.1-2.3-0.1-4.6-0.3-6.9c-0.2-2.4-0.6-4.8-0.8-7.2
			c-0.3-3.3-0.7-6.6-1.4-9.9c-0.5-2.2-1.2-4.4-1.8-6.6c-0.6-2.4-1.1-4.8-1.7-7.1c-0.6-2.4-1.4-4.8-2.4-7.1c-1.2-2.8-2.5-5.7-3.7-8.5
			c-2-4.4-4.3-8.5-6.5-12.8c-1.1-2.1-2.1-4.2-3.2-6.3c-1.2-2-2.3-4.1-3.5-6.1c-1.2-2.1-2.5-4.2-3.8-6.1c-1.6-2.2-3.3-4.3-5-6.4
			c-2.1-2.7-4.2-5.5-6.3-8.2c-2.6-3.4-5.1-6.9-8.2-9.9c-2.6-2.4-5.1-4.9-7.9-7.1c-3.4-2.7-7-5.1-10.6-7.4c-4.2-2.6-8.2-5.4-12.6-7.8
			c-1.4-0.8-3-1.4-4.5-2c-1.2-0.4-2.4-0.8-3.6-1.2c-2.3-0.7-4.7-1.3-7-1.9c-5.1-1.4-10.2-2.6-15.3-3.8c-4.7-1.1-9.4-2.1-14.2-2.7
			c-11.2-1.5-22.7-1.7-33.8,0.2c-5,0.8-10,1.8-14.8,3.4c-5.4,1.8-10.7,4.1-15.6,6.8c-4.5,2.4-8.8,5.1-13.1,7.8
			c-5,3.2-9.9,6.6-14.4,10.4c-3.8,3.1-7.2,6.7-10.7,10.1c-1.7,1.6-3.5,3.2-5.1,4.9c-1.9,2-3.6,4.1-5.3,6.3c-1.3,1.5-2.6,3.1-3.8,4.7
			c-1.3,1.8-2.3,3.6-3.1,5.6c-0.6,1.6-1.1,3.2-1.6,4.8c-0.5,1.5-1,2.9-1.5,4.4c-0.2,0.6-0.4,1.2-0.6,1.8c-0.2,0.2-0.4,0.4-0.6,0.5
			c-1.5,1.5-2.8,3.3-4,5c-2.8,4.3-5,9.1-6.8,13.9c-0.1,0.1-0.1,0.2-0.2,0.3c-1.5,2.5-2.7,5.1-3.8,7.8c-0.9,2.2-1.6,4.4-2.2,6.7
			c-0.6,2.1-1.2,4.2-1.7,6.3c-1.4,5.7-2,11.5-1.9,17.4C875.5,202.7,875.5,205.1,875.7,207.5z M925.2,124.6c1.9-1.5,3.8-3,5.6-4.6
			c3.6-3.2,7.2-6.4,10.9-9.4c4.9-3.5,10.1-6.7,15.3-9.7c2.8-1.6,5.6-3.3,8.6-4.8c2.6-1.3,5.2-2.5,7.8-3.6c3.7-1.4,7.5-2.6,11.3-3.6
			c3.8-1,7.6-1.9,11.5-2.5c8.7-1,17.5-1.1,26.2-0.1c5.6,0.8,11.2,1.8,16.7,3c3,0.7,6.1,1.4,9.1,2.1c2.6,0.6,5.2,1.3,7.7,2.2
			c3.5,1.6,6.6,3.9,9.9,5.9c3.5,2.2,7.1,4.3,10.4,6.6c2.2,1.7,4.2,3.5,6.2,5.4c2.2,2,4.4,4,6.3,6.2c1.3,1.6,2.5,3.3,3.7,5
			c1.5,1.9,2.9,3.8,4.3,5.8c1.5,2,3.1,3.9,4.6,6c1.4,1.9,2.6,3.9,3.8,5.9c2.5,4.2,4.9,8.5,7,12.9c1.9,4.1,3.9,8.2,5.8,12.4
			c0.9,2,1.8,4.1,2.6,6.1c1.1,2.6,2.1,5.3,2.8,8.1c0.6,2.8,1.1,5.6,1.7,8.4c0.5,2.4,1.1,4.8,1.5,7.2c0.4,3.5,0.6,7,0.8,10.5
			c0.2,3.3,0.3,6.5,0,9.8c-0.3,1.6-0.8,3.2-1.4,4.8c-0.6,1.7-1.3,3.5-1.8,5.2c-1.1,3.3-2.1,6.7-3.1,10c-0.5,1.8-1,3.6-1.6,5.4
			c-0.6,1.8-1.3,3.5-2.1,5.2c-1.2,2.9-2.3,5.8-3.5,8.6c-1.2,2.6-2.4,5.1-3.9,7.5c-2,3.1-4.1,6-6.4,8.9c-2.1,2.7-4,5.4-6,8.1
			c-1.8,2.3-3.6,4.6-5.4,7c-1.5,1.7-3,3.3-4.7,4.8c-1.9,1.7-3.8,3.4-5.6,5.1c-3.6,3.3-7.2,6.5-11,9.5c-1.8,1.3-3.7,2.5-5.6,3.7
			c-2.3,1.4-4.7,2.6-7.2,3.8c-2.3,1.1-4.6,2.1-6.9,3.2c-2,0.9-4,1.9-6,2.7c-3.4,1.3-6.8,2.5-10.2,3.6c-2,0.6-4,1.3-6,1.7
			c-1.6,0.3-3.1,0.6-4.7,0.9c-2.9,0.3-5.8,0.3-8.7,0.1c-2.7-0.2-5.3-0.5-7.9-0.8c-4.2-0.6-8.4-1.5-12.6-2.1
			c-4.6-0.7-9.2-1.4-13.8-2.2c-4.6-0.8-9.1-1.7-13.6-2.9c-4.1-1.1-8.2-1.8-12.2-3.1c-2.7-1.3-5.3-2.8-7.8-4.5
			c-2.2-1.8-4.4-3.6-6.8-5.1c-1.6-1-3.2-2-4.8-3.1c-1.5-1.3-2.8-2.6-4.3-3.9c-2.2-1.9-4.6-3.6-6.9-5.3c0.6,0.5,1.2,0.9,1.9,1.4
			c-2.2-1.6-4.4-3.2-6.4-5.1c-1.8-1.6-3.4-3.3-4.9-5.1c-1-1.3-1.9-2.6-2.9-3.9c-1.2-1.6-2.4-3.2-3.7-4.8c-1.2-1.5-2.3-3.1-3.3-4.8
			c-0.7-1.3-1.4-2.7-2-4c-0.1-0.2-0.2-0.4-0.3-0.6c0,0,0,0,0,0c0,0,0,0,0,0c-0.7-1.6-1.4-3.2-2.2-4.7c-0.8-2.1-1.3-4.2-1.7-6.5
			c-0.3-2.1-0.7-4.1-1-6.1c-0.3-2.3-0.5-4.5-0.7-6.8c-0.3-2.7-0.8-5.3-1.2-8c-0.4-3.4-0.7-6.9-1-10.3c-0.4-3.3-0.4-6.6-0.7-9.9
			c-0.5-7.1-1.1-14.3-0.3-21.4c0.2-1.2,0.4-2.4,0.7-3.6c0.3-1.3,0.7-2.7,0.9-4c0.8-2.3,1.6-4.5,2.4-6.8c0.8-2.3,1.7-4.5,2.4-6.8
			c0.7-2.3,1.3-4.7,2.1-7.1c0.9-2.6,1.9-5.1,2.8-7.7c0.7-2.1,1.4-4.1,2.2-6.2c1.3-2.9,2.6-5.8,3.6-8.8c0.6-2,1.2-4.1,1.7-6.1
			c0.5-0.4,0.9-0.8,1.4-1.1c1.8-1.3,3.5-2.8,5.1-4.3C921.3,127.8,923.2,126.2,925.2,124.6z"/>
		<path class="st0" d="M987.3,153.1c-0.1,0-0.2,0-0.3,0c0.1,0,0.1,0,0.2,0C987.2,153.1,987.3,153.1,987.3,153.1z"/>
		<path class="st0" d="M939.1,188.8c0.8,6.1,1.6,12.2,2.6,18.2c0.8,4.5,1.6,9,2.2,13.5c0.6,5.4,1.1,10.9,2.2,16.3
			c1,4.7,2.2,9.4,3.4,14.1c1.1,4.7,2.2,9.4,3.8,13.9c0.8,2.2,1.6,4.4,2.5,6.5c0.7,1.6,1.4,3.4,2.5,4.8c0,0,0,0,0,0c0,0,0,0,0,0
			c0-0.4,0.1-0.9,0.1-1.3c0.7-4.5,1.7-8.9,2.6-13.3c1-5.3,2-10.6,2.4-16c0.4-5.6,0-11.2-0.4-16.8c-0.2-2.6-0.5-5.1-0.9-7.7
			c0.9-0.2,1.9-0.4,2.8-0.6c2.9-0.6,5.8-1.4,8.7-2.2c1.4-0.4,2.9-0.9,4.3-1.4c2.3-0.3,4.5-0.7,6.8-1.2c1.1-0.2,2.2-0.6,3.3-0.9
			c1.8-0.6,3.6-1.1,5.2-2.1c1.1-0.7,2-1.5,2.6-2.5c0.5-0.6,1-1.4,1.2-2.2c0.2-0.7,0.2-1.5,0.2-2.2c0-0.7-0.1-1.5-0.3-2.2
			c0-0.1,0-0.2,0-0.2c0-0.1-0.1-0.3-0.1-0.4c0.1-0.2,0.2-0.4,0.3-0.6c0-0.2,0.1-0.5-0.1-0.7c-0.3-0.4-0.7-0.5-1.1-0.5
			c-0.3-0.5-0.6-0.9-1-1.3c-1-1-2.2-1.7-3.5-2.1c-2.9-0.8-5.9-0.1-8.8,0.5c-1.1,0.2-2.2,0.5-3.3,0.8c-3.5,0.4-7.1,0.9-10.6,1.5
			c-2.5,0.4-4.9,0.9-7.4,1.4c-0.7,0.2-1.4,0.3-2.1,0.5c-0.6-3.1-1.1-6.2-1.6-9.3c-0.8-5.6-1.6-11.2-2.4-16.8
			c-0.2-1.8-0.5-3.7-0.7-5.5c-0.2-1.7-0.3-3.3-0.4-5c0.7-0.1,1.3-0.2,2-0.3c1.9-0.3,3.8-0.7,5.7-1.2c4.3-1,8.5-2.4,12.7-4
			c1.9-0.7,3.9-1.5,5.8-2.1c2.1-0.7,4.3-1.3,6.5-1.8c2.2-0.5,4.5-1,6.5-2c0.3-0.2,2.2-0.9,1.8-1.6c-0.1-0.3-0.6-0.3-0.9-0.4
			c0,0,0,0,0,0c-0.3,0-0.6-0.1-0.9-0.1c0,0,0,0,0,0c0.4,0.1,0.8,0.2,1.2,0.3c0.1,0,0.1,0.1,0.2,0.1c0,0,0,0.1,0.1,0.1c0,0,0,0,0,0
			c-0.1,0-0.1,0.1-0.2,0.1c-0.3,0.2-0.7,0.3-1,0.3c-2.1,0.3-4.2,0-6.3-0.3c0,0,0,0,0,0c-0.1,0-0.1,0-0.2,0c-0.1,0-0.2,0-0.3,0
			c0,0,0,0,0.1,0c-3.2-0.4-6.3-0.9-9.5-1.1c-3.3-0.2-6.7-0.2-10-0.2c-3.1,0-6.2-0.1-9.3-0.2c-2.7-0.1-5.4-0.2-8-0.5
			c-1.5-0.2-2.8-0.3-4.5,0.1c-1,0.2-1.9,0.7-2.8,1.1c-1.4,0.7-2.5,2.1-3.4,3.3c-0.7,1-1.3,2.3-1.6,3.4c-0.2,0.6-0.4,1.2-0.5,1.8
			c-0.2,1.5-0.5,3.1-0.5,4.7c0,2.7,0.1,5.5,0.4,8.2C937.8,178.7,938.5,183.8,939.1,188.8z M954.2,163.5
			C954.2,163.5,954.2,163.5,954.2,163.5C954.2,163.5,954.2,163.5,954.2,163.5C954.2,163.5,954.2,163.5,954.2,163.5z M996.3,201.4
			C996.3,201.4,996.3,201.4,996.3,201.4c0,0,0.1,0.1,0.1,0.1c0,0.1,0,0.1,0.1,0.2c0,0.1-0.1,0.1-0.1,0.2c0,0,0,0-0.1,0
			c-0.1-0.3-0.3-0.5-0.4-0.8C996.1,201.2,996.2,201.3,996.3,201.4z"/>
		<path class="st0" d="M1011.8,165.5c0.4,3.3,1,6.5,1.7,9.7c1.4,6.5,2.8,12.9,4.4,19.3c2.8,11.7,6.8,23,10.4,34.4
			c1,3.3,2.1,6.6,3.1,9.9c0.8,2.6,1.5,5.3,2.2,7.9c0.8,3.2,1.7,6.3,2.6,9.4c0.4,1.4,0.8,2.8,1.3,4.1c0.2,0.7,0.5,1.4,0.7,2.1
			c0.2,0.4,0.3,1,0.6,1.4c0,0,0,0,0,0c0,0,0,0,0,0c0,0,0,0,0,0c0,0,0,0,0,0c0,0,0,0,0,0c0,0,0,0,0,0c0,0,0,0,0,0
			c0-0.1,0-0.3-0.1-0.4c0,0,0,0,0,0c-0.7-6.1,0.1-12.2,0.3-18.3c0.1-3.1,0.2-6.3,0-9.4c-0.1-3.1-0.5-6.2-0.9-9.3
			c-0.5-4.1-1.5-8.1-2.4-12.1c1.5,1,3.1,2,4.6,3.1c1.9,1.3,3.7,2.7,5.6,4c1.6,1.2,3.2,2.5,4.8,3.6c2.9,2.3,5.9,4.4,8.9,6.6
			c3,2.2,6.1,4.4,9.2,6.5c1.5,1,3.1,1.9,4.8,2.7c1.6,0.8,3.3,1.5,4.9,2.3c1.6,0.8,3.2,1.7,4.8,2.4c0.7,0.3,1.4,0.6,2.1,0.9
			c0.4,0.2,1,0.5,1.4,0.2c0,0,0,0,0,0c0,0-0.1,0-0.1,0c-0.1-0.1-0.1-0.1-0.2-0.2c-1.4-2-2.4-4.3-3.6-6.4c-1.4-2.4-3-4.5-4.5-6.8
			c-1.5-2.2-2.7-4.4-4.1-6.6c-1.8-2.8-3.8-5.5-5.8-8.2c-2-2.6-4.2-5-6.5-7.4c-2.4-2.4-5.1-4.5-7.8-6.6c-2.6-1.9-5.3-3.7-8-5.5
			c3.1-1.7,6.2-3.4,9.2-5.4c5.2-3.4,10-7.6,13.9-12.5c2-2.5,4.2-5.1,5.6-8c0.5-1,1-2.1,1.4-3.1c0.3-0.7,0.6-1.3,0.8-2
			c0.3-1.1,0.4-2.2,0.5-3.3c0.1-0.6,0.2-1.2,0.1-1.9c-0.2-1.6-0.2-3.3-0.8-4.8c-0.6-1.5-1.1-3-1.9-4.3c-1.5-2.5-3.4-4.8-5.5-6.8
			c-1.5-1.4-3.1-2.7-4.8-4c-1.1-0.8-2.1-1.6-3.2-2.3c-0.6-0.4-1.2-0.9-1.8-1.3c-1.8-1.1-3.5-2.2-5.4-3.1c-2.3-1.1-4.6-2.2-7-3
			c-2-0.7-3.9-1.4-6-1.7c-2.8-0.4-5.7-0.9-8.5-0.6c-2.1,0.2-4.4,0.4-6.5,1c-0.9,0.2-1.9,0.5-2.8,0.8c-1.3,0.5-2.6,1-3.8,1.7
			c-1.2,0.7-2.2,1.4-3.3,2.3c-1.1,0.9-1.8,1.8-2.7,2.9c-3.6,4.7-3.1,11.1-2.7,16.7C1011.2,159.5,1011.4,162.5,1011.8,165.5z
			 M1034.9,205c-0.4,0.2-0.9,0.4-1.3,0.6v0C1034.1,205.4,1034.5,205.2,1034.9,205C1034.9,205,1034.9,205,1034.9,205z M1026.7,150.3
			c0-0.2,0.1-0.4,0.1-0.6c0.2-0.1,0.5-0.3,0.7-0.4c1.3-0.4,2.6-0.8,4-1c1.6-0.1,3.2-0.2,4.8-0.1c2.3,0.4,4.5,1.1,6.7,2
			c1.5,0.7,3.1,1.4,4.5,2.3c0.9,0.6,1.8,1.1,2.8,1.7c1,0.6,2,1.4,3,2.1c2,1.6,3.9,3.3,5.6,5.2c0.3,0.5,0.7,1,0.9,1.5
			c0,0,0,0.1,0,0.1c0,0.2-0.1,0.4-0.1,0.5c-0.8,1.5-1.7,3-2.7,4.3c-2.5,3.1-5.3,6-8.3,8.5c-3.6,2.6-7.5,4.8-11.4,6.8
			c-2.5,1.3-4.9,2.6-7.4,3.9c-0.9-5.1-1.7-10.1-2.5-15.2c-0.4-3.5-0.7-7.1-0.8-10.6C1026.4,157.7,1026.3,154,1026.7,150.3z"/>
		<path class="st0" d="M569.5,329.9c0.5-0.1,0.9-0.1,1.4-0.2c0.3,0,0.7-0.1,1-0.1C571.2,329.7,570.4,329.8,569.5,329.9z"/>
		<path class="st0" d="M500.5,364.7c-0.2-1.3-0.4-2.6-0.7-3.9c0-0.2,0.1-0.4,0.1-0.6c0.6-3.2,1.1-6.5,1-9.7
			c-0.1-2.1-0.2-4.1-0.6-6.1c-0.3-1.4-0.5-2.7-1-4c-0.5-1.3-1-2.7-1.6-4c-0.8-1.5-1.8-2.9-2.9-4.1c-0.8-0.9-1.7-1.7-2.7-2.5
			c-1.6-1.2-3.2-2.5-4.9-3.5c-2.4-1.4-5-2.4-7.7-3.1c-1.4-0.3-2.7-0.7-4.1-0.9c-3.6-0.7-7.3-0.6-10.8,0.4c-1.4,0.4-2.9,0.8-4.3,1.2
			c-0.6,0.2-1.2,0.3-1.8,0.4c-2.7,0.3-5.5,0.6-8.2,0.7c-2.7,0-5.3-0.2-8-0.5c-5-0.5-10-0.6-14.9-1.1c-0.1,0-0.1,0-0.2,0
			c-6.2-0.8-12.5-1.3-18.8-0.5c-3.6,0.5-7.1,1-10.6,2c-0.7,0.2-1.4,0.4-2.1,0.7c-1.1,0.4-2.5,1-3.6,1.6c-1,0.5-1.9,1.1-2.8,1.8
			c-1.6,1.2-3.2,2.4-4.6,3.8c-2.6,2.6-4.2,5.9-5.2,9.4c-0.4,1.2-0.6,2.5-1,3.8c-0.7,2.8-1.6,5.5-2.4,8.3c-1,3.3-1.3,6.8-1.6,10.2
			c-0.2,2.3-0.4,4.6-0.7,6.9c-0.7,5-1.7,10-1.9,15c-0.1,2.4-0.2,4.9-0.3,7.3c-0.1,1.6-0.2,3.1-0.4,4.7c-0.3,2-0.7,4.1-1.1,6.1
			c-0.5,2.2-1,4.5-1.4,6.7c-0.8,4.4-1.2,8.9-1.8,13.3c-0.6,4.6-1.5,9.1-2.4,13.7c-0.9,4.4-1.8,8.7-2.4,13.2
			c-0.8,5.7-1.5,11.4-2.2,17.2c-0.8,6.2-1.6,12.6-1.5,18.9c0.1,5.6,0.3,11.2,0.1,16.8c-0.2,5.9-0.4,11.8-0.2,17.7
			c0.2,5.5,0.9,11.1,1,16.6c0.1,5.9,0,11.8,0.7,17.6c0.8,6.4,1.9,12.7,3,19c0.6,3.3,1.1,6.7,2.2,9.9c0.5,1.5,1.1,3,1.8,4.5
			c0.3,0.7,0.6,1.4,1,2c1.2,1.9,2.6,3.8,4.4,5.2c1.7,1.3,3.3,2.5,5.1,3.6c1.2,0.7,2.4,1.3,3.6,1.8c1.7,0.7,3.6,1.5,5.4,2
			c3.2,0.8,6.5,1.3,9.7,1.6c0.9,0.1,1.8,0.1,2.7,0.1c0.6,0,1.1,0,1.7-0.1c1.3-0.1,2.6-0.3,3.8-0.5c2.5-0.3,5-0.2,7.5-0.4
			c5.5-0.5,11-1.4,16.6-1.4c2.9,0,5.8,0.1,8.6-0.1c2.9-0.2,5.8-0.4,8.7-0.6c2.8-0.2,5.5-0.3,8.3-0.2c2.8,0.2,5.6,0.5,8.5,0.5
			c4.9,0.1,9.8-0.3,14.4-1.8c1.4-0.5,2.7-1,4.1-1.5c0.7-0.3,1.4-0.6,2-1c0.8-0.6,1.7-1.1,2.3-1.9c0.6-0.7,1.3-1.5,1.7-2.3
			c0.4-0.8,0.8-1.7,1.1-2.5c0.3-0.8,0.5-1.6,0.7-2.4c1.2-5.8,1.5-11.7,2-17.6c0.2-2.9,0.5-5.7,0.7-8.6c0.1-1.2,0.1-2.4,0.1-3.7
			c0.5-2.2,1-4.3,1.5-6.5c0.6-3.2,1.1-6.5,1.5-9.7c0.6-5,0.8-10,1-15c0.6-11.7,1-23.3,1.5-35c0.3-5.6,0.4-11.2,0.4-16.8
			c0.1-5.5,0.2-11,0.2-16.5c0-5.7-0.2-11.3-0.2-17c0-5.8,0-11.6,0.3-17.4c0.3-5.9,0.4-11.9,1-17.8c0.3-2.7,0.7-5.4,0.9-8.1
			c0.2-2.4,0.4-4.9,0.6-7.3c0.5-3.3,1-6.6,1.1-9.9c0.1-2.8-0.1-5.7-0.3-8.5C501.2,371.1,500.9,367.9,500.5,364.7z M476.7,587.5
			c-1.5,0.5-3.1,0.7-4.6,1c-2.3,0.3-4.6,0.4-6.9,0.1c-0.6-0.1-1.2-0.1-1.8-0.2c-5.4-0.8-10.8-1.7-16.3-1.7c-0.4,0-0.8,0-1.3,0
			c-2.9,0.1-5.8,0.2-8.7,0.2c-2.7,0-5.4-0.2-8.1-0.3c-2.8-0.1-5.7,0-8.5,0.1c-2.7,0.2-5.3,0.5-8,0.6c-2.6,0.1-5.2,0-7.8,0.2
			c-1.1,0.1-2.2,0.3-3.3,0.3c-1.2,0.1-2.4,0.1-3.6,0c-2.7-0.4-5.4-1-8.1-1.9c-1.7-0.8-3.2-1.6-4.8-2.6c-0.3-0.3-0.6-0.5-0.9-0.8
			c-0.4-0.6-0.7-1.2-1.1-1.9c-1.4-4-2-8.2-2.7-12.4c-0.6-3.4-1.2-6.8-1.7-10.3c-0.3-2.3-0.5-4.5-0.6-6.8c-0.2-3-0.2-6-0.2-9
			c0-2.7,0-5.5-0.2-8.2c-0.1-3-0.4-5.9-0.6-8.9c-0.4-5.8-0.3-11.5-0.2-17.3c0.1-2.8,0.2-5.5,0.2-8.3c0-2.9-0.1-5.8-0.1-8.6
			c-0.1-2.8-0.1-5.6,0.1-8.4c0.1-2.5,0.4-5,0.6-7.5c0.4-3.4,0.9-6.8,1.3-10.2c0.5-3.9,0.9-7.8,1.5-11.6c0.5-2.9,1-5.7,1.6-8.6
			c0.6-2.7,1.2-5.3,1.6-8c0.5-3,1-6,1.4-9c0.4-2.7,0.6-5.4,1-8.1c0.8-5.7,2.3-11.3,3.2-17c1-6,0.8-12.1,1.3-18.1
			c0.5-3.9,1.2-7.9,1.6-11.8c0.4-3.3,0.7-6.7,1-10c0.2-1.3,0.5-2.6,0.9-3.9c0.5-1.5,1-3,1.5-4.6c0.7-2.7,1.3-5.4,2.1-8
			c0.1-0.1,0.1-0.2,0.2-0.4c0.5-0.5,1-1,1.5-1.4c0.7-0.5,1.4-0.9,2.2-1.3c2.3-0.8,4.7-1.2,7.1-1.7c4.5-0.5,9-0.5,13.5-0.1
			c1.9,0.3,3.9,0.5,5.8,0.7c2.1,0.2,4.2,0.3,6.2,0.4c3.7,0.2,7.4,0.6,11.1,0.9c4,0.3,8,0.1,11.9-0.3c1.7-0.2,3.4-0.4,5.1-0.7
			c1-0.1,1.9-0.3,2.8-0.5c1.8-0.5,3.5-1.1,5.3-1.5c0.3,0,0.6,0,1,0c0.8,0.2,1.7,0.3,2.5,0.5c1,0.2,2.1,0.5,3.1,0.8
			c1.6,0.8,3.1,1.7,4.6,2.7c0.5,0.5,1,1,1.5,1.5c0.4,0.5,0.8,1.1,1.1,1.6c0.6,1,1.2,2.1,1.7,3.1c0,0.1,0.1,0.1,0.1,0.2
			c0.4,1.2,0.8,2.3,1.1,3.5c0.3,1.2,0.6,2.4,0.9,3.5c0.2,0.8,0.3,1.6,0.5,2.4c-0.6,2.6-1.2,5.1-1.8,7.7c-0.5,2-0.9,3.9-1.3,5.9
			c-0.4,2.1-0.7,4.2-1,6.3c-0.5,2.8-1.1,5.5-1.5,8.3c-0.5,3.5-0.8,6.9-1.1,10.4c-0.2,2.9-0.6,5.8-0.9,8.7c-0.4,2.9-0.5,5.8-0.7,8.8
			c-0.2,5.7-0.6,11.4-0.7,17.1c-0.1,5.7,0,11.5,0.1,17.2c0.3,9.3,0.3,18.7,0.3,28c-0.5,5.1-1.1,10.3-1.4,15.4c-0.2,3-0.4,6-0.5,9
			c-0.1,3,0,6,0.1,8.9c0.2,5.6,0.7,11.1,1.1,16.6c0.4,5.5,0.6,11.1,0.8,16.6c-0.1,2.7-0.2,5.4-0.1,8c0,3,0.2,6,0.4,9
			c0,0.3,0,0.6-0.1,1c-0.3,2.9-0.6,5.7-0.9,8.6c-0.3,2.4-0.5,4.7-0.7,7.1C478.1,581.9,477.6,584.7,476.7,587.5z"/>
	</g>
</g>
<g id="Gemeinsam" class="st1">
	<g class="st3">
		<path class="st0" d="M1099.8,394.6c-1.1-2.6-2-5.3-2.7-8.1c-0.7-2.6-1.1-5.2-1.6-7.9c-0.8-5-1.9-10-2.6-15
			c-0.6-6.1-0.9-12.1-2.2-18.1c-0.6-2.7-1.5-5.3-2.3-7.9c-0.8-2.3-1.6-4.6-2.4-6.9c-1.7-5.2-3-10.6-4.9-15.8
			c-1.8-5.2-3.9-10.4-6.1-15.6c-2.3-5.7-4.8-11.3-7.7-16.8c-2.6-5-5.5-9.9-8.3-14.8c-2.7-4.7-5.6-9.3-8.5-13.8
			c-1.5-2.3-3.1-4.5-4.6-6.7c-1.5-2.1-2.9-4.3-4.4-6.5c-1.4-2-2.9-4-4.4-6.1c-1.1-1.5-2.2-3-3.3-4.4c-0.7-0.9-1.4-1.8-2.2-2.5
			c-2.2-2.2-4.8-3.9-7.8-4.8c-1.7-0.5-3.4-0.7-5.2-0.8c-1.2-0.1-2.4-0.2-3.7-0.2c-5.8,0-11.7,0.6-17.4,1.8c-2.7,0.6-5.4,1.3-8.1,2.1
			c-2.3,0.6-4.6,1.1-7,1.4c-4.3,0.5-8.5,0.9-12.8,1.1c-2,0.1-4.1,0.2-6.1,0.2c-2,0-4-0.1-6-0.4c-4.6-0.7-9.2-1.4-13.5-3.1
			c-4.4-1.7-8.7-3.5-13.1-5.3c-5.7-2.5-11.1-5.6-16.5-8.6c-2.9-1.6-5.8-3.1-8.7-4.7c-2.8-1.6-5.6-3.1-8.4-4.6c-5-2.6-10-5.2-15-7.7
			c-2.4-1.2-4.7-2.3-7.1-3.5c-2.4-1.2-4.7-2.5-7.1-3.8c-2.4-1.3-4.9-2.5-7.4-3.7c-2.4-1.2-4.9-2.5-7.4-3.6c-2.4-1.1-4.9-2.3-7.3-3.5
			c-3-1.6-6.1-2.9-9.3-4.2c-2.3-1-4.7-2-7.1-2.7c-2.3-0.7-4.6-1.2-6.9-1.5c-3.2-0.5-6.4-1.1-9.7-1.4c-2.5-0.2-5-0.3-7.5-0.4
			c-2.2,0-4.5-0.1-6.7-0.1c-2.4,0-4.9-0.1-7.4-0.1c-2.8,0.1-5.6,0.2-8.3,0.3c-2.7,0.1-5.4,0.2-8.1,0.5c-2,0.3-4,0.5-5.9,1.1
			c-1.1,0.3-2.3,0.6-3.4,1c-2.1,0.6-4.3,1.1-6.4,1.7c-0.5,0.2-1.1,0.3-1.6,0.4c-1.4,0-2.7,0-4.1,0c-2.9,0-5.7,0.5-8.4,1.1
			c-4.3,1-8.6,1.9-12.9,3.1c-2.2,0.6-4.4,1.2-6.6,2c-2.2,0.7-4.4,1.6-6.6,2.4c-4,1.4-8.3,2.3-12.5,2.9c-2.7,0.3-5.4,0.6-8.1,1
			c-2,0.3-3.9,0.6-5.9,0.9c-2.1,0.2-4.2,0.4-6.3,0.6c-2.9,0.4-5.9,0.8-8.8,1.3c-4.4,0.8-8.8,1.5-13.2,2.1c-1.9,0.2-3.8,0.5-5.7,0.9
			c-1.6,0.4-3.2,1-4.8,1.6c-2,0.8-4,1.6-5.9,2.5c-1.6,0.7-3,1.6-4.5,2.5c-2.8,1.7-5.6,3.5-8.3,5.3c-1.3,0.9-2.7,1.7-4,2.7
			c-1.4,1-2.7,2.1-4.1,3.2c-3.1,2.4-6.3,4.7-9.5,6.9c-3.3,2.4-6.5,5-9.7,7.5c0,0,0,0,0,0c-0.2-0.1-0.5-0.2-0.7-0.3
			c-1.8-0.6-3.6-1.1-5.4-1.6c-2.2-0.7-4.4-1.3-6.6-1.7c-2.5-0.5-4.9-0.9-7.3-1.5c-2.5-0.6-4.9-1.4-7.3-2.1c-2.5-0.7-5-1.2-7.6-1.6
			c-2.4-0.3-4.7-0.5-7.1-0.8c-2.5-0.3-5-0.7-7.5-1.1c-0.7-0.1-1.5-0.2-2.2-0.3c-0.2-0.2-0.4-0.3-0.8-0.5c-0.1,0-0.1-0.1-0.2-0.1
			c-0.1-0.1-0.3-0.1-0.5-0.2c-1.1-0.5-2-1.1-3.1-1.6c-0.7-0.3-1.4-0.6-2.1-0.8c-0.9-0.3-1.9-0.7-2.9-0.8c-1-0.2-2-0.2-3-0.1
			c0,0,0,0,0,0c-0.7-0.1-1.4-0.2-2.1-0.2c-0.6,0-1.1,0.1-1.7,0.3c-0.2,0-0.4,0.1-0.7,0.2c-0.7,0.4-1.4,0.7-2,1.2
			c-0.4,0.4-0.9,0.8-1.3,1.2c-1,0.9-1.8,2-2.5,3.1c-0.9,1.4-1.7,2.7-2.4,4.2c-0.6,1.3-1.1,2.7-1.6,4c-0.5,1.4-1.2,2.7-1.7,4.1
			c-0.5,1.3-0.9,2.6-1.3,3.9c-0.4,0.8-0.7,1.6-0.9,2.5c-0.1,0.4-0.3,0.8-0.4,1.2c-2.2,4.2-4.2,8.5-6.3,12.8
			c-1.2,2.4-2.2,4.8-3.1,7.3c-0.9,2.5-1.7,5-2.6,7.5c-0.9,2.5-2,5.1-2.9,7.6c-1,2.6-1.9,5.1-2.7,7.7c-0.9,2.5-1.7,5.1-2.6,7.6
			c-0.9,2.6-1.9,5.1-2.8,7.6c-1.9,5-3.8,10-5.7,15c-1.9,5.1-3.7,10.3-5.6,15.4c-1,2.7-2,5.4-2.9,8.1c-1,3-1.9,6.1-2.8,9.1
			c-2.5,8.1-5,16.1-7.5,24.2c-0.6,2.1-1.2,4.1-1.7,6.2c-0.4,2-0.8,4-1.1,6c-0.6,4.1-1.3,8.2-1.8,12.4c-0.4,3.3-0.7,6.6-0.7,9.9
			c0,2.7,0.2,5.3,0.5,8c0.3,2.7,0.8,5.4,1.4,8c0.6,3,1.3,6.1,2.3,9c1.7,4.9,4.1,9.6,6.6,14.1c1.2,2.2,2.6,4.4,4.2,6.4
			c0.3,0.3,0.6,0.7,0.9,1c0,0-0.1,0-0.1,0.1c-1.6,1.3-3.2,2.7-4.6,4.2c-1.4,1.5-2.8,3-4,4.6c-1.4,1.9-2.6,4-3.5,6.2
			c-0.4,0.9-0.8,1.9-1.1,2.9c-0.5,1.4-0.9,2.8-1.3,4.2c-0.5,2.2-1,4.5-1.1,6.8c-0.2,2.8-0.3,5.6,0,8.4c0.3,2.8,0.9,5.5,1.6,8.2
			c0.6,2.2,1.4,4.3,2.3,6.4c0.5,1.1,1,2.1,1.5,3.1c0.7,1.3,1.4,2.7,2.1,3.9c2.5,4.1,5.6,8,9,11.4c1.6,1.6,3.2,3.1,5,4.5
			c2,1.5,4.1,2.9,6.3,4.2c1.9,1.1,4,1.9,6,2.5c1.2,0.3,2.4,0.6,3.6,1c0,0.8,0,1.6,0.1,2.5c0.1,1,0.3,2,0.5,3
			c0.4,1.6,0.7,3.1,1.2,4.7c0.3,1.1,0.7,2.1,1.1,3.2c0.6,1.5,1.4,2.8,2.1,4.2c1.3,2.4,3.1,4.6,5.1,6.4c0.8,0.7,1.7,1.4,2.6,2
			c1.2,0.8,2.4,1.5,3.6,2.3c1.1,0.7,2.2,1.4,3.3,2.2c1.3,0.9,2.7,1.9,4,2.8c1.8,1.2,3.6,2.3,5.5,3.1c2,0.8,4.1,1.5,6.2,2
			c1.9,0.5,3.8,0.7,5.7,0.7c1.9,0,3.7-0.4,5.5-0.9c0.7-0.2,1.3-0.4,2-0.7c0.4,1.4,1.1,2.7,1.8,3.9c1.7,3.1,4.1,5.7,6.5,8.2
			c2.4,2.5,4.7,5.1,7.4,7.3c3.5,2.8,7.2,5.4,11.3,7.3c2.1,1,4.2,1.8,6.4,2.6c2.6,0.9,5.3,1.8,8.1,1.9c0.7,0,1.4,0,2,0
			c1.2,0,2.3-0.1,3.5-0.3c1.6-0.3,3.3-0.7,4.8-1.3c0.8-0.4,1.6-0.7,2.4-1.2c1.1,3.9,2.3,7.8,4.1,11.4c1.1,2.2,2.3,4.3,3.7,6.3
			c1.2,1.8,2.6,3.5,3.9,5.2c1.4,1.7,2.8,3.3,4.3,4.9c1.8,2,3.6,3.9,5.5,5.8c1.5,1.5,3.2,2.9,4.8,4.2c0.9,0.7,1.7,1.5,2.7,2.1
			c1.3,0.9,2.7,1.8,4,2.7c1.9,1.2,4,2,6.1,2.8c1.9,0.7,3.7,1.3,5.6,1.9c2.6,0.8,5.3,1.7,8.1,2.1c1.1,0.1,2.3,0.2,3.4,0.2
			c0.5,0,1.1,0,1.6-0.1c0.9-0.1,1.9-0.1,2.8-0.3c1-0.2,2-0.4,2.9-0.7c1.6-0.5,3.2-1.1,4.6-2.1c1-0.6,2-1.3,2.9-2.1
			c1.8-1.6,3.5-3.2,5.2-4.9c1.4-1.4,2.8-2.7,4.2-4.1c0.1-0.1,0.2-0.2,0.3-0.3c2.1,2.3,4.1,4.5,6.3,6.6c1.8,1.8,3.7,3.5,5.7,5.1
			c2,1.6,4.1,3.1,6.3,4.6c4.6,3,9.3,5.7,14.4,7.9c1.1,0.5,2.2,0.8,3.3,1.2c1.6,0.5,3.2,1,4.9,1.3c1.4,0.2,2.8,0.4,4.2,0.5
			c2.1,0.2,4.2,0.2,6.3,0.2c0.9,0,1.8,0,2.7-0.1c2-0.1,4-0.1,6-0.5c2.7-0.6,5.5-1.2,8.1-2.4c1.8-0.8,3.6-1.7,5.4-2.8
			c0.8-0.4,1.5-0.9,2.2-1.4c0.7-0.5,1.4-1,2-1.6c0.9-0.8,1.9-1.7,2.6-2.6c2.4-2.9,4.2-6.2,5.7-9.6c0.6-1.3,1-2.7,1.4-4.1
			c0.3-0.9,0.5-1.8,0.6-2.7c0.2-2,0.4-4.2,0-6.2c-0.4-2.1-0.9-4.3-1.7-6.2c-0.4-0.9-0.8-1.7-1.2-2.5c-0.5-1-1-2-1.6-2.9
			c1.4,0.7,2.7,1.4,4.1,2.1c5,2.6,9.9,5.2,15.1,7.4c2.6,1.1,5.3,2.2,7.9,3.3c2.7,1.1,5.4,2.2,8.2,3.2c6,2,12.1,3.7,18.3,5.2
			c5.4,1.3,10.8,2.3,16.4,2.6c3.1,0.2,6.2,0.1,9.4-0.4c2-0.3,4-0.7,5.9-1.3c1.5-0.4,3-0.9,4.4-1.6c1.7-0.8,3.6-1.7,5.1-3
			c1.7-1.5,3.3-3,4.6-4.9c0.6-0.9,1.4-2.1,2-3.2c0.4-0.8,0.9-1.5,1.2-2.3c0.4-0.8,0.7-1.7,1-2.5c0.4-1.2,0.9-2.5,1.1-3.8
			c0.5-2.8,0.6-5.6,0.5-8.4c0-1.3,0-2.6-0.2-3.9c-0.4-3.4-1-6.8-2.2-10c-0.5-1.4-1.1-2.7-1.7-4c-0.2-0.4-0.4-0.8-0.6-1.2
			c1.9,0.5,3.7,1.1,5.6,1.6c2.7,0.8,5.4,1.5,8.2,2.2c2.8,0.6,5.6,1.2,8.4,1.8c5.2,1.1,10.5,2,15.8,2.5c3.4,0.3,6.8,0.6,10.2,0.5
			c3.6-0.1,7.1-0.4,10.5-1.4c3.4-1.1,6.4-3.1,8.8-5.7c2.4-2.6,4-5.9,4.7-9.4c0.7-3.6,0.8-7.3,0.7-10.9c-0.1-3.1-0.9-6.3-1.7-9.4
			c-0.7-2.7-1.6-5.3-2.6-7.8c-2-5.2-4-10.3-6.4-15.3c-1.4-3-3-6-4.8-8.9c-1.1-1.8-2.3-3.5-3.5-5.2c4.8,3.4,9.8,6.7,15,9.4
			c5,2.6,10.1,5.1,15.4,7c3.3,1.2,6.6,2.2,10,3.2c2.8,0.8,5.6,1.5,8.4,1.9c2.9,0.5,5.7,0.9,8.6,1.1c5.1,0.4,10.3,0.5,15.4-0.6
			c1.4-0.3,2.9-0.7,4.3-1.2c1.1-0.4,2-1,3.1-1.5c1.7-0.9,3-2,4.4-3.3c3-2.8,4.8-6.6,5.6-10.6c0.5-2.3,0.6-4.5,0.7-6.8
			c0.1-1.6,0.1-3.3,0.1-4.9c-0.1-2.8-0.2-5.6-0.5-8.3c-0.3-2.9-0.7-5.8-1.3-8.7c-0.9-4.4-2.2-8.6-3.9-12.7c0,0,0,0,0.1,0
			c1.3-0.1,2.6-0.2,3.9-0.5c0.9-0.2,1.8-0.5,2.6-0.8c2.2-0.8,4.3-1.8,6.4-3c3-1.7,6.1-3.5,9.1-5.3c2.2-1.3,4.5-2.6,6.7-3.9
			c2.4-1.4,4.7-2.8,7.1-4c5-2.6,10.2-4.8,15.1-7.6c2.3-1.3,4.5-2.7,6.7-4.2c2.3-1.6,4.7-3.1,7.1-4.7c4.8-3.2,9.2-6.9,13.6-10.6
			c2.2-1.8,4.4-3.6,6.1-5.8c0.7-0.9,1.6-1.9,2.1-2.9c0.5-0.9,0.9-1.9,1.2-2.8c0.2-0.6,0.4-1.2,0.5-1.8c0.2-1,0.4-2.4,0.4-3.5
			c0-2.3-0.3-4.7-0.8-7C1104.1,405.3,1102,400,1099.8,394.6z M520.3,499.2c-2.9,3.8-5.6,7.8-7.3,12.3c-1,2.5-1.9,5.2-2.4,7.8
			c-0.2,0.9-0.3,1.8-0.3,2.7c-0.2-0.2-0.4-0.3-0.6-0.5c-0.9-0.8-1.8-1.6-2.6-2.4c-2.8-3.2-5.1-6.7-7.3-10.3
			c-2.3-3.6-4.6-7.2-6.7-10.9c-1-2-2-4-2.8-6.1c-0.8-2.1-1.5-4.2-2.1-6.3c-0.3-1.4-0.5-2.7-0.7-4.1c-0.2-1.9-0.3-3.8-0.4-5.7
			c-0.2-3.5-0.2-6.9-0.2-10.4c0-0.1,0-0.1,0-0.2c0.2-3.4,0.3-6.8,1.1-10.2c0.8-3.2,1.6-6.4,2.5-9.5c0,0,0,0.1,0,0.1
			c0-0.1,0-0.1,0.1-0.2c0-0.1,0-0.1,0.1-0.2c0.7,0.7,1.4,1.5,2,2.2c1.7,1.9,3.2,3.8,4.8,5.7c2.1,2.4,4.3,4.8,6.5,7.2
			c3.7,4,7.6,7.8,11.6,11.5c4.1,3.8,8.1,7.6,12.2,11.4c0.8,0.7,1.6,1.4,2.3,2.1c-0.5,1.2-0.9,2.4-1.3,3.7c-0.1,0.4-0.2,0.8-0.4,1.2
			c-1.4,1.2-2.7,2.5-3.9,3.9C522.9,495.6,521.7,497.5,520.3,499.2z M554.5,547c-1,0.5-2,0.9-3,1.2c-0.3,0-0.6,0.1-1,0.1
			c-0.9-0.1-1.8-0.3-2.7-0.6c-1.7-0.6-3.3-1.4-4.8-2.2c-1.3-0.9-2.6-1.8-3.8-2.6c-2.2-1.4-4.4-2.8-6.6-4.2c-0.3-0.2-0.6-0.4-0.9-0.7
			c-0.5-0.4-1.1-0.9-1.6-1.3c-0.7-0.9-1.4-1.9-2-2.9c-0.9-1.9-1.6-4-2.2-6c-0.3-1.5-0.4-2.9-0.5-4.4c0.2-2.5,0.8-4.9,1.5-7.4
			c0.4-1.3,0.9-2.6,1.4-3.9c0.7-1.7,1.5-3.3,2.2-5c1.5-3.5,2.4-7.3,3.9-10.8c1.3-3.2,2.8-6.4,4.4-9.5c0.1-0.2,0.2-0.3,0.3-0.5
			c0.1-0.1,0.2-0.2,0.4-0.3c0.8-0.6,1.7-1.2,2.5-1.8c0.8-0.6,1.6-1.3,2.4-2c1.6-1.2,3.3-2.3,5-3.3c2.5-1.3,5.1-2.6,7.5-4.2
			c2-1.3,3.9-2.8,5.9-4c1-0.5,2-1,3.1-1.3c1.1-0.2,2.2-0.2,3.2-0.3c1,0.1,1.9,0.3,2.9,0.6c1.1,0.3,2.2,0.6,3.4,0.9
			c2.7,0.9,5.5,1.8,8,3.1c0.8,0.6,1.5,1.3,2.2,2c1.2,1.4,2.3,3,3.3,4.6c1.1,1.6,2.3,3.1,3.4,4.6c1.3,1.7,2.6,3.3,3.8,5
			c0.9,1.4,1.8,2.7,2.6,4.1c0.7,1.5,1.3,3,1.8,4.6c0,0.2,0.1,0.4,0.1,0.6c0,0.3-0.1,0.5-0.1,0.8c-0.3,0.8-0.6,1.5-1,2.2
			c-2.1,3.1-4.8,5.7-7.3,8.5c-1.4,1.6-2.7,3.2-4.1,4.8c-1.4,1.6-2.9,3-4.4,4.4c-3.2,3.1-6,6.5-9,9.7c-2.8,3-5.7,5.9-8.7,8.8
			c-1.7,1.5-3.5,3.1-5.3,4.4C558.5,544.4,556.5,545.8,554.5,547z M609.5,574.2c-1.4,1-2.7,2-4.1,2.8c-0.6,0.3-1.2,0.5-1.8,0.7
			c-0.6,0.1-1.2,0.2-1.9,0.2c-1-0.1-2-0.3-3-0.6c-3-1-5.8-2.3-8.7-3.5c-3-1.3-6-2.7-9-4c-1.7-0.8-3.4-1.7-5-2.5
			c-1.4-0.6-2.7-1.2-4.1-1.8c-2.7-1.2-5.5-2.3-8-3.8c-0.5-0.3-0.9-0.6-1.3-1c0.8-0.4,1.6-0.9,2.3-1.3c0.9-0.6,1.9-1.2,2.8-1.9
			c4.2-2.9,7.9-6.3,11.5-9.8c3.2-3.1,6.4-6.3,9.3-9.6c1.5-1.7,3-3.4,4.5-5c1.5-1.6,3.1-3,4.6-4.6c1.5-1.5,2.9-3.1,4.3-4.7
			c1.4-1.7,2.9-3.3,4.4-4.9c1.3-1.4,2.7-2.8,3.9-4.4c1.6-2.1,3.2-4.3,4.3-6.7c0.5-1.1,0.9-2.4,1.3-3.6c0.3-0.1,0.6-0.2,1-0.3
			c0.9-0.2,1.7-0.2,2.6-0.2c1.1,0.1,2.1,0.3,3.2,0.5c1,0.4,2,0.8,2.9,1.4c1.9,1.3,3.7,2.8,5.6,4.2c1,0.7,2,1.5,3,2.3
			c0.6,0.5,1.1,1,1.6,1.5c0.9,1.1,1.9,2.3,2.7,3.5c0.7,1.1,1.4,2.2,2,3.4c0.9,1.7,1.6,3.4,2.2,5.2c0.2,1.1,0.2,2.2,0.3,3.3
			c-0.1,0.9-0.2,1.9-0.3,2.8c-0.1,0.5-0.2,1.1-0.4,1.6c-1.2,3.4-2.8,6.7-4.6,9.9c-1.6,2.4-3.3,4.7-5.2,7c-2.2,2.7-4.1,5.5-6.4,8.1
			c-2.1,2.4-4.1,4.9-6.4,7.1c-1.9,1.8-3.8,3.7-5.8,5.5C612.5,572,611,573.1,609.5,574.2z M691.2,623.6c-2.4,0.5-4.7,1-7,1.8
			c-2.1,0.7-4.3,1.4-6.4,2c-1.1,0.2-2.1,0.3-3.2,0.3c-2-0.2-3.9-0.5-5.8-0.9c-2-0.7-3.9-1.5-5.9-2.2c-2-0.7-4.1-1.3-6.1-1.9
			c-1.3-0.4-2.5-0.9-3.8-1.5c-0.8-0.4-1.6-0.8-2.3-1.3c-3.4-2.3-6.6-4.8-9.6-7.6c-3.1-2.8-5.9-5.8-9.1-8.5c-3-2.6-6.4-4.8-9.3-7.5
			c-2.4-2.2-4.6-4.5-6.9-6.8c0.8-0.5,1.5-1,2.3-1.6c1.7-1.2,3.4-2.4,5-3.8c2-1.8,3.9-3.7,5.9-5.6c1.2-1.1,2.4-2.2,3.5-3.4
			c2,1.4,4.1,2.8,6.2,4c1.9,1.1,3.7,2.3,5.6,3.4c6.3,4.1,12.6,8.5,18.4,13.3c2.9,2.4,5.9,4.7,8.8,7.1c1.6,1.3,3.2,2.7,4.7,4.1
			c1.2,1.1,2.3,2.3,3.5,3.5c3.1,3.5,6.3,6.9,9.5,10.4c0,0,0,0,0,0C689.7,621.8,690.5,622.7,691.2,623.6
			C691.3,623.5,691.2,623.6,691.2,623.6z M1012,505.4c-0.3,3.9-0.5,7.9-1.5,11.7c-0.3,0.9-0.7,1.8-1.2,2.7c-0.4,0.5-0.8,1-1.2,1.4
			c-0.5,0.4-1.1,0.8-1.7,1.2c-1,0.4-2,0.8-3,1.1c-2.4,0.4-4.8,0.6-7.3,0.6c-3.8-0.2-7.5-0.6-11.2-1.3c-3.5-0.7-7-1.6-10.4-2.6
			c-4.9-1.7-9.8-3.5-14.5-5.8c-2.5-1.2-5.1-2.5-7.5-3.9c-1.9-1.1-3.9-2.3-5.8-3.4c-3-2.1-6-4.2-9-6.5c-2.9-2.2-5.7-4.6-8.6-6.9
			c-2.9-2.4-5.8-4.8-8.8-7.1c-2.9-2.2-5.8-4.4-8.7-6.5c-2.4-1.8-4.8-3.6-7.1-5.4c-2.1-1.7-4.2-3.4-6.3-5.2
			c-4.3-3.6-8.7-7.1-12.9-10.8c-4.3-3.7-8.5-7.4-12.8-11c-2-1.6-4-3.1-6.1-4.6c-1.6-1.1-3.2-2.1-4.8-3.1c-1.4-1-2.9-2.3-4.7-2.3
			c-1.4-0.2-2.8-0.1-4.2,0.4c-0.6,0.3-1.2,0.6-1.8,1c-1.1,0.8-2,1.9-2.6,3.1c-1.5,3.2-0.6,7.3,2.1,9.5c0.5,0.4,1,0.8,1.6,1.1
			c0.4,0.3,0.8,0.7,1.3,1c4.2,3.6,8.2,7.6,12.2,11.4c4.2,4.1,8.4,8.2,12.5,12.5c2,2.1,4,4.3,6,6.4c2,2.1,4,4.1,6,6.2
			c3.8,3.8,7.6,7.5,11.4,11.3c2.1,2.4,4.2,4.9,6.2,7.4c2.1,2.8,4.1,5.6,6.2,8.4c3.6,5,7.2,10,10.2,15.3c2.1,4.2,3.9,8.6,5.7,13
			c1.7,4.1,3.3,8.3,4.5,12.6c0.2,1.2,0.5,2.4,0.6,3.6c0.1,1.1,0.2,2.2,0.2,3.3c-0.1,1.7-0.3,3.5-0.6,5.2c-0.1,0.3-0.2,0.6-0.4,0.8
			c-0.2,0.3-0.4,0.5-0.7,0.8c-0.3,0.2-0.6,0.4-0.8,0.6c-0.4,0.2-0.9,0.3-1.3,0.5c-2.6,0.5-5.3,0.5-8,0.5c-3.8-0.2-7.5-0.6-11.3-1.2
			c-4.2-0.6-8.3-1.5-12.5-2.4c-4.2-0.9-8.3-1.8-12.5-3c-3.9-1.1-7.7-2.2-11.6-3.3c-2.5-0.8-5-1.7-7.4-2.7c-3-1.2-5.9-2.5-8.8-3.8
			c-1.5-0.6-2.9-1.3-4.4-1.9c-2.2-2.1-4.3-4.2-6.5-6.2c-4.1-3.9-8.3-7.7-12.7-11.2c-4.6-3.6-9.4-7.1-14-10.7
			c-4.4-3.5-8.8-7-13.3-10.4c-2.2-1.7-4.5-3.2-6.9-4.7c-1.6-1-3.2-2-4.9-3c-0.8-0.5-1.6-1-2.5-1.3c-2.5-0.9-5.3-1.9-7.9-0.6
			c-1.3,0.5-2.4,1.3-3.3,2.4c-0.4,0.6-0.7,1.2-1.1,1.8c-0.6,1.3-0.8,2.7-0.7,4.2c0.3,1.6,0.5,2.8,1.5,4.1c0.6,0.8,1.2,1.5,1.9,2.1
			c1.8,1.7,3.6,3.3,5.3,5c1.9,1.8,3.7,3.6,5.7,5.3c2,1.8,4.1,3.4,6.1,5.2c2,1.7,3.9,3.4,5.9,5c8.6,7.2,17.6,13.8,26.9,20
			c2.8,1.9,5.7,3.6,8.7,5.1c0.8,0.4,1.7,0.9,2.5,1.3c0.8,0.7,1.5,1.5,2.3,2.2c3.9,3.7,7.9,7.4,11.7,11.3c1.2,1.4,2.3,2.9,3.2,4.5
			c0.6,1.2,1.2,2.5,1.8,3.8c0.5,1.3,1,2.6,1.3,3.9c0.3,1.6,0.5,3.2,0.6,4.9c0.1,1.2,0.1,2.4,0.1,3.6c-0.1,1.3-0.3,2.6-0.6,3.9
			c-0.5,1.4-1.2,2.7-1.9,3.9c-0.5,0.6-0.9,1.2-1.4,1.8c-0.4,0.3-0.8,0.6-1.3,0.9c-1.3,0.6-2.7,1.1-4.1,1.5c-1.2,0.3-2.4,0.5-3.6,0.6
			c-1.5,0.2-3,0.3-4.5,0.3c-2.1-0.1-4.2-0.3-6.3-0.7c-2.7-0.4-5.3-1-8-1.6c-4.4-1-8.8-2.1-13.2-3.4c-4.5-1.5-9-3.3-13.4-5.1
			c-4.3-1.8-8.6-3.5-12.8-5.7c-4.2-2.1-8.3-4.3-12.5-6.5c-4-2.1-7.9-4.2-11.7-6.6c-3.5-2.3-6.9-4.6-10.4-6.9
			c-3.9-2.6-7.9-5.2-11.7-8c-3.7-2.7-7.2-5.5-10.9-8.1c-1.7-1.3-3.5-2.5-5.2-3.9c-0.4-0.3-0.7-0.6-1.1-0.9c-0.3-0.3-0.5-0.6-0.8-0.9
			c-0.6-0.7-1.3-1.4-1.9-2.1c-0.4-0.4-0.7-0.8-1.1-1.1c-1.1-0.9-2.4-1.5-3.8-1.7c-1.4-0.2-2.8-0.1-4.2,0.4c-2.6,1-4.7,3.4-5,6.2
			c-0.3,2.4,0.2,4.8,1.8,6.6c0.7,0.8,1.4,1.6,2.2,2.4c0.7,0.7,1.5,1.5,2.2,2.2c0.1,0.1,0.3,0.2,0.4,0.4c3.6,3.8,7.2,7.4,10.8,11.2
			c4.4,4.8,8.6,9.8,13.1,14.6c4,4.3,8.3,8.3,12.4,12.5c0.5,0.6,1,1.2,1.6,1.7c0.7,0.8,1.3,1.6,2,2.5c0.9,1.1,1.7,2.4,2.4,3.7
			c0.6,1.3,1.2,2.6,1.6,4c0.1,0.6,0.2,1.2,0.2,1.9c-0.1,0.6-0.2,1.3-0.3,1.9c-0.7,1.9-1.6,3.6-2.6,5.4c-0.6,0.8-1.1,1.6-1.8,2.3
			c-1,0.8-2,1.4-3.1,2.1c-1.9,1-3.9,1.8-6,2.4c-3.1,0.6-6.3,0.6-9.5,0.6c-2.6-0.1-5.2-0.4-7.7-1c-4.5-1.6-8.8-4-12.9-6.5
			c-2.7-1.8-5.3-3.6-7.7-5.7c-2.6-2.2-5-4.6-7.3-7.1c-3.4-3.7-6.7-7.3-10.1-11c-4.1-4.4-7.9-9.1-12.5-13.1c-4.2-3.6-8.5-7-12.8-10.5
			c-4.2-3.4-8.6-6.5-13.1-9.6c-4.5-3.1-9.2-5.9-13.9-8.8c-0.7-0.5-1.4-1-2.1-1.5c1-1.3,2.1-2.6,3.1-4c1.3-1.7,2.5-3.4,3.6-5.1
			c1.5-2.3,3-4.6,4.1-7c1-2.1,1.9-4.3,2.7-6.5c0.5-1.7,1.1-3.3,1.4-5c0.2-1.2,0.3-2.3,0.4-3.5c0.1-1.6,0.2-3.4,0-5
			c-0.2-1.7-0.6-3.4-1-5c-0.7-2.7-2.2-5.2-3.6-7.6c-1-1.8-2.2-3.6-3.5-5.2c-1-1.3-2.1-2.5-3.3-3.7c-0.8-0.8-1.6-1.7-2.5-2.4
			c-2.2-1.6-4.5-3.1-7-4.2c-1.1-0.5-2.3-1-3.5-1.4c-1.7-0.6-3.5-1.3-5.3-1.5c-3.3-0.5-6.7-0.1-9.7,1.4c-0.7,0.4-1.4,0.8-2,1.2
			c0-0.4-0.1-0.9-0.1-1.3c-0.4-2.6-1.3-5.1-2.3-7.5c-1.1-2.4-2.4-4.6-3.8-6.7c-1.1-1.7-2.3-3.4-3.6-5.1c-1.2-1.6-2.5-3.1-3.7-4.7
			c-1.3-1.7-2.4-3.5-3.7-5.2c-1-1.3-2.1-2.5-3.3-3.7c-0.6-0.7-1.3-1.4-2-2c-2-1.7-4.4-3-6.8-4c-1.7-0.7-3.5-1.2-5.2-1.8
			c-2.5-0.8-5.1-1.6-7.7-2.2c-1-0.2-1.9-0.5-2.9-0.6c-1.5-0.2-3-0.2-4.5-0.1c-2.4,0.2-4.8,0.4-7,1.3c-2.5,0.9-5,2.2-7.3,3.6
			c-1.6,1-3,2.2-4.5,3.4c-1.5,1.2-3,2.4-4.4,3.7c-1.9,1.7-3.8,3.4-5.5,5.3c-0.1,0.1-0.1,0.2-0.2,0.3c-0.4-0.3-0.7-0.7-1.1-1
			c-4.1-3.8-8.1-7.6-12.2-11.4c-3.7-3.5-7.3-7-10.7-10.7c-1.6-1.7-3.2-3.5-4.6-5.3c-1.7-2-3.3-4-5.1-5.9c-1.7-1.9-3.5-3.7-5-5.8
			c-1.2-1.7-2.3-3.5-3.3-5.3c-2.3-4.4-4.2-8.9-5.4-13.7c-1.3-5.8-2.2-11.7-2.2-17.7c0.2-3.1,0.6-6.2,1.1-9.3
			c0.5-3.2,0.9-6.4,1.4-9.6c0.5-3.5,1.3-6.9,2.3-10.4c0.9-3,1.8-6,2.7-8.9c2.1-6.7,4.2-13.4,6.2-20.1c1.6-4.9,3.5-9.6,5.2-14.4
			c1.7-4.8,3.5-9.6,5.3-14.4c1.8-4.8,3.7-9.6,5.5-14.5c1.7-4.6,3.2-9.2,4.8-13.9c0.2-0.5,0.4-1.1,0.6-1.6c0.5-0.8,1-1.7,1.5-2.5
			c0.8-1.3,1.4-2.7,2-4.2c0.3-0.8,0.5-1.5,0.8-2.3c0.6-1.9,1-3.8,1.4-5.7c0.2-0.8,0.4-1.6,0.6-2.4c0.6-1.6,1.1-3.1,1.7-4.6
			c0.4-1.1,1-2.2,1.4-3.4c0.1-0.2,0.1-0.4,0.2-0.6c0.2-0.4,0.3-0.8,0.5-1.2c0.9-2.2,1.9-4.3,2.8-6.5c0.9-2.1,1.8-4.1,3-6
			c1.1-1.9,2.2-3.8,3.3-5.6c1-1.5,2-2.9,3-4.3c1-1.4,2.1-2.8,3.4-4c1.4-1.2,2.9-2.3,4.4-3.2c0.4-0.2,0.9-0.4,1.4-0.5
			c0.3,0,0.5-0.1,0.8-0.1c1.4,0.9,2.9,1.8,4.4,2.6c2.1,1.1,4.4,2,6.6,2.7c3,1,6,1.9,9.1,2.5c2.5,0.5,5.1,0.9,7.6,1.1
			c1.2,0.1,2.3,0.1,3.4,0.1c1.8,0,3.6-0.1,5.4-0.4c2.3-0.4,4.6-0.9,7-1.4c0.6-0.1,1.2-0.3,1.9-0.4c-1.1,0.9-2.3,1.9-3.4,2.8
			c-1.5,1.3-3.1,2.7-4.7,3.9c-1.5,1.1-2.9,2.2-4.4,3.4c-2.9,2.5-5.7,5.1-8.7,7.6c-3,2.5-6,4.9-8.8,7.5c-1.6,1.5-3.1,3.2-4.6,4.9
			c-1,1.1-1.9,2.3-2.8,3.5c-0.7,1-1.2,2.1-1.6,3.2c-0.5,1.4-0.6,2.9-0.5,4.4c0.1,1.7,0.3,3.3,0.7,5c0.7,3.3,2.3,6.4,4.2,9.2
			c0.9,1.3,1.9,2.7,3,3.8c1,1.1,2.1,1.9,3.3,2.8c2.1,1.6,4.6,2.7,7.1,3.7c2.1,0.8,4.2,1.2,6.3,1.6c2.6,0.5,5.3,1.1,8,1.3
			c0.8,0.1,1.6,0.1,2.5,0.1c3.6,0,7.3-0.5,10.9-0.8c2.6-0.2,5.2-0.4,7.8-0.9c2.4-0.5,4.7-1.2,7-1.9c4.4-1.3,8.9-2.4,13.2-4.1
			c4.8-1.9,9.7-3.6,14.4-5.8c4.2-2,8.2-4.3,12.2-6.6c2-1.1,4-2.3,6.1-3.4c1.4-0.7,2.8-1.4,4.2-2c0.1,0,0.1,0,0.2-0.1
			c2.3-1,4.5-2,6.8-3c1.8-0.8,3.5-1.7,5.3-2.5c0.7-0.3,1.3-0.5,2-0.8c0.7-0.2,1.4-0.4,2.1-0.7c1.5-0.7,3-1.4,4.5-2.1
			c1.7-0.7,3.5-1.4,5.3-2.1c2-0.8,3.9-1.6,5.9-2.3c0.1,0,0.3-0.1,0.4-0.1c1.7-0.4,3.5-0.9,5.3-1.3c1.3-0.2,2.7-0.3,4-0.4
			c1.3-0.1,2.7-0.3,4-0.4c2.1-0.2,4.3-0.2,6.4-0.3c2.1-0.1,4.3-0.1,6.4-0.1c2.1,0,4.2,0,6.3,0.1c2.1,0.1,4.1,0.1,6.1,0.3
			c1.2,0.1,2.4,0.3,3.6,0.5c1.5,0.2,2.9,0.5,4.3,0.9c1.4,0.3,2.8,0.6,4.1,1.1c1,0.3,2.1,0.7,3.1,1.1c1,0.4,2,1,3,1.5
			c1,0.6,2,1.1,3.1,1.7c1,0.6,1.9,1.2,2.8,1.8c0.8,0.5,1.6,1,2.4,1.6c0.5,0.4,1,0.9,1.6,1.3c0.7,0.5,1.4,1.1,2.2,1.6
			c0.5,0.4,0.9,0.7,1.3,1.1c0.6,0.5,1.2,0.9,1.8,1.4c1.3,1,2.4,2.1,3.7,3.1c0.6,0.5,1.3,1,1.9,1.5c0.6,0.5,1.2,1,1.7,1.4
			c0.9,0.7,1.9,1.4,2.9,2.1c0.1,0.1,0.2,0.1,0.4,0.2c0.2,0.2,0.3,0.4,0.5,0.5c4,4.1,8.1,8.1,12.3,12c2,1.9,4,3.7,6.2,5.5
			c2.5,2,5.1,4,7.6,5.9c4.5,3.3,9.1,6.6,13.6,9.9c4.2,3.1,8.5,6.4,12.7,9.6c3.2,2.5,6.4,5.2,9.5,7.8c0.9,0.7,1.8,1.4,2.6,2.1
			c0.4,0.3,0.8,0.7,1.3,1c0.5,0.5,1,0.9,1.5,1.2c0,0,0,0,0,0c0.5,0.4,1,0.8,1.5,1.2c0.1,0.1,0.3,0.2,0.4,0.3c0.9,0.7,1.8,1.4,2.7,2
			c3.5,2.7,7.1,5.2,10.6,7.9c4.3,3.4,8.5,7.1,12.8,10.5c4.2,3.3,8.4,6.7,12.6,10c2,1.6,4,3.2,5.9,4.8c2,1.7,3.9,3.4,5.8,5
			c2.6,2.2,5.3,4.4,8.1,6.4c2,1.4,4.1,2.8,6.1,4.3c0.6,0.5,1.2,1,1.8,1.5c1.9,1.6,3.8,3.3,5.7,5c2.1,1.8,4.2,3.7,6.3,5.5
			c1.9,1.7,3.9,3.3,5.7,5.1c2,1.9,3.9,3.9,5.8,5.9c3.8,4,7.5,8.1,11.3,12.1c1.9,2,3.8,3.9,5.6,5.9c1.6,1.9,3.2,3.8,4.8,5.7
			c2,2.6,4,5.2,6.2,7.7c1.9,2.1,3.9,4.1,5.9,6.1c3.9,3.9,7.9,7.8,11.4,12.1c1.9,2.7,3.6,5.5,5.4,8.2c1,1.4,2,2.9,3.1,4.3
			c0.6,0.8,1.2,1.6,1.8,2.3c0.4,0.4,0.7,0.9,1.1,1.3c0.7,0.7,1.4,1.3,2.2,1.8c0.4,0.3,0.8,0.6,1.2,0.8c0.4,0.2,0.8,0.4,1.2,0.6
			c0.3,0.7,0.5,1.5,0.8,2.2c0.6,1.8,1.1,3.5,1.6,5.3c0.7,3.5,1.3,7,1.4,10.6C1012,498.8,1012,502.1,1012,505.4z M1090.9,417.9
			c-0.1,0.1-0.1,0.2-0.2,0.4c-1.1,1.2-2.4,2.3-3.8,3.4c-3,2.2-5.9,4.6-8.8,6.8c-1.1,0.8-2.2,1.6-3.4,2.4c-2.2,1.5-4.5,3-6.8,4.5
			c-2.3,1.5-4.7,3.1-7.1,4.5c-2.3,1.3-4.7,2.6-7.1,3.8c-2.5,1.2-5.1,2.3-7.5,3.6c-4.9,2.6-9.7,5.5-14.5,8.2
			c-2.2,1.3-4.5,2.6-6.7,3.9c-2,1.2-4,2.3-6.1,3.3c-0.6,0.2-1.3,0.4-2,0.6c-0.3,0-0.6,0-0.9,0c-0.4-0.1-0.8-0.2-1.2-0.3
			c0,0-0.1,0-0.1-0.1c-0.4-0.4-0.7-0.7-1-1.1c-1.2-1.6-2.3-3.1-3.4-4.8c-1.1-1.7-2.1-3.4-3.2-5c-2.5-3.7-5.4-7.1-8.5-10.4
			c-3-3.1-6.1-6.1-9.1-9.2c-1.4-1.4-2.8-2.8-4.1-4.3c-1.1-1.2-2.1-2.5-3.1-3.7c-2-2.6-3.9-5.2-6.1-7.7c-2.1-2.4-4.2-4.6-6.4-6.9
			c-3.8-4-7.5-8-11.2-12c-1.7-1.8-3.4-3.6-5.2-5.3c-2-2-4.1-3.9-6.2-5.7c-1.9-1.7-3.9-3.3-5.9-5c-2-1.8-4-3.6-6-5.3
			c-2.4-2-4.9-4-7.5-5.9c-2-1.4-4.1-2.8-6.1-4.3c-1.1-0.9-2.3-1.9-3.4-2.8c-8.1-7.1-16.6-13.8-25.1-20.4c-4.4-3.5-8.6-7.2-13.1-10.7
			c-4.5-3.5-9.2-6.8-13.8-10.3c-0.4-0.4-0.8-0.7-1.3-1c0,0-0.1-0.1-0.1-0.1c-0.4-0.4-0.9-0.8-1.3-1.1c-1.7-1.3-3.3-2.7-4.9-4.1
			c-4.8-4-9.7-7.8-14.7-11.5c-4.6-3.4-9.1-6.9-13.7-10.2c-4-2.9-7.9-5.8-11.8-8.7c-2.2-1.7-4.3-3.5-6.3-5.4
			c-2.3-2.2-4.6-4.4-6.9-6.7c-4.2-4.1-8.3-8.3-12.4-12.5c-1.9-2-3.9-3.9-6.1-5.7c-1.5-1.2-3-2.3-4.5-3.5c0,0,0,0-0.1,0c0,0,0,0,0,0
			c-0.3-0.2-0.5-0.3-0.8-0.5c-0.2-0.1-0.5-0.3-0.7-0.4c-0.5-0.3-0.9-0.6-1.4-0.8c-0.1,0-0.1-0.1-0.2-0.1c-0.4-0.3-0.8-0.5-1.2-0.8
			c-0.1,0-0.1-0.1-0.2-0.1c-0.7-0.5-1.3-1-2-1.4c-0.2-0.1-0.3-0.2-0.5-0.4c0,0-0.1,0-0.1,0c0,0,0,0,0,0c-0.1,0-0.1,0-0.2-0.1
			c-1.2-0.4-2.4-0.7-3.6-1c0,0,0,0,0,0c-1.1-0.3-2.3-0.6-3.4-0.9c-3.3-0.8-6.6-1.6-9.9-2.2c-5.8-1.2-11.6-2.6-17.3-4.2
			c-1.2-0.1-2.4-0.2-3.6-0.2c-2.3-0.1-4.6,0-7,0c-2.2,0-4.5,0.2-6.7,0.4c-2.4,0.3-4.8,0.6-7.2,1.1c-1.1,0.2-2.1,0.4-3.2,0.6
			c-1,0.2-2.1,0.4-3.1,0.5c-1.1,0.2-2.1,0.4-3.2,0.7c-1,0.3-2,0.5-3,0.8c-2.1,0.5-4.2,0.9-6.3,1.6c-0.9,0.3-1.8,0.6-2.7,0.9
			c-1.7,0.3-3.4,0.5-5.1,0.9c-2.3,0.5-4.6,1.6-6.8,2.5c-1.9,0.8-3.8,1.6-5.6,2.5c-1.8,0.9-3.6,2-5.4,3.1c-1.9,1.2-3.9,2.3-6,3.3
			c-2.1,1-4.1,1.9-6.1,3c-2,1.1-4.1,2.2-6.1,3.3c-2.1,1.1-4.3,2.3-6.4,3.5c-1.9,1.1-3.9,2-5.9,3c-2.1,1-4.3,2-6.5,2.9
			c-1.9,0.8-3.7,1.7-5.6,2.5c-3.2,1.3-6.6,2.3-9.9,3.4c-3.3,1.1-6.6,2.2-10,2.8c-2.4,0.3-4.7,0.5-7.1,0.7c-2.6,0.2-5.2,0.4-7.7,0.1
			c-1.8-0.3-3.6-0.7-5.3-1.1c-1.7-0.4-3.4-0.8-5-1.4c-1.6-0.7-3.1-1.6-4.6-2.6c-1.8-1.5-3.3-3.3-4.8-5.1c-0.3-0.5-0.6-0.9-0.9-1.4
			c-0.4-1.1-0.7-2.2-0.9-3.4c0-0.1,0-0.1,0-0.2c1-1.1,2.1-2.1,3.1-3.1c1.3-1.2,2.6-2.4,4-3.5c2.4-1.7,4.8-3.4,7.1-5.1
			c2.6-1.8,5.1-3.8,7.6-5.7c-0.2,0.1-0.4,0.3-0.6,0.4c0.2-0.2,0.5-0.4,0.7-0.6c0,0,0,0,0.1,0c0,0,0,0,0,0c0,0,0.1,0,0.1-0.1
			c0,0,0,0,0,0c0,0,0,0,0,0c2.6-2,5.4-3.8,8-5.7c2.8-2.1,5.5-4.4,8.3-6.6c1.4-1,2.8-2,4.2-3.1c1.7-1.2,3.3-2.5,5-3.8
			c2.6-2,5.4-3.8,8-5.8c3.3-2.4,6.7-4.8,9.9-7.4c-0.5,0.4-1.1,0.8-1.6,1.2c1.5-1.1,3-2.2,4.6-3.2c1.7-1.1,3.3-2.2,5-3.3
			c3.3-2.1,6.6-4.1,10.1-5.7c1.1-0.5,2.2-0.9,3.3-1.3c1.9-0.6,3.8-1,5.7-1.3c-0.3,0-0.6,0.1-0.9,0.1c3.6-0.5,7.2-1,10.8-1.6
			c3.1-0.5,6.1-1,9.2-1.5c2.5-0.3,5-0.5,7.4-0.8c2.9-0.4,5.9-0.9,8.8-1.3c4.9-0.6,9.8-1.1,14.7-2.1c2.2-0.5,4.3-1.1,6.5-1.8
			c2.1-0.7,4.2-1.5,6.3-2.3c2-0.7,4-1.4,6.1-1.9c1.2-0.3,2.5-0.6,3.7-1c0.4,0,0.7-0.1,1.1-0.1c2.3-0.3,4.6-0.7,6.9-1
			c0.2,0,0.4-0.1,0.6-0.1c1-0.1,2.1-0.3,3.1-0.4c2.5-0.3,5.1-0.7,7.6-1.1c2.1-0.4,4.1-0.9,6.1-1.5c1.9-0.5,3.8-1,5.7-1.5
			c2-0.6,4-1.1,6.1-1.5c3.2-0.3,6.4-0.4,9.6-0.5c1.8-0.1,3.7-0.2,5.5-0.2c1.7-0.1,3.3,0,5,0c3.1,0.1,6.2,0.1,9.3,0.2
			c3,0,5.9,0.2,8.9,0.5c3.3,0.5,6.7,1,9.9,1.8c1.8,0.5,3.5,1.1,5.2,1.8c1.3,0.5,2.6,1.1,3.9,1.6c2.1,0.9,4.1,1.9,6.1,3
			c2,1,4,1.9,6,2.9c4.2,1.9,8.3,4,12.4,6.1c4.1,2.1,8,4.4,12.1,6.4c4.3,2.1,8.5,4.2,12.8,6.4c2.5,1.3,5.1,2.6,7.6,4
			c2.4,1.3,4.8,2.6,7.1,3.9c4.7,2.6,9.4,5,14.1,7.6c2.4,1.3,4.8,2.6,7.2,3.8c3.1,1.5,6.3,2.9,9.5,4.1c2.4,1,4.8,1.9,7.2,2.9
			c2.6,1.1,5.2,2.1,7.9,2.8c2.6,0.7,5.3,1.1,7.9,1.5c3.1,0.4,6.3,1,9.5,1c5.4,0,10.9-0.5,16.3-1.1c3.3-0.4,6.6-0.8,9.9-1.6
			c2.7-0.6,5.3-1.4,8-2.3c2.6-0.9,5.3-1.7,8-2.4c2.1-0.5,4.3-0.9,6.4-1.3c3-0.3,6-0.6,9-0.3c0.5,0.1,1,0.2,1.5,0.4
			c0.1,0,0.1,0.1,0.2,0.1c0.5,0.5,1,1,1.5,1.6c2.3,3,4.4,6.2,6.5,9.3c1.5,2.1,2.8,4.3,4.2,6.4c1.5,2.3,3.1,4.5,4.7,6.8
			c3.1,4.6,5.9,9.4,8.8,14.1c1.4,2.3,2.8,4.7,4.1,7c1.4,2.4,2.8,4.8,4.1,7.2c1.3,2.4,2.6,4.9,3.8,7.4c1.2,2.4,2.3,4.9,3.4,7.4
			c1.7,4.1,3.4,8.2,5,12.4c0.9,2.3,1.7,4.7,2.5,7c0.7,2.1,1.3,4.2,1.9,6.3c0.7,2.4,1.4,4.8,2.2,7.1c0.7,2.1,1.5,4.2,2.2,6.3
			c0.8,2.3,1.5,4.5,2.1,6.8c0.5,1.8,0.8,3.6,1.1,5.5c0.2,2.4,0.4,4.9,0.7,7.3c0.3,3.2,0.8,6.4,1.3,9.5c0.4,2.3,0.9,4.6,1.3,6.9
			c0.4,2.5,0.8,5,1.2,7.5c0.4,2.5,0.9,5.1,1.6,7.6c0.8,2.5,1.6,4.9,2.5,7.3c1,2.6,1.9,5.2,2.7,7.9c0.6,2.1,1.1,4.2,1.5,6.4
			c0.1,1.1,0.2,2.1,0.1,3.2C1090.9,417.8,1090.9,417.8,1090.9,417.9z"/>
		<path class="st0" d="M1214.8,364c-0.2-1.7-0.4-3.3-0.8-4.9c-2-9.1-4.2-18.1-6.6-27.1c-2.4-9-4.9-17.9-7.2-27
			c-1.2-4.6-2.2-9.3-3.5-13.9c-0.6-2.3-1.2-4.7-1.9-7c-0.4-1.4-0.9-2.9-1.3-4.3c-0.3-1.1-0.8-2.1-1.1-3.2c-1.7-4.8-3.9-9.5-6.1-14.2
			c-1.9-4.1-3.8-8.1-5.7-12.1c-2.1-4.5-4.3-9-6.5-13.5c-2-4-4.2-7.9-6.6-11.7c-2.8-4.4-5.7-8.6-8.9-12.7c-1.2-1.5-2.3-2.9-3.6-4.3
			c-0.9-1-1.9-1.9-2.9-2.8c-1.5-1.2-3-2.4-4.6-3.5c-1.9-1.2-3.8-2.4-5.9-3.4c-4.7-2.3-9.4-4.5-14.3-6.1c-2.3-0.8-4.6-1.4-6.9-2
			c-2.2-0.5-4.4-1-6.5-1.5c-4.5-1-9-2-13.6-2.7c-5-0.7-10.1-1.1-15.2-1.4c-1.2-0.1-2.3-0.1-3.5,0c-1.6,0-3.1,0.3-4.6,0.5
			c-2.3,0.3-4.6,0.8-6.9,1.2c-2.1,0.4-4.3,0.7-6.4,1.3c-2.2,0.6-4.3,1.3-6.4,2.1c-1.6,0.6-3.1,1.2-4.6,2c-0.9,0.5-1.8,1.1-2.6,1.7
			c-2.1,1.5-4.3,3-6.3,4.8c-1.5,1.3-2.9,2.7-4.1,4.2c-0.9,1.2-1.9,2.4-2.6,3.7c-0.5,1.1-1.1,2.3-1.4,3.5c-0.2,1.1-0.4,2.2-0.5,3.3
			c-0.1,1.6,0.1,3.4,0.5,4.9c0.2,0.9,0.5,1.8,0.8,2.6c0.6,1.5,1.2,2.9,1.9,4.3c0.7,1.3,1.7,2.5,2.6,3.7c2.9,3.4,6.7,6,10.3,8.7
			c2.9,2.3,5.8,4.6,8.5,7.1c0.3,0.3,0.6,0.6,0.9,0.9c1.1,1.6,2.3,3.2,3.4,4.8c2.7,3.9,5.3,7.9,7.7,12.1c2.1,3.8,3.9,7.8,5.6,11.8
			c2.7,6.8,5.4,13.6,8,20.4c2.6,6.8,4.8,13.6,6.8,20.6c1.2,4.4,2.1,8.8,3,13.3c0.8,4.3,1.5,8.7,2.3,13.1c0.8,4.6,1.5,9.2,2.2,13.9
			c0.8,4.6,1.8,9.2,2.6,13.8c0.8,4.4,1.4,8.8,2.3,13.2c0.9,4.3,2,8.6,3.2,12.9c1.2,4.3,2.4,8.5,3.7,12.7c0.1,0.2,0.2,0.5,0.2,0.7
			c0.3,0.7,0.6,1.4,0.9,2.1c0.6,0.8,1.2,1.7,2,2.4c1.3,1.3,3,2.1,4.7,2.7c2,0.7,4.1,1,6.2,1.2c1.2,0.1,2.5,0.3,3.7,0.3
			c0.7,0,1.4,0.1,2.1,0.1c0.8,0,1.7,0,2.5-0.1c1.8-0.2,3.6-0.4,5.3-0.9c2.8-0.7,5.4-1.7,8.1-2.6c2.1-0.7,4.2-1.5,6.2-2.3
			c4.6-1.9,9.2-3.8,13.4-6.5c3.9-2.5,7.6-5.2,11.6-7.5c2-1.1,4-2.3,6.1-3.3c2.2-1.1,4.5-2.2,6.7-3.2c2-1,4.1-2,6-3.1
			c2-1.2,3.9-2.5,5.9-3.8c1-0.6,1.9-1.3,2.9-1.9c1.4-0.9,2.9-1.8,4.1-3c3-2.8,4.5-6.9,4.6-11C1215.1,366.6,1215,365.3,1214.8,364z
			 M1050.4,236.3c0.3,0.2,0.6,0.5,0.9,0.7c0,0,0,0,0.1,0.1C1051,236.8,1050.7,236.6,1050.4,236.3z M1199.2,367.7
			c-1.2,0.8-2.4,1.6-3.5,2.3c-1.9,1.3-3.8,2.6-5.7,3.8c-2,1.2-4,2.2-6,3.2c-2.2,1.1-4.5,2.2-6.7,3.3c-2.1,1.1-4.1,2.2-6.1,3.4
			c-4,2.3-7.8,5.1-11.6,7.6c-3.2,2.1-6.6,3.8-10.1,5.3c-2.2,0.9-4.4,1.7-6.6,2.6c-3.2,1.2-6.4,2.4-9.8,3.1c-2.7,0.2-5.5,0.2-8.2-0.1
			c-0.3-0.1-0.6-0.1-0.8-0.2c-0.9-2.4-1.7-4.8-2.4-7.3c-1-3.1-2-6.3-2.9-9.5c-0.9-3-1.8-6.1-2.5-9.2c-0.8-3.1-1.4-6.3-2.2-9.4
			c-1.1-4.4-2.3-8.7-3.3-13.1c-0.6-2.5-1.1-4.9-1.6-7.4c0-0.8-0.1-1.5-0.1-2.3c-0.1-1.7-0.2-3.3-0.2-5c-0.1-1.6-0.1-3.2-0.3-4.9
			c-0.2-1.9-0.5-3.8-0.8-5.7c-0.3-1.7-0.5-3.4-0.8-5.1c-0.6-3.3-1.2-6.6-2.1-9.8c-0.8-3.1-1.6-6.2-2.5-9.3c-0.8-3.1-2-6.2-3-9.3
			c-1.2-3.7-2.6-7.3-4.2-10.8c-1.4-3.2-3-6.4-4.6-9.6c-1.4-2.9-2.8-5.9-4.3-8.8c-0.8-1.6-1.7-3.1-2.5-4.7c-0.9-1.5-1.8-3-2.7-4.4
			c-0.9-1.4-1.7-2.9-2.6-4.3c-1-1.6-2.1-3.1-3.3-4.6c-2-2.5-4.1-5-6.1-7.5c-0.3-0.5-0.7-0.9-1-1.3c0.2,0.2,0.3,0.4,0.4,0.6
			c-2-2.6-4.1-5.2-6.2-7.7c-0.9-1.1-1.8-2.1-2.8-3.1c-0.2-0.3-0.3-0.6-0.5-0.9c-0.8-1.3-1.6-2.6-2.5-3.9c-1.4-2.1-2.9-4.2-4-6.5
			c-0.4-1-0.7-2-0.9-3c0-0.3,0-0.6,0-0.9c0.2-0.3,0.3-0.6,0.5-0.9c1.3-1.4,2.7-2.8,4.1-4c0.9-0.7,1.9-1.4,2.8-2.1
			c1.1-0.7,2.1-1.4,3.3-1.9c2.6-1,5.3-1.9,8-2.4c3-0.6,5.9-1.1,8.9-1.6c1.3-0.1,2.5-0.2,3.8-0.2c1.6,0,3.1,0.1,4.7,0.2
			c3.1,0.2,6.1,0.5,9.2,0.8c5.3,0.8,10.5,2,15.7,3.2c2.8,0.6,5.7,1.2,8.5,2.1c2.4,0.8,4.8,1.7,7.2,2.6c2,0.9,4,1.8,5.9,2.8
			c1.1,0.6,2.2,1.1,3.2,1.8c1.3,0.8,2.6,1.6,3.9,2.5c2.4,2,4.3,4.3,6.3,6.8c1,1.5,2.1,2.9,3.1,4.4c2.6,3.9,5.1,7.8,7.4,11.9
			c2.3,4.2,4.4,8.5,6.4,12.9c3.9,8.2,7.9,16.4,11.6,24.7c-0.1-0.2-0.2-0.4-0.3-0.6c0.4,1,0.8,1.9,1.2,2.9c0.5,1.5,1,2.9,1.6,4.4
			c0.5,1.5,1,3.1,1.4,4.7c0.4,1.3,0.7,2.7,1.1,4c1.6,5.9,3,11.8,4.5,17.7c2.2,8.8,4.8,17.5,7,26.2c1.2,4.6,2.3,9.1,3.5,13.7
			c1.2,4.9,2.5,9.8,3.4,14.8C1199.1,366,1199.2,366.8,1199.2,367.7C1199.2,367.7,1199.2,367.7,1199.2,367.7z"/>
		<path class="st0" d="M482.7,306.6c1.5-4,2.9-8,4.4-12.1c1.8-3.8,3.3-7.6,4.9-11.4c0.1-0.2,0.1-0.4,0.2-0.6c0,0,0-0.1,0.1-0.1
			c0.3-0.7,0.7-1.4,1-2.2c2-4.3,4.1-8.6,6-12.9c2-4.6,3.9-9.3,5.8-14c1.8-4.6,3.6-9.2,5.3-13.8c1.7-4.6,3.3-9.2,4.8-13.9
			c0.9-2.6,1.7-5.2,2.5-7.8c0.3-0.9,0.6-1.9,0.9-2.8c0.1-0.2,0.2-0.4,0.2-0.7c0.8-2.5,1.6-4.9,2.4-7.4c0-0.1,0.1-0.3,0.1-0.4
			c0.4-0.6,0.8-1.3,1-2c0.8-2.3,1.4-4.6,1.6-7c0.1-0.2,0.1-0.4,0.2-0.7c0.4-1.4,0.8-2.9,0.9-4.3c0.1-0.9-0.4-2-1.1-2.6
			c-0.2-0.2-0.4-0.3-0.6-0.5c-0.4-1.2-0.9-2.4-1.6-3.4c-1.4-2-3.4-3.5-5.8-4.3c-1.4-0.5-2.9-0.9-4.3-1.3c-3.8-1-7.6-1.9-11.4-3
			c-1.7-0.5-3.4-1.1-5-1.6c-2.3-0.7-4.6-1.4-6.9-2.1c-2-0.7-3.9-1.4-5.7-2.2c-2.1-0.9-4.2-1.9-6.3-2.6c-2.8-1-5.7-1.8-8.6-2.6
			c-2.2-0.6-4.3-1.3-6.5-1.8c-2.2-0.5-4.5-0.9-6.7-1.2c-2.8-0.4-5.6-0.4-8.4-0.5c-2.8-0.1-5.5,0.6-8.1,1.4c-0.9,0.3-1.9,0.6-2.8,1
			c-1.5,0.6-3.1,1.4-4.5,2.2c-0.9,0.5-1.8,1-2.6,1.6c-2.2,1.6-4.2,3.5-6.1,5.4c-0.8,0.8-1.5,1.6-2.2,2.4c-1,1.2-1.8,2.6-2.6,4
			c-1.1,1.8-2,3.7-3,5.5c-1,1.8-2,3.6-2.9,5.5c-1.9,4-3.3,8.2-5,12.3c-1.7,4.1-3.7,8.1-5.5,12.1c-1.8,3.8-3.6,7.7-5.5,11.4
			c-2.1,4-4.2,8-6.1,12.1c-3.8,8.2-7.4,16.4-11.3,24.6c-3.9,8.2-8,16.3-11.6,24.6c-1.8,4.1-3.6,8.3-5.5,12.4
			c-2,4.2-4.1,8.3-6.2,12.5c-2.1,4.1-4,8.3-5.6,12.6c-0.9,2.5-1.8,5-2.5,7.5c-0.7,2.2-1.4,4.5-1.9,6.7c-0.5,2.2-1,4.3-1.2,6.6
			c-0.3,3-0.4,6-0.4,9c0,2,0.2,4.1,0.6,6.1c0.2,1.2,0.5,2.4,0.7,3.7c0.3,1.5,0.7,3.2,1.3,4.7c0.7,1.6,1.5,3.2,2.4,4.7
			c0.2,0.4,0.5,0.8,0.8,1.2c1.1,1.4,2.3,2.9,3.7,4.1c1.5,1.2,3.1,2.2,4.8,3.2c0.8,0.5,1.6,0.9,2.4,1.3c1.9,1,3.9,1.8,5.9,2.5
			c1.9,0.7,3.7,1.6,5.5,2.6c1.6,1,3.2,2.1,4.8,3c1.6,0.9,3.2,1.6,4.8,2.3c3.4,1.5,6.7,3.2,10.1,4.8c3.9,1.9,7.9,3.4,11.8,5.3
			c2.1,1,4.1,1.9,6.2,2.8c2,0.9,4.1,1.5,6.2,2.2c2.6,0.8,5.3,1.5,7.9,1.9c1.2,0.2,2.4,0.4,3.6,0.5c1.1,0.1,2.2,0.2,3.3,0.2
			c0.6,0,1.2,0,1.8-0.1c1-0.2,2-0.4,3-0.7c0.6-0.1,1.1-0.3,1.7-0.5c3.4-1.3,6.5-3.5,8.6-6.6c0.9-1.4,1.7-2.8,2.4-4.4
			c0.8-1.8,1.7-3.5,2.5-5.3c0.9-2,1.7-4,2.4-6c0.8-2.1,1.4-4.3,2.1-6.4c1.3-4.1,2.7-8.3,4.2-12.4c1.5-4.4,3-8.8,4.4-13.2
			c1.3-4.3,2.7-8.6,4.2-12.9c1.5-4.3,3.3-8.6,5.2-12.8c1.8-4.1,3.8-8,5.4-12.1C479.3,315.3,481,311,482.7,306.6z M462.6,322.7
			c-2.1,4-4.2,8-6,12.2c-1.8,4.2-3.5,8.5-5,12.8c-1.5,4.3-3.1,8.6-4.8,12.9c-1.6,4-3.2,8-4.7,12.1c-1.6,4.3-3,8.6-4.8,12.8
			c-0.8,1.9-1.7,3.8-2.6,5.6c-0.8,1.5-1.5,3-2.3,4.4c-0.2,0.3-0.4,0.5-0.6,0.8c-0.2,0.1-0.3,0.2-0.5,0.3c-0.3,0.1-0.7,0.3-1,0.4
			c-0.4,0.1-0.8,0.1-1.2,0.1c-3.2-0.3-6.3-1-9.3-1.8c-0.4-0.1-0.8-0.2-1.2-0.4c-1-0.3-1.9-0.7-2.8-1.1c-1.7-0.6-3.3-1.4-4.9-2.2
			c-3.5-1.7-7-3.2-10.5-4.8c-3.4-1.5-6.8-3.2-10.1-4.8c-3.1-1.5-6.3-2.8-9.3-4.5c-1.5-1-3-2-4.6-2.8c-1.6-0.8-3.1-1.5-4.8-2.1
			c-1.6-0.6-3.1-1.2-4.6-1.9c-1-0.5-2-1.1-3-1.7c-0.6-0.4-1.2-0.9-1.8-1.4c-0.5-0.6-0.9-1.2-1.3-1.8c-0.4-1-0.8-2-1.1-3.1
			c-0.3-1.6-0.6-3.3-0.8-5c-0.2-1.7-0.2-3.4-0.2-5c0.2-2.6,0.4-5.1,1-7.7c0.5-2.5,1.2-4.9,1.9-7.3c0.6-1.9,1.3-3.8,2-5.6
			c1.6-4.3,3.6-8.5,5.7-12.6c0.9-1.8,1.9-3.6,2.8-5.5c1.1-2.2,2.2-4.5,3.2-6.7c1.9-4.1,3.7-8.3,5.5-12.4c1.8-4,3.7-8.1,5.6-12
			c4-8.2,7.9-16.4,11.7-24.7c1.8-4.1,3.6-8.1,5.5-12.2c2-4.1,4.1-8.1,6.1-12.1c2-3.9,3.8-7.8,5.6-11.7c1.9-4.1,3.9-8.1,5.6-12.3
			c0.8-2,1.6-4,2.3-6c0.8-2,1.6-4.1,2.6-6c1-1.9,2.1-3.8,3.1-5.8c0.7-1.4,1.5-2.9,2.3-4.3c0.7-0.9,1.4-1.8,2.2-2.6
			c0.5-0.5,1-1.1,1.6-1.6c0.7-0.7,1.5-1.3,2.3-1.9c0.6-0.4,1.1-0.8,1.7-1.1c1.6-0.8,3.2-1.4,4.9-1.9c1.2-0.2,2.5-0.4,3.7-0.3
			c0.1,0,0.2,0,0.3,0c3.3,0.2,6.6,0.6,9.9,1.4c3.3,0.8,6.6,1.8,9.9,2.7c1.4,0.4,2.7,0.9,4.1,1.4c1.8,0.7,3.6,1.6,5.4,2.3
			c3.8,1.6,7.7,2.7,11.6,3.8c4.2,1.3,8.3,2.7,12.6,3.8c1.9,0.5,3.9,1,5.9,1.3c0.6,0.1,1.1,0.2,1.7,0.2c0,0.3-0.1,0.6-0.1,0.9
			c0-0.1,0-0.3,0.1-0.4c-0.2,1.6-0.4,3.2-0.6,4.8c-0.4,2.7-0.8,5.4-1.2,8c-0.8,4.7-2.1,9.3-3.5,13.9c-0.8,2.4-1.5,4.8-2.3,7.2
			c-0.4,1.1-0.8,2.2-1.1,3.3c-0.2,0.6-0.5,1.2-0.7,1.9c-0.2,0.4-0.3,0.8-0.5,1.3c-0.2,0.5-0.3,1-0.4,1.5c-1,2.6-2,5.3-3.1,7.9
			c-1,2.6-2,5.1-3,7.7c-0.6,1.5-1.2,3.1-1.8,4.6c-1.1,2.9-2.2,5.8-3,8.8c0,0.1,0,0.1-0.1,0.2c-0.8,1.9-1.6,3.8-2.4,5.6
			c-3.7,8.7-7.4,17.3-11.1,26c-1.7,3.9-3.4,7.9-5.3,11.7C466.8,314.6,464.7,318.7,462.6,322.7z"/>
	</g>
</g>
</svg>
